<svg width="163" height="163" viewBox="0 0 163 163" fill="none" xmlns="http://www.w3.org/2000/svg">
<g clip-path="url(#clip0_123_5595)">
<path d="M163 0H0V163H163V0Z" fill="white"/>
<path d="M26.1238 64.4233C34.3959 97.9336 -10.7951 130.917 45.6143 149.428C99.4658 167.096 140.963 138.726 143.795 86.7543C145.23 60.4143 131.276 28.4524 107.035 17.9185C64.439 -0.596624 15.9811 23.331 26.1238 64.4233Z" fill="#FFE9D2"/>
<path d="M130.253 21.9708H77.2173V76.1781H130.253V21.9708Z" fill="white"/>
<path d="M102.827 70.1658H95.239V72.2709H102.827V70.1658Z" fill="#56615F"/>
<path d="M98.0027 66.7869V71.4397H100.062V66.7869H98.0027Z" fill="#56615F"/>
<path d="M100.062 62.1348V66.7876H102.121V62.1348H100.062Z" fill="#56615F"/>
<path d="M108.417 62.134H112.97V60.0289H108.417V62.134Z" fill="#56615F"/>
<path d="M103.865 64.2391H108.477V62.134H103.865V64.2391Z" fill="#56615F"/>
<path d="M104.732 63.2604V72.271H106.792V63.2604H104.732Z" fill="#56615F"/>
<path d="M108.477 64.3476V72.271H110.537V64.3476H108.477Z" fill="#56615F"/>
<path d="M102.884 49.6384V60.0133H104.944V49.6384H102.884Z" fill="#56615F"/>
<path d="M104.046 56.8438H112.862V54.7386H104.046V56.8438Z" fill="#56615F"/>
<path d="M112.219 51.4159H121.035V49.3108H112.219V51.4159Z" fill="#56615F"/>
<path d="M100.062 60.8047H98.0752V62.9098H100.062V60.8047Z" fill="#56615F"/>
<path d="M100.062 56.4697H98.0752V58.5749H100.062V56.4697Z" fill="#56615F"/>
<path d="M100.505 47.6531H96.3496V49.7582H100.505V47.6531Z" fill="#56615F"/>
<path d="M91.905 51.8258H89.4482V53.9309H91.905V51.8258Z" fill="#56615F"/>
<path d="M86.6479 47.6531H84.1912V49.7582H86.6479V47.6531Z" fill="#56615F"/>
<path d="M84.1912 45.5479H81.0527V47.653H84.1912V45.5479Z" fill="#56615F"/>
<path d="M84.1911 49.7582H81.7344V51.8633H84.1911V49.7582Z" fill="#56615F"/>
<path d="M100.452 41.358H96.2964V43.4632H100.452V41.358Z" fill="#56615F"/>
<path d="M86.5229 41.358H82.3677V43.4632H86.5229V41.358Z" fill="#56615F"/>
<path d="M96.4398 49.7582H92.2847V51.8633H96.4398V49.7582Z" fill="#56615F"/>
<path d="M96.3202 43.4427H84.1912V45.5479H96.3202V43.4427Z" fill="#56615F"/>
<path d="M103.614 41.0515V30.199H101.554V41.0515H103.614Z" fill="#56615F"/>
<path d="M85.2111 52.5626H81.0559V54.6678H85.2111V52.5626Z" fill="#56615F"/>
<path d="M90.7576 54.8291H83.1338V56.9342H90.7576V54.8291Z" fill="#56615F"/>
<path d="M85.1926 56.7908V52.5438H83.133V56.7908H85.1926Z" fill="#56615F"/>
<path d="M92.2846 47.6531H88.1294V49.7582H92.2846V47.6531Z" fill="#56615F"/>
<path d="M98.0745 62.9099H96.0874V65.0151H98.0745V62.9099Z" fill="#56615F"/>
<path d="M124.432 53.4094H117.047V55.5146H124.432V53.4094Z" fill="#56615F"/>
<path d="M117.047 55.5145H115.06V58.1185H117.047V55.5145Z" fill="#56615F"/>
<path d="M112.861 49.3099H107.736V54.7387H112.861V49.3099Z" fill="#56615F"/>
<path d="M98.0745 55.4591H96.0874V60.8047H98.0745V55.4591Z" fill="#56615F"/>
<path d="M124.341 40.3172V48.0728H126.401V40.3172H124.341Z" fill="#56615F"/>
<path d="M120.195 45.248H125.588V43.1429H120.195V45.248Z" fill="#56615F"/>
<path d="M117.286 43.1428H122.272V41.0377H117.286V43.1428Z" fill="#56615F"/>
<path d="M117.285 41.0385V36.5698H115.226V41.0385H117.285Z" fill="#56615F"/>
<path d="M119.345 37.4924V32.8396H117.285V37.4924H119.345Z" fill="#56615F"/>
<path d="M118.315 36.2186H126.449V34.1135H118.315V36.2186Z" fill="#56615F"/>
<path d="M107.155 38.4949H117.28V36.3897H107.155V38.4949Z" fill="#56615F"/>
<path d="M112.606 37.3083V28.2976H110.546V37.3083H112.606Z" fill="#56615F"/>
<path d="M115.985 43.1437V45.1747H118.044V43.1437H115.985Z" fill="#56615F"/>
<path d="M100.525 45.1739V47.2048H102.585V45.1739H100.525Z" fill="#56615F"/>
<path d="M111.744 43.1428V45.1738H113.804V43.1428H111.744Z" fill="#56615F"/>
<path d="M103.615 40.9277V45.1747H105.674V40.9277H103.615Z" fill="#56615F"/>
<path d="M105.674 45.0818V49.3287H107.733V45.0818H105.674Z" fill="#56615F"/>
<path d="M118.044 45.1746V47.2056H120.104V45.1746H118.044Z" fill="#56615F"/>
<path d="M113.926 33.1354V35.1664H115.985V33.1354H113.926Z" fill="#56615F"/>
<path d="M108.488 25.9243V28.5461H110.547V25.9243H108.488Z" fill="#56615F"/>
<path d="M105.236 28.2976V30.3025H110.547V28.2976H105.236Z" fill="#56615F"/>
<path d="M110.754 45.1739V47.2048H115.984V45.1739H110.754Z" fill="#56615F"/>
<path d="M95.0947 32.5862H97.0818V30.481H95.0947V32.5862Z" fill="#56615F"/>
<path d="M97.5442 28.0123H99.5312V25.9072H97.5442V28.0123Z" fill="#56615F"/>
<path d="M99.5312 30.3522H101.518V25.9072H99.5312V30.3522Z" fill="#56615F"/>
<path d="M95.0947 36.9211H97.0818V34.816H95.0947V36.9211Z" fill="#56615F"/>
<path d="M97.0818 37.9309H99.0688V32.5853H97.0818V37.9309Z" fill="#56615F"/>
<path d="M96.4495 51.8633V53.8943H102.982V51.8633H96.4495Z" fill="#56615F"/>
<path d="M121.451 27.9928H126.437V25.8877H121.451V27.9928Z" fill="#56615F"/>
<path d="M120.15 27.9928V30.0238H122.21V27.9928H120.15Z" fill="#56615F"/>
<path d="M115.909 25.8771V30.3286H117.968V25.8771H115.909Z" fill="#56615F"/>
<path d="M122.21 30.0238V32.0548H124.269V30.0238H122.21Z" fill="#56615F"/>
<path d="M114.92 30.0246V32.0555H120.15V30.0246H114.92Z" fill="#56615F"/>
<path d="M124.377 51.4151V53.446H126.437V51.4151H124.377Z" fill="#56615F"/>
<path d="M120.136 51.4151V53.446H122.196V51.4151H120.136Z" fill="#56615F"/>
<path d="M118.009 53.4469V55.4779H124.377V53.4469H118.009Z" fill="#56615F"/>
<path d="M81.0208 25.8795V40.411H95.2389V25.8795H81.0208ZM92.9648 38.0874H83.2949V28.2039H92.9648V38.0874Z" fill="#56615F"/>
<path d="M91.0655 30.1453H85.1943V36.1461H91.0655V30.1453Z" fill="#56615F"/>
<path d="M81.0208 57.7395V72.271H95.2389V57.7395H81.0208ZM92.9648 69.9474H83.2949V60.0655H92.9648V69.9474Z" fill="#56615F"/>
<path d="M91.0655 62.0044H85.1943V68.0052H91.0655V62.0044Z" fill="#56615F"/>
<path d="M112.219 57.7395V72.271H126.437V57.7395H112.219ZM124.162 69.9474H114.493V60.0655H124.162V69.9474Z" fill="#56615F"/>
<path d="M122.263 62.0044H116.392V68.0052H122.263V62.0044Z" fill="#56615F"/>
<path d="M108.927 31.8152H105.931V34.8771H108.927V31.8152Z" fill="#56615F"/>
<path d="M110.164 39.5618H108.352V44.3254H110.164V39.5618Z" fill="#56615F"/>
<g style="mix-blend-mode:multiply" opacity="0.1">
<path d="M66.9996 96.8448C65.7296 95.9483 64.3251 95.2694 62.8413 94.8351L62.3405 91.016L59.765 90.8872L57.1902 90.7584L56.3266 94.5074C54.8084 94.7916 53.3456 95.3271 51.996 96.0926L48.9994 93.7535L47.0857 95.5237L45.176 97.2931L47.1639 100.571C46.2867 101.869 45.6225 103.305 45.1975 104.821L41.4641 105.334L41.3382 107.966L41.209 110.596L44.877 111.478C45.155 113.03 45.6789 114.525 46.4279 115.904L44.1394 118.967L45.8713 120.923L47.6024 122.879L50.8087 120.851C52.0787 121.747 53.4833 122.426 54.9671 122.86L55.4678 126.68L58.0434 126.808L60.6182 126.937L61.4817 123.188C63.0008 122.903 64.4641 122.365 65.8139 121.598L68.8105 123.937L70.7242 122.167L72.6379 120.398L70.6485 117.116C71.5257 115.817 72.1898 114.382 72.6148 112.865L76.3514 112.353L76.4774 109.721L76.6033 107.089L72.9354 106.207C72.6573 104.655 72.1335 103.16 71.3845 101.78L73.673 98.7177L71.941 96.7617L70.2099 94.8098L66.9996 96.8448ZM65.4049 116.168C63.9877 117.482 62.2212 118.336 60.3289 118.624C58.4367 118.911 56.5035 118.618 54.774 117.782C53.0445 116.947 51.5963 115.606 50.6125 113.929C49.6287 112.252 49.1536 110.314 49.2471 108.361C49.3407 106.408 49.9988 104.528 51.1382 102.957C52.2775 101.386 53.847 100.196 55.6482 99.5373C57.4493 98.8783 59.4012 98.78 61.2569 99.2549C63.1127 99.7298 64.789 100.756 66.0739 102.205C67.7961 104.148 68.6927 106.711 68.5667 109.329C68.4406 111.948 67.3022 114.408 65.4017 116.168H65.4049Z" fill="#213748"/>
</g>
<path d="M40.1492 124.036L38.8973 123.661L38.4125 123.515L32.72 121.807L32.5685 121.762L32.4935 121.74L32.3101 122.162L29.1445 129.459L25.9733 136.764L25.7899 137.19L14.6353 162.894L46.7005 162.916L55.3243 162.922L60.7154 162.925L65.6169 152.21L65.6233 152.197L68.8686 145.101L73.759 134.408L73.8754 134.155L40.6755 124.195L40.1492 124.036Z" fill="#FE9F73"/>
<path d="M53.6998 110.648C51.7343 111.234 44.2715 113.308 39.0997 114.741L38.7807 114.323L34.785 115.934L33.931 116.17L34.0108 116.247L33.931 116.279L29.24 135.164C28.7232 137.239 28.9108 139.433 29.7722 141.386C30.6336 143.338 32.1178 144.934 33.9821 145.913C37.2043 147.601 46.9954 151.059 51.0629 152.381C55.2348 153.738 59.7121 151.87 61.8348 148.07C61.8348 148.07 76.84 130.623 78.3701 129.488C81.0964 127.46 85.3656 117.656 85.3656 117.656C85.3656 117.656 74.7843 107.886 71.8762 106.409C68.9682 104.931 56.7897 109.726 53.6998 110.648Z" fill="#FE9F73"/>
<path d="M94.1665 73.4909C94.1665 73.4909 94.5413 84.5073 96.0978 84.0802C97.6543 83.6532 102.686 80.5603 101.193 76.2196C99.7004 71.8789 94.1665 73.4909 94.1665 73.4909Z" fill="#FC8759"/>
<path d="M94.1665 83.1772C94.1665 83.1772 94.5413 94.1944 96.0978 93.7665C97.6543 93.3386 102.686 90.2465 101.193 85.9058C99.7004 81.5652 94.1665 83.1772 94.1665 83.1772Z" fill="#FC8759"/>
<path d="M92.5229 91.7495C92.5229 91.7495 92.8985 102.767 94.455 102.339C96.0115 101.911 101.043 98.8188 99.5503 94.4781C98.0576 90.1374 92.5229 91.7495 92.5229 91.7495Z" fill="#FC8759"/>
<path d="M94.7293 38.1934H56.993C56.4673 38.1934 55.9631 38.4068 55.5913 38.7868C55.2196 39.1668 55.0107 39.6821 55.0107 40.2194V121.301C55.0116 121.769 55.1941 122.218 55.5182 122.549C55.8423 122.879 56.2815 123.065 56.7395 123.065H94.9797C95.2068 123.065 95.4317 123.019 95.6415 122.931C95.8513 122.842 96.042 122.712 96.2026 122.548C96.3632 122.384 96.4906 122.189 96.5776 121.974C96.6645 121.76 96.7092 121.53 96.7092 121.298V40.2194C96.709 39.6826 96.5004 39.1677 96.1292 38.7879C95.7581 38.408 95.2546 38.1942 94.7293 38.1934Z" fill="#DAF2F1"/>
<path d="M88.2705 67.9465H63.4495V93.3159H88.2705V67.9465Z" fill="white"/>
<path d="M86.1951 64.9775H91.1755V70.0672H92.2424V63.8862H86.1951V64.9775Z" fill="black"/>
<path d="M60.5447 70.0672V64.9775H65.5244V63.8862H59.4771V70.0672H60.5447Z" fill="black"/>
<path d="M65.5244 96.285H60.5447V91.1945H59.4771V97.3754H65.5244V96.285Z" fill="black"/>
<path d="M91.1755 91.1945V96.285H86.1951V97.3754H92.2424V91.1945H91.1755Z" fill="black"/>
<path d="M75.7294 92.1643H71.5798V93.3159H75.7294V92.1643Z" fill="black"/>
<path d="M72.7183 90.3158V92.8611H73.845V90.3158H72.7183Z" fill="black"/>
<path d="M73.8452 87.7707V90.3159H74.9719V87.7707H73.8452Z" fill="black"/>
<path d="M77.4478 87.7706H79.938V86.619H77.4478V87.7706Z" fill="black"/>
<path d="M75.9246 88.923H78.4475V87.7714H75.9246V88.923Z" fill="black"/>
<path d="M76.3992 88.3868V93.3151H77.5259V88.3868H76.3992Z" fill="black"/>
<path d="M78.4468 88.9826V93.3159H79.5735V88.9826H78.4468Z" fill="black"/>
<path d="M75.3879 80.936V86.6108H76.5146V80.936H75.3879Z" fill="black"/>
<path d="M76.0237 84.8773H80.8455V83.7257H76.0237V84.8773Z" fill="black"/>
<path d="M80.4946 81.9092H85.3164V80.7576H80.4946V81.9092Z" fill="black"/>
<path d="M73.8451 87.0436H72.7583V88.1952H73.8451V87.0436Z" fill="black"/>
<path d="M73.8451 84.6729H72.7583V85.8244H73.8451V84.6729Z" fill="black"/>
<path d="M74.0868 79.8505H71.8142V81.0021H74.0868V79.8505Z" fill="black"/>
<path d="M69.3836 82.1333H68.04V83.2849H69.3836V82.1333Z" fill="black"/>
<path d="M66.5084 79.8505H65.1648V81.0021H66.5084V79.8505Z" fill="black"/>
<path d="M65.1648 78.6997H63.448V79.8513H65.1648V78.6997Z" fill="black"/>
<path d="M65.1639 81.0021H63.8203V82.1537H65.1639V81.0021Z" fill="black"/>
<path d="M74.0579 76.4078H71.7854V77.5594H74.0579V76.4078Z" fill="black"/>
<path d="M66.4398 76.4078H64.1672V77.5594H66.4398V76.4078Z" fill="black"/>
<path d="M71.8636 81.0021H69.5911V82.1537H71.8636V81.0021Z" fill="black"/>
<path d="M71.7982 77.5481H65.1648V78.6997H71.7982V77.5481Z" fill="black"/>
<path d="M75.7883 76.24V70.3043H74.6616V76.24H75.7883Z" fill="black"/>
<path d="M65.722 82.5359H63.4495V83.6875H65.722V82.5359Z" fill="black"/>
<path d="M68.7555 83.7755H64.5859V84.9271H68.7555V83.7755Z" fill="black"/>
<path d="M65.7126 84.848V82.5253H64.5859V84.848H65.7126Z" fill="black"/>
<path d="M69.5912 79.8505H67.3186V81.0021H69.5912V79.8505Z" fill="black"/>
<path d="M72.7582 88.1952H71.6714V89.3468H72.7582V88.1952Z" fill="black"/>
<path d="M87.1733 82.9988H83.1345V84.1504H87.1733V82.9988Z" fill="black"/>
<path d="M83.1347 82.4111H82.0479V83.8349H83.1347V82.4111Z" fill="black"/>
<path d="M80.8453 80.7567H78.0425V83.7258H80.8453V80.7567Z" fill="black"/>
<path d="M72.7582 84.1202H71.6714V87.0436H72.7582V84.1202Z" fill="black"/>
<path d="M87.1248 75.8398V80.0811H88.2515V75.8398H87.1248Z" fill="black"/>
<path d="M84.8571 78.535H87.8066V77.3834H84.8571V78.535Z" fill="black"/>
<path d="M83.2646 77.3843H85.9917V76.2327H83.2646V77.3843Z" fill="black"/>
<path d="M83.2654 76.2326V73.7885H82.1387V76.2326H83.2654Z" fill="black"/>
<path d="M84.3914 74.2938V71.7485H83.2647V74.2938H84.3914Z" fill="black"/>
<path d="M83.8282 73.5969H88.2769V72.4453H83.8282V73.5969Z" fill="black"/>
<path d="M77.7244 74.8423H83.2622V73.6907H77.7244V74.8423Z" fill="black"/>
<path d="M80.7058 74.1927V69.2644H79.5791V74.1927H80.7058Z" fill="black"/>
<path d="M82.5532 77.3843V78.4951H83.6799V77.3843H82.5532Z" fill="black"/>
<path d="M74.0979 78.4951V79.606H75.2246V78.4951H74.0979Z" fill="black"/>
<path d="M80.2336 77.3843V78.4951H81.3603V77.3843H80.2336Z" fill="black"/>
<path d="M75.7876 76.1724V78.4951H76.9143V76.1724H75.7876Z" fill="black"/>
<path d="M76.9143 78.4446V80.7673H78.041V78.4446H76.9143Z" fill="black"/>
<path d="M83.6802 78.4951V79.606H84.8069V78.4951H83.6802Z" fill="black"/>
<path d="M81.4282 71.9108V73.0216H82.5549V71.9108H81.4282Z" fill="black"/>
<path d="M78.4531 67.9661V69.4005H79.5798V67.9661H78.4531Z" fill="black"/>
<path d="M76.6743 69.2644V70.3606H79.5792V69.2644H76.6743Z" fill="black"/>
<path d="M79.6931 78.4951V79.606H82.5533V78.4951H79.6931Z" fill="black"/>
<path d="M71.6707 71.61H72.7576V70.4584H71.6707V71.61Z" fill="black"/>
<path d="M72.4671 69.1079H73.554V67.9563H72.4671V69.1079Z" fill="black"/>
<path d="M73.554 70.3875H74.6409V67.9563H73.554V70.3875Z" fill="black"/>
<path d="M71.6707 73.9808H72.7576V72.8292H71.6707V73.9808Z" fill="black"/>
<path d="M72.7574 74.5333H73.8442V71.6099H72.7574V74.5333Z" fill="black"/>
<path d="M71.8684 82.1537V83.2645H75.4407V82.1537H71.8684Z" fill="black"/>
<path d="M85.5427 69.0973H88.2698V67.9457H85.5427V69.0973Z" fill="black"/>
<path d="M84.8323 69.0981V70.209H85.959V69.0981H84.8323Z" fill="black"/>
<path d="M82.512 67.9408V70.3752H83.6387V67.9408H82.512Z" fill="black"/>
<path d="M85.9583 70.2081V71.319H87.085V70.2081H85.9583Z" fill="black"/>
<path d="M81.9712 70.209V71.3198H84.8314V70.209H81.9712Z" fill="black"/>
<path d="M87.1438 81.9083V83.0192H88.2705V81.9083H87.1438Z" fill="black"/>
<path d="M84.8242 81.9083V83.0192H85.9509V81.9083H84.8242Z" fill="black"/>
<path d="M83.6609 83.02V84.1309H87.1439V83.02H83.6609Z" fill="black"/>
<path d="M63.4304 67.9417V75.8895H71.2065V67.9417H63.4304ZM69.9626 74.6189H64.6735V69.213H69.9626V74.6189Z" fill="black"/>
<path d="M68.9237 70.275H65.7126V73.557H68.9237V70.275Z" fill="black"/>
<path d="M63.4304 85.3672V93.3175H71.2065V85.3696L63.4304 85.3672ZM69.9626 92.0445H64.6735V86.6386H69.9626V92.0445Z" fill="black"/>
<path d="M68.9237 87.7006H65.7126V90.9826H68.9237V87.7006Z" fill="black"/>
<path d="M80.4937 85.3672V93.3175H88.2706V85.3696L80.4937 85.3672ZM87.0266 92.0445H81.7376V86.6386H87.0266V92.0445Z" fill="black"/>
<path d="M85.9877 87.7006H82.7766V90.9826H85.9877V87.7006Z" fill="black"/>
<path d="M78.6933 71.1877H77.0547V72.8626H78.6933V71.1877Z" fill="black"/>
<path d="M79.3701 75.425H78.3789V78.0306H79.3701V75.425Z" fill="black"/>
<path d="M94.1951 36.4224H57.5242C56.389 36.4245 55.3012 36.8874 54.4998 37.7092C53.6985 38.531 53.2493 39.6444 53.251 40.8046V121.464C53.25 122.039 53.3598 122.608 53.5741 123.139C53.7883 123.67 54.1028 124.153 54.4996 124.56C54.8964 124.967 55.3677 125.29 55.8867 125.511C56.4056 125.732 56.9621 125.846 57.5242 125.847H94.1951C94.7573 125.846 95.3137 125.732 95.8326 125.511C96.3516 125.29 96.8229 124.967 97.2197 124.56C97.6165 124.153 97.931 123.67 98.1453 123.139C98.3595 122.608 98.4693 122.039 98.4683 121.464V40.8046C98.4693 40.2301 98.3595 39.661 98.1453 39.1299C97.931 38.5987 97.6165 38.1159 97.2197 37.7089C96.8229 37.302 96.3516 36.9789 95.8326 36.7582C95.3137 36.5374 94.7573 36.4233 94.1951 36.4224ZM96.7093 120.688C96.7097 121.001 96.65 121.31 96.5335 121.598C96.4171 121.887 96.2461 122.149 96.0305 122.37C95.8149 122.591 95.5588 122.766 95.2769 122.886C94.9949 123.006 94.6927 123.068 94.3873 123.068H57.332C57.0267 123.068 56.7245 123.006 56.4426 122.886C56.1607 122.766 55.9046 122.591 55.6891 122.37C55.4735 122.149 55.3027 121.887 55.1863 121.598C55.0699 121.31 55.0103 121.001 55.0108 120.688V40.8486C55.0103 40.5005 55.0769 40.1556 55.2067 39.8338C55.3366 39.5119 55.5272 39.2193 55.7677 38.9728C56.0082 38.7262 56.2939 38.5305 56.6084 38.3967C56.9229 38.263 57.2601 38.1939 57.6007 38.1934H94.121C94.8089 38.1947 95.4681 38.4751 95.9537 38.973C96.4394 39.4709 96.7117 40.1456 96.7109 40.8486L96.7093 120.688Z" fill="#251129"/>
<path d="M57.3991 69.9922C54.1219 68.8716 54.7773 74.2482 51.2824 77.1642C47.7874 80.0803 43.417 82.0934 42.1069 85.6769C40.7968 89.2605 36.6448 95.3102 34.7917 98.5123C32.9385 101.714 32.4944 121.74 32.4944 121.74L53.2487 119.275V91.2735C53.2487 91.2735 56.0882 87.6875 59.584 82.985C63.0797 78.2824 60.6764 71.112 57.3991 69.9922Z" fill="#FE9F73"/>
<path d="M50.5342 77.6417C50.2743 77.8104 44.1551 81.8072 42.5723 84.2775C41.8037 85.4796 40.9417 87.1683 40.0279 88.9556C39.0455 90.8781 38.0304 92.8676 36.9874 94.5489C36.7147 94.989 36.4588 95.381 36.2116 95.7592C34.608 98.2164 33.6392 99.6997 33.1273 106.428C32.546 114.06 32.294 122.576 32.294 122.657C32.2925 122.711 32.312 122.764 32.3482 122.803C32.3843 122.842 32.4343 122.865 32.487 122.867H32.4934C32.5452 122.867 32.5948 122.846 32.6319 122.809C32.6689 122.772 32.6905 122.722 32.6919 122.669C32.6919 122.587 32.9423 114.081 33.5228 106.459C34.0267 99.8366 34.9732 98.39 36.5409 95.9858C36.7897 95.6043 37.0464 95.2107 37.3223 94.7633C38.3733 93.0664 39.3955 91.0713 40.3795 89.1398C41.2877 87.3614 42.1465 85.6817 42.904 84.4943C44.4374 82.0973 50.6833 78.0207 50.7463 77.9791C50.7881 77.949 50.817 77.9036 50.827 77.8524C50.8369 77.8011 50.8272 77.7479 50.7999 77.7037C50.7726 77.6595 50.7296 77.6278 50.68 77.615C50.6305 77.6023 50.578 77.6095 50.5334 77.6352L50.5342 77.6417Z" fill="#010103"/>
<path d="M59.2298 71.0908C58.2115 69.9441 57.2419 69.6319 57.2012 69.6238C57.1515 69.6108 57.0988 69.6179 57.054 69.6437C57.0093 69.6694 56.976 69.7118 56.9611 69.762C56.9462 69.8122 56.9508 69.8664 56.974 69.9132C56.9972 69.96 57.0372 69.9959 57.0856 70.0133C57.0944 70.0133 58.009 70.3157 58.9547 71.3899C59.8318 72.3858 60.9147 74.2701 61.1036 77.5994C61.1036 77.6385 61.3429 81.6157 55.7468 87.7363L53.0931 91.13C53.0602 91.1722 53.045 91.226 53.0508 91.2796C53.0566 91.3332 53.083 91.3823 53.1242 91.4161C53.1445 91.4328 53.1679 91.4453 53.193 91.4527C53.218 91.4602 53.2443 91.4625 53.2702 91.4596C53.2962 91.4566 53.3213 91.4485 53.3441 91.4355C53.367 91.4226 53.3871 91.4052 53.4033 91.3843L56.0426 88.0094C61.7742 81.7404 61.5135 77.7322 61.4999 77.57C61.3038 74.1063 60.1571 72.1348 59.2298 71.0908Z" fill="#010103"/>
<g opacity="0.5">
<path d="M57.7164 71.4128C57.0339 70.9532 56.3135 70.5551 55.5635 70.2229C54.3467 71.262 53.9863 74.2034 52.0781 76.3819C52.0781 76.3819 53.3284 77.0689 54.6003 77.0689C55.8721 77.0689 56.3027 76.5742 56.3027 76.5742L58.0737 73.2327C58.4165 72.5815 58.2627 71.7812 57.7164 71.4128Z" fill="#FB554B"/>
</g>
<path d="M57.7228 71.3312C57.0527 70.8803 56.3397 70.4999 55.5946 70.1959C55.4547 70.3117 55.3287 70.4438 55.219 70.5896C56.0307 70.9053 56.8061 71.3109 57.5314 71.799C57.8974 72.0435 58.2116 72.6857 58.1143 73.1454L58.1797 73.0207C58.4699 72.4755 58.1813 71.6385 57.7228 71.3312Z" fill="#FCB6A9"/>
<path d="M37.9859 118.025C37.9881 118 37.9854 117.975 37.9779 117.951C37.9704 117.927 37.9583 117.905 37.9423 117.886C37.9263 117.867 37.9067 117.852 37.8847 117.841C37.8628 117.83 37.8388 117.823 37.8144 117.822C37.7899 117.82 37.7654 117.824 37.7424 117.832C37.7193 117.841 37.6982 117.854 37.6801 117.871C37.6621 117.888 37.6477 117.909 37.6376 117.931C37.6275 117.954 37.622 117.979 37.6215 118.004C37.6127 118.159 37.4197 121.822 38.5648 123.803C38.5812 123.832 38.6045 123.855 38.6325 123.871C38.6605 123.887 38.6922 123.895 38.7242 123.895C38.7568 123.895 38.7888 123.886 38.8167 123.869C38.8375 123.856 38.8556 123.84 38.87 123.82C38.8844 123.8 38.8949 123.778 38.9008 123.754C38.9068 123.73 38.908 123.706 38.9046 123.681C38.9011 123.657 38.8929 123.634 38.8805 123.613C37.7905 121.73 37.9835 118.063 37.9859 118.025Z" fill="#010103"/>
<path d="M39.0519 119.49C39.0481 119.466 39.0396 119.443 39.0271 119.422C39.0145 119.402 38.9981 119.383 38.9787 119.369C38.9593 119.355 38.9373 119.345 38.914 119.339C38.8907 119.333 38.8666 119.332 38.843 119.336C38.8194 119.34 38.7967 119.349 38.7764 119.362C38.756 119.375 38.7384 119.391 38.7244 119.411C38.7104 119.431 38.7003 119.454 38.6948 119.477C38.6893 119.501 38.6885 119.526 38.6923 119.55C38.7162 119.702 39.2983 123.323 40.8333 125.004C40.8494 125.023 40.8691 125.038 40.8911 125.049C40.9132 125.06 40.9372 125.066 40.9616 125.067C40.9861 125.069 41.0106 125.065 41.0336 125.056C41.0566 125.048 41.0776 125.034 41.0955 125.017C41.1134 125 41.1277 124.979 41.1376 124.956C41.1475 124.934 41.1528 124.909 41.1532 124.884C41.1536 124.859 41.1491 124.834 41.1398 124.811C41.1306 124.788 41.1169 124.766 41.0996 124.749C39.6412 123.151 39.0575 119.526 39.0519 119.49Z" fill="#010103"/>
<path d="M48.5488 85.8261C46.8696 84.6786 44.6058 84.1081 44.5101 84.0852C44.4595 84.0749 44.407 84.085 44.3635 84.1135C44.3201 84.1419 44.2892 84.1865 44.2772 84.2378C44.2652 84.289 44.2731 84.3431 44.2993 84.3885C44.3255 84.4339 44.3679 84.4672 44.4176 84.4813C44.4399 84.487 46.7069 85.0567 48.3288 86.1651C48.3727 86.1915 48.4249 86.1996 48.4745 86.1879C48.5242 86.1761 48.5675 86.1454 48.5957 86.102C48.6239 86.0586 48.6347 86.0058 48.626 85.9545C48.6173 85.9032 48.5897 85.8572 48.5488 85.8261Z" fill="#010103"/>
<path d="M47.3568 87.2115C45.6767 86.0632 43.4137 85.4951 43.318 85.4715C43.2671 85.4601 43.2138 85.4696 43.1696 85.4979C43.1255 85.5262 43.0939 85.5711 43.0817 85.6229C43.0695 85.6747 43.0776 85.7293 43.1044 85.775C43.1311 85.8208 43.1743 85.854 43.2247 85.8676C43.2478 85.8733 45.5148 86.4421 47.1319 87.5505C47.1644 87.573 47.2027 87.5849 47.2419 87.5848C47.2748 87.5849 47.3071 87.5767 47.336 87.5609C47.365 87.5451 47.3896 87.5222 47.4078 87.4943C47.4372 87.4497 47.4483 87.3951 47.4388 87.3423C47.4292 87.2894 47.3998 87.2424 47.3568 87.2115Z" fill="#010103"/>
<path d="M24.624 136.75L66.7698 152.645L70.0136 145.552L28.3837 129.16L24.624 136.75Z" fill="white"/>
<path d="M65.6233 152.197L60.2864 150.121L28.9627 137.928L25.9733 136.764L24.8363 136.322L23.625 135.851L11.9377 163H63.9576L68.226 153.211L66.7692 152.645L65.6233 152.197Z" fill="#21111D"/>
<path d="M65.483 149.262C66.2383 149.262 66.8505 148.634 66.8505 147.86C66.8505 147.085 66.2383 146.457 65.483 146.457C64.7277 146.457 64.1155 147.085 64.1155 147.86C64.1155 148.634 64.7277 149.262 65.483 149.262Z" fill="#D2EAFF"/>
<path d="M94.9685 38.1934H56.7538C56.2908 38.1942 55.8471 38.383 55.5202 38.7181C55.1934 39.0533 55.0101 39.5074 55.0107 39.9807V44.2635H96.7092V39.9807C96.7099 39.5078 96.5269 39.0541 96.2006 38.719C95.8742 38.3839 95.4311 38.1949 94.9685 38.1934Z" fill="#4CB7D8"/>
<path d="M57.7738 40.6685C57.6595 40.668 57.5477 40.7022 57.4524 40.7667C57.3572 40.8313 57.2828 40.9232 57.2387 41.031C57.1947 41.1388 57.1829 41.2575 57.2049 41.3721C57.2269 41.4868 57.2817 41.5921 57.3623 41.6749C57.443 41.7577 57.5458 41.8141 57.6579 41.8371C57.7699 41.86 57.8861 41.8485 57.9918 41.8039C58.0974 41.7593 58.1877 41.6837 58.2512 41.5866C58.3148 41.4895 58.3487 41.3753 58.3487 41.2585C58.3489 41.1024 58.2885 40.9525 58.1807 40.8419C58.0729 40.7313 57.9266 40.6689 57.7738 40.6685Z" fill="#FEEFDC"/>
<path d="M59.5543 40.6685C59.44 40.668 59.3282 40.7022 59.2329 40.7667C59.1377 40.8313 59.0633 40.9232 59.0192 41.031C58.9752 41.1388 58.9634 41.2575 58.9854 41.3721C59.0074 41.4868 59.0622 41.5921 59.1428 41.6749C59.2235 41.7577 59.3264 41.8141 59.4384 41.8371C59.5505 41.86 59.6667 41.8485 59.7723 41.8039C59.8779 41.7593 59.9682 41.6837 60.0318 41.5866C60.0953 41.4895 60.1292 41.3753 60.1292 41.2585C60.1294 41.1024 60.069 40.9525 59.9612 40.8419C59.8534 40.7313 59.7071 40.6689 59.5543 40.6685Z" fill="#FEEFDC"/>
<path d="M61.3348 40.6685C61.2205 40.668 61.1087 40.7022 61.0134 40.7667C60.9182 40.8313 60.8438 40.9232 60.7998 41.031C60.7557 41.1388 60.7439 41.2575 60.7659 41.3721C60.7879 41.4868 60.8427 41.5921 60.9234 41.6749C61.004 41.7577 61.1069 41.8141 61.2189 41.8371C61.331 41.86 61.4472 41.8485 61.5528 41.8039C61.6584 41.7593 61.7487 41.6837 61.8123 41.5866C61.8758 41.4895 61.9097 41.3753 61.9097 41.2585C61.91 41.1024 61.8495 40.9525 61.7417 40.8419C61.6339 40.7313 61.4876 40.6689 61.3348 40.6685Z" fill="#FEEFDC"/>
<path d="M89.1598 40.8233H88.9277V41.5462H89.1598V42.054H93.6849V40.402H89.1598V40.8233ZM89.3153 40.5373H93.5334V41.9228H89.3153V40.5373Z" fill="#FEEFDC"/>
<path d="M93.2735 40.7524H92.8262V41.697H93.2735V40.7524Z" fill="#FEEFDC"/>
<path d="M92.5237 40.7524H92.0764V41.697H92.5237V40.7524Z" fill="#FEEFDC"/>
<path d="M91.7535 40.7524H91.3062V41.697H91.7535V40.7524Z" fill="#FEEFDC"/>
<path d="M91.6993 84.5538H60.0479C59.9032 84.5538 59.7645 84.495 59.6622 84.3905C59.5599 84.2859 59.5024 84.1442 59.5024 83.9963C59.5024 83.8485 59.5599 83.7067 59.6622 83.6021C59.7645 83.4976 59.9032 83.4388 60.0479 83.4388H91.6993C91.8439 83.4388 91.9827 83.4976 92.085 83.6021C92.1872 83.7067 92.2447 83.8485 92.2447 83.9963C92.2447 84.1442 92.1872 84.2859 92.085 84.3905C91.9827 84.495 91.8439 84.5538 91.6993 84.5538Z" fill="#FC4F68"/>
<path d="M84.5962 114.373H67.1231C66.329 114.373 65.5674 114.051 65.0059 113.477C64.4444 112.903 64.1289 112.124 64.1289 111.313C64.1289 110.501 64.4444 109.723 65.0059 109.149C65.5674 108.575 66.329 108.252 67.1231 108.252H84.5962C85.3903 108.252 86.1519 108.575 86.7134 109.149C87.2749 109.723 87.5904 110.501 87.5904 111.313C87.5904 112.124 87.2749 112.903 86.7134 113.477C86.1519 114.051 85.3903 114.373 84.5962 114.373Z" fill="#4CB7D8"/>
</g>
<defs>
<clipPath id="clip0_123_5595">
<rect width="163" height="163" fill="white"/>
</clipPath>
</defs>
</svg>
