<svg width="312" height="312" viewBox="0 0 312 312" fill="none" xmlns="http://www.w3.org/2000/svg">
<g clip-path="url(#clip0_1051_1367)">
<path d="M18.9075 312.009C9.31055 300.186 5.88717 277.627 11.2801 261.344C16.673 245.06 30.1588 234.998 42.7923 237.724C39.9777 218.971 37.2132 200.006 37.5856 180.846C37.9581 161.686 41.7467 142.075 50.6704 127.57C61.0623 110.685 78.1577 102.499 93.7419 106.959C109.326 111.419 122.762 128.349 127.61 149.606C129.866 124.269 141.626 101.49 157.268 88.4539C172.909 75.4181 192.024 71.71 209.979 75.8429C227.168 79.8076 243.984 91.3655 254.383 111.003C264.782 130.641 267.446 158.943 258.508 179.917C260.356 178.899 267.661 181.687 268.8 182.147C272.357 183.719 275.69 185.977 278.676 188.837C284.993 194.837 288.932 202.811 291.911 212.103C298.172 232.048 298.305 254.136 292.283 274.194C290.049 281.495 286.554 287.734 282.644 293.707C280.559 296.911 278.346 299.973 276.062 302.938C274.823 304.549 270.289 312.009 268.649 312.009H18.9075Z" fill="#B2B7FC"/>
<path d="M37.8291 312.009C37.8291 312.009 -22.6314 170.545 9.31054 121.534C41.2525 72.5242 71.3109 235.299 71.3109 235.299C71.3109 235.299 26.6709 15.735 74.3547 0.805321C122.038 -14.1243 130.404 184.359 130.404 184.359C130.404 184.359 174.678 -13.3986 213.424 8.59316C252.17 30.5849 177.665 198.696 177.665 198.696C177.665 198.696 231.014 100.631 254.741 138.792C278.468 176.952 212.249 243.113 212.249 243.113C212.249 243.113 293.179 170.819 307.703 224.059C322.227 277.3 245.602 312.009 245.602 312.009H37.8291Z" fill="#FDDEFF"/>
<path d="M289.29 292.238L312 289.105L284.463 312L281.29 297.769L289.29 292.238Z" fill="#6D4EEB"/>
<path d="M235.554 160.987C235.554 160.987 255.7 198.032 264.338 220.431C272.975 242.83 289.29 292.238 289.29 292.238C289.29 292.238 282.708 299.566 281.29 297.778C279.872 295.991 258.257 256.777 251.862 243.476C245.466 230.175 208.604 157.766 208.604 157.766L235.554 160.987Z" fill="#D260D9"/>
<path d="M216.94 300.513L233.377 312L205.116 311.973L209.836 294.238L216.94 300.513Z" fill="#6D4EEB"/>
<path d="M213.846 108.676L202.323 138.269V196.112C202.323 196.112 205.725 191.466 206.233 180.872C206.742 170.279 206.742 150.323 206.742 150.323L215.701 130.968L213.846 108.676Z" fill="#EDADD5"/>
<path d="M208.604 157.766C208.604 157.766 203.791 170.651 205.474 178.324C207.157 185.996 216.511 199.05 216.511 199.05L233.979 227.608C233.979 227.608 223.658 244.83 209.829 294.238C209.829 294.238 212.779 300.079 216.94 300.522C221.101 300.964 248.976 248.6 254.734 230.024C260.492 211.448 231.3 168.907 231.3 168.907L227.97 162.049L208.604 157.766Z" fill="#EA84F0"/>
<path d="M227.619 99.817C227.619 99.817 229.904 101.136 230.627 103.658C231.354 106.638 232.244 109.553 233.291 112.384C234.91 116.269 237.71 118.871 239.45 122.658C242.63 129.579 240.367 135.207 235.06 138.659C228.708 142.792 235.54 160.987 235.54 160.987C235.54 160.987 219.626 165.076 208.59 157.766C208.59 157.766 210.832 132.659 211.455 124.136C212.078 115.614 211.791 99.3922 227.619 99.817Z" fill="#6D4EEB"/>
<path d="M231.3 102.773C231.3 102.773 229.058 106.605 228.801 109.685L226.709 107.322C225.969 106.331 225.285 105.278 224.661 104.171C224.611 103.799 224.661 100.534 224.661 100.534L226.81 98.3922L228.579 98.5958L230.047 100.127L231.3 102.773Z" fill="#F7C7E5"/>
<g style="mix-blend-mode:multiply" opacity="0.5">
<path d="M231.3 102.773C231.3 102.773 229.058 106.605 228.801 109.685L226.709 107.322C225.969 106.331 225.285 105.278 224.661 104.171C224.611 103.799 224.661 100.534 224.661 100.534L226.81 98.3922L228.579 98.5958L230.047 100.127L231.3 102.773Z" fill="#F7C7E5"/>
</g>
<path d="M232.51 92.0469C231.873 87.622 236.091 81.9758 236.091 81.9758C235.328 84.251 235.237 86.7854 235.833 89.1353L241.871 86.9494C242.309 88.6908 242.574 90.4918 242.659 92.3124C242.795 96.109 242.609 95.3036 243.554 98.3922L241.327 99.6224L239.701 104.304C239.54 104.77 239.304 105.191 239.006 105.54C238.709 105.889 238.356 106.159 237.971 106.333C237.586 106.507 237.176 106.582 236.766 106.553C236.357 106.523 235.956 106.39 235.59 106.162C233.561 104.969 231.68 103.426 230.004 101.578C230.004 101.578 233.155 96.5072 232.51 92.0469Z" fill="#F7C7E5"/>
<path d="M228.801 109.684C228.801 109.684 226.516 106.242 226.652 104.375C226.788 102.507 228.801 104.021 230.004 101.569C230.004 101.569 233.126 96.4983 232.482 92.038C231.837 87.5777 236.063 81.9669 236.063 81.9669C235.3 84.2421 235.208 86.7764 235.805 89.1264L241.842 86.9405C241.885 88.7729 242.161 90.5857 242.659 92.3123C243.656 90.9329 244.389 89.294 244.805 87.5171C245.22 85.7401 245.307 83.8705 245.058 82.0465C244.156 75.8517 238.67 73.0109 238.67 73.0109C238.67 73.0109 233.807 69.7542 227.354 74.5331C220.901 79.312 219.454 85.2325 219.741 91.6043C220.027 97.9762 223.837 106.348 228.801 109.684Z" fill="#1A1C4A"/>
<path d="M220.679 104.499C220.679 104.499 226.079 106.268 225.599 112.463C225.119 118.658 226.602 149.429 226.602 149.429L245.939 138.721L246.956 132.526L249.713 127.039L251.754 126.889L250.322 130.305H252.599L255.385 124.11C255.385 124.11 257.283 126.455 257.161 128.977C257.161 128.977 260.162 131.198 260.162 137.721C260.162 144.243 250.565 146.022 250.565 146.022L227.511 165.129C227.511 165.129 220.178 169.279 216.89 158.748C213.603 148.217 214.555 113.092 214.555 113.092C214.555 113.092 214.806 103.968 220.679 104.499Z" fill="#F7C7E5"/>
<path d="M252.607 130.313L259.231 115.543C259.37 115.238 259.441 114.892 259.437 114.542C259.433 114.192 259.355 113.849 259.209 113.549C259.064 113.248 258.857 113 258.61 112.83C258.362 112.659 258.082 112.573 257.799 112.578L250.308 130.278L252.607 130.313Z" fill="#27296D"/>
<path d="M187.57 16.3102H74.1255C70.7239 16.3102 67.9663 19.7177 67.9663 23.921V304.389C67.9663 308.593 70.7239 312 74.1255 312H187.57C190.971 312 193.729 308.593 193.729 304.389V23.921C193.729 19.7177 190.971 16.3102 187.57 16.3102Z" fill="#2F3173"/>
<path d="M196.164 16.3102H82.7198C79.3181 16.3102 76.5605 19.7177 76.5605 23.921V304.389C76.5605 308.593 79.3181 312 82.7198 312H196.164C199.566 312 202.323 308.593 202.323 304.389V23.921C202.323 19.7177 199.566 16.3102 196.164 16.3102Z" fill="#5E63B6"/>
<path d="M194.151 25.1334H84.7322C83.2212 25.1334 81.9963 26.647 81.9963 28.5141V282.999C81.9963 284.866 83.2212 286.38 84.7322 286.38H194.151C195.662 286.38 196.887 284.866 196.887 282.999V28.5141C196.887 26.647 195.662 25.1334 194.151 25.1334Z" fill="white"/>
<path d="M81.9963 282.999C81.9963 283.897 82.2843 284.757 82.7972 285.393C83.3101 286.028 84.0059 286.386 84.7322 286.389H194.144C194.871 286.386 195.568 286.028 196.082 285.393C196.596 284.758 196.885 283.897 196.887 282.999V168.465H81.9963V282.999Z" fill="#B2B7FC"/>
<path d="M194.144 25.1334H84.7322C84.0059 25.1358 83.3101 25.4939 82.7972 26.1293C82.2843 26.7647 81.9963 27.6255 81.9963 28.5229V34.8328H196.887V28.5229C196.885 27.6247 196.596 26.7639 196.082 26.1288C195.568 25.4936 194.871 25.1358 194.144 25.1334Z" fill="#B2B7FC"/>
<path d="M190.27 31.8593H184.963V28.3193H190.27V31.8593ZM185.256 31.5761H190.019V28.5848H185.256V31.5761Z" fill="white"/>
<path d="M186.366 28.9565H185.514V31.1955H186.366V28.9565Z" fill="white"/>
<path d="M187.469 28.9565H186.617V31.1955H187.469V28.9565Z" fill="white"/>
<path d="M188.58 28.9565H187.727V31.1955H188.58V28.9565Z" fill="white"/>
<path d="M190.986 28.9565H190.134V31.1955H190.986V28.9565Z" fill="white"/>
<path d="M177.944 30.0717H177.214V31.8505H177.944V30.0717Z" fill="white"/>
<path d="M179.119 29.5319H178.388V31.8505H179.119V29.5319Z" fill="white"/>
<path d="M180.286 28.8857H179.555V31.8504H180.286V28.8857Z" fill="white"/>
<path d="M181.46 28.2928H180.73V31.8505H181.46V28.2928Z" fill="white"/>
<path d="M89.0465 31.0191C88.8523 31.0191 88.6868 30.9663 88.5502 30.8606C88.4136 30.754 88.3091 30.5998 88.237 30.3978C88.1648 30.195 88.1287 29.9501 88.1287 29.663C88.1287 29.3777 88.1648 29.1341 88.237 28.9321C88.31 28.7293 88.4148 28.5746 88.5515 28.4681C88.689 28.3606 88.854 28.3069 89.0465 28.3069C89.239 28.3069 89.4036 28.3606 89.5402 28.4681C89.6777 28.5746 89.7825 28.7293 89.8547 28.9321C89.9278 29.1341 89.9643 29.3777 89.9643 29.663C89.9643 29.9501 89.9282 30.195 89.856 30.3978C89.7838 30.5998 89.6794 30.754 89.5428 30.8606C89.4061 30.9663 89.2407 31.0191 89.0465 31.0191ZM89.0465 30.7355C89.239 30.7355 89.3885 30.6427 89.4951 30.4571C89.6016 30.2715 89.6549 30.0068 89.6549 29.663C89.6549 29.4344 89.6304 29.2398 89.5814 29.0791C89.5333 28.9184 89.4637 28.7959 89.3726 28.7117C89.2824 28.6275 89.1737 28.5854 89.0465 28.5854C88.8557 28.5854 88.7066 28.6795 88.5992 28.8677C88.4918 29.055 88.438 29.3201 88.438 29.663C88.438 29.8916 88.4621 30.0858 88.5102 30.2457C88.5584 30.4055 88.6275 30.5271 88.7178 30.6105C88.8089 30.6939 88.9184 30.7355 89.0465 30.7355ZM90.3923 30.4416V30.1787L91.5524 28.343H91.7432V28.7504H91.6143L90.7377 30.1374V30.158H92.3001V30.4416H90.3923ZM91.6349 30.983V30.3617V30.2392V28.343H91.9391V30.983H91.6349ZM92.886 31.0037C92.8224 31.0037 92.7678 30.9809 92.7222 30.9353C92.6767 30.8898 92.6539 30.8352 92.6539 30.7716C92.6539 30.708 92.6767 30.6535 92.7222 30.6079C92.7678 30.5624 92.8224 30.5396 92.886 30.5396C92.9496 30.5396 93.0041 30.5624 93.0497 30.6079C93.0952 30.6535 93.118 30.708 93.118 30.7716C93.118 30.8137 93.1072 30.8524 93.0858 30.8876C93.0651 30.9229 93.0372 30.9512 93.002 30.9727C92.9676 30.9933 92.9289 31.0037 92.886 31.0037ZM93.6588 30.983V30.751L94.5302 29.7971C94.6324 29.6854 94.7166 29.5883 94.7828 29.5058C94.849 29.4224 94.898 29.3442 94.9298 29.2712C94.9624 29.1973 94.9788 29.1199 94.9788 29.0391C94.9788 28.9463 94.9564 28.866 94.9117 28.7981C94.8679 28.7302 94.8077 28.6778 94.7313 28.6408C94.6548 28.6039 94.5688 28.5854 94.4734 28.5854C94.372 28.5854 94.2835 28.6064 94.2079 28.6485C94.1331 28.6898 94.0751 28.7478 94.0339 28.8226C93.9935 28.8973 93.9733 28.985 93.9733 29.0855H93.6691C93.6691 28.9308 93.7047 28.7951 93.7761 28.6782C93.8474 28.5613 93.9445 28.4702 94.0674 28.4049C94.1911 28.3396 94.3299 28.3069 94.4838 28.3069C94.6384 28.3069 94.7755 28.3396 94.895 28.4049C95.0144 28.4702 95.1081 28.5583 95.176 28.6692C95.2439 28.78 95.2778 28.9033 95.2778 29.0391C95.2778 29.1362 95.2602 29.2312 95.225 29.324C95.1906 29.416 95.1304 29.5187 95.0445 29.6321C94.9594 29.7447 94.8413 29.8822 94.69 30.0446L94.097 30.6788V30.6994H95.3242V30.983H93.6588ZM96.7177 31.0191C96.5235 31.0191 96.358 30.9663 96.2214 30.8606C96.0848 30.754 95.9804 30.5998 95.9082 30.3978C95.836 30.195 95.7999 29.9501 95.7999 29.663C95.7999 29.3777 95.836 29.1341 95.9082 28.9321C95.9812 28.7293 96.0861 28.5746 96.2227 28.4681C96.3602 28.3606 96.5252 28.3069 96.7177 28.3069C96.9102 28.3069 97.0748 28.3606 97.2114 28.4681C97.3489 28.5746 97.4538 28.7293 97.5259 28.9321C97.599 29.1341 97.6355 29.3777 97.6355 29.663C97.6355 29.9501 97.5994 30.195 97.5272 30.3978C97.455 30.5998 97.3506 30.754 97.214 30.8606C97.0773 30.9663 96.9119 31.0191 96.7177 31.0191ZM96.7177 30.7355C96.9102 30.7355 97.0597 30.6427 97.1663 30.4571C97.2729 30.2715 97.3261 30.0068 97.3261 29.663C97.3261 29.4344 97.3016 29.2398 97.2527 29.0791C97.2045 28.9184 97.1349 28.7959 97.0438 28.7117C96.9536 28.6275 96.8449 28.5854 96.7177 28.5854C96.5269 28.5854 96.3778 28.6795 96.2704 28.8677C96.163 29.055 96.1093 29.3201 96.1093 29.663C96.1093 29.8916 96.1333 30.0858 96.1814 30.2457C96.2296 30.4055 96.2988 30.5271 96.389 30.6105C96.4801 30.6939 96.5896 30.7355 96.7177 30.7355ZM88.2318 34.983V32.343H89.1238C89.3309 32.343 89.5002 32.3804 89.6317 32.4552C89.7641 32.5291 89.862 32.6292 89.9256 32.7555C89.9892 32.8819 90.021 33.0228 90.021 33.1783C90.021 33.3339 89.9892 33.4753 89.9256 33.6024C89.8629 33.7296 89.7658 33.831 89.6343 33.9067C89.5028 33.9814 89.3344 34.0188 89.129 34.0188H88.4896V33.7352H89.1187C89.2605 33.7352 89.3743 33.7107 89.4603 33.6617C89.5462 33.6128 89.6085 33.5466 89.6472 33.4632C89.6867 33.379 89.7065 33.284 89.7065 33.1783C89.7065 33.0726 89.6867 32.9781 89.6472 32.8948C89.6085 32.8114 89.5458 32.7461 89.459 32.6988C89.3722 32.6507 89.257 32.6266 89.1135 32.6266H88.5515V34.983H88.2318ZM90.536 32.343H90.9176L91.8147 34.5344H91.8457L92.7429 32.343H93.1244V34.983H92.8254V32.9773H92.7996L91.9746 34.983H91.6858L90.8608 32.9773H90.8351V34.983H90.536V32.343Z" fill="white"/>
<path d="M108.972 48.1325C108.935 47.8166 108.783 47.5713 108.517 47.3967C108.251 47.2221 107.924 47.1348 107.538 47.1348C107.255 47.1348 107.008 47.1805 106.796 47.272C106.586 47.3635 106.422 47.4892 106.303 47.6493C106.187 47.8093 106.129 47.9912 106.129 48.1949C106.129 48.3653 106.169 48.5119 106.25 48.6345C106.333 48.7551 106.439 48.8559 106.568 48.937C106.697 49.0159 106.832 49.0814 106.973 49.1334C107.115 49.1833 107.245 49.2238 107.363 49.255L108.012 49.4296C108.178 49.4732 108.363 49.5335 108.567 49.6104C108.773 49.6873 108.969 49.7923 109.156 49.9253C109.345 50.0563 109.501 50.2246 109.624 50.4304C109.746 50.6362 109.808 50.8888 109.808 51.1881C109.808 51.5331 109.717 51.8449 109.536 52.1234C109.358 52.402 109.096 52.6234 108.751 52.7876C108.408 52.9518 107.991 53.0339 107.5 53.0339C107.043 53.0339 106.647 52.9601 106.313 52.8125C105.98 52.6649 105.718 52.4591 105.527 52.1952C105.338 51.9312 105.231 51.6246 105.206 51.2754H106.004C106.025 51.5165 106.106 51.716 106.247 51.874C106.39 52.0299 106.571 52.1463 106.79 52.2232C107.01 52.2981 107.247 52.3355 107.5 52.3355C107.796 52.3355 108.061 52.2877 108.295 52.192C108.53 52.0943 108.716 51.9592 108.854 51.7867C108.991 51.6121 109.059 51.4084 109.059 51.1756C109.059 50.9636 109 50.7911 108.882 50.658C108.763 50.525 108.607 50.4169 108.414 50.3338C108.221 50.2506 108.012 50.1779 107.787 50.1155L107.002 49.891C106.503 49.7476 106.108 49.5429 105.817 49.2768C105.526 49.0107 105.38 48.6626 105.38 48.2323C105.38 47.8748 105.477 47.563 105.67 47.2969C105.866 47.0288 106.128 46.8209 106.456 46.6734C106.786 46.5237 107.155 46.4489 107.563 46.4489C107.974 46.4489 108.34 46.5227 108.66 46.6702C108.98 46.8157 109.234 47.0153 109.421 47.2689C109.61 47.5225 109.71 47.8104 109.72 48.1325H108.972ZM116.217 48.5316H115.444C115.398 48.3092 115.318 48.1138 115.204 47.9455C115.092 47.7771 114.955 47.6358 114.792 47.5214C114.632 47.405 114.455 47.3177 114.259 47.2595C114.064 47.2013 113.86 47.1722 113.648 47.1722C113.262 47.1722 112.911 47.2699 112.597 47.4653C112.286 47.6607 112.037 47.9486 111.852 48.329C111.669 48.7094 111.578 49.176 111.578 49.7289C111.578 50.2818 111.669 50.7485 111.852 51.1288C112.037 51.5092 112.286 51.7971 112.597 51.9925C112.911 52.1879 113.262 52.2856 113.648 52.2856C113.86 52.2856 114.064 52.2565 114.259 52.1983C114.455 52.1401 114.632 52.0538 114.792 51.9395C114.955 51.8231 115.092 51.6807 115.204 51.5123C115.318 51.3419 115.398 51.1465 115.444 50.9262H116.217C116.159 51.2525 116.053 51.5446 115.899 51.8023C115.745 52.0601 115.554 52.2793 115.326 52.4602C115.097 52.6389 114.84 52.7751 114.555 52.8686C114.273 52.9622 113.97 53.0089 113.648 53.0089C113.104 53.0089 112.619 52.8759 112.195 52.6098C111.771 52.3438 111.438 51.9655 111.194 51.4749C110.951 50.9844 110.83 50.4024 110.83 49.7289C110.83 49.0554 110.951 48.4734 111.194 47.9829C111.438 47.4923 111.771 47.114 112.195 46.848C112.619 46.5819 113.104 46.4489 113.648 46.4489C113.97 46.4489 114.273 46.4956 114.555 46.5892C114.84 46.6827 115.097 46.8199 115.326 47.0007C115.554 47.1795 115.745 47.3978 115.899 47.6555C116.053 47.9112 116.159 48.2032 116.217 48.5316ZM117.729 52.9216H116.918L119.263 46.5362H120.061L122.406 52.9216H121.595L119.687 47.5464H119.637L117.729 52.9216ZM118.028 50.4273H121.296V51.1133H118.028V50.4273ZM128.464 46.5362V52.9216H127.715L124.236 47.9081H124.173V52.9216H123.4V46.5362H124.148L127.64 51.5622H127.703V46.5362H128.464ZM134.8 50.9262H135.648L136.359 51.8615L136.546 52.111L137.606 53.5203H136.758L136.06 52.5849L135.885 52.3479L134.8 50.9262ZM137.868 49.7289C137.868 50.4024 137.746 50.9844 137.503 51.4749C137.26 51.9655 136.926 52.3438 136.502 52.6098C136.078 52.8759 135.594 53.0089 135.049 53.0089C134.505 53.0089 134.02 52.8759 133.596 52.6098C133.172 52.3438 132.839 51.9655 132.596 51.4749C132.352 50.9844 132.231 50.4024 132.231 49.7289C132.231 49.0554 132.352 48.4734 132.596 47.9829C132.839 47.4923 133.172 47.114 133.596 46.848C134.02 46.5819 134.505 46.4489 135.049 46.4489C135.594 46.4489 136.078 46.5819 136.502 46.848C136.926 47.114 137.26 47.4923 137.503 47.9829C137.746 48.4734 137.868 49.0554 137.868 49.7289ZM137.12 49.7289C137.12 49.176 137.027 48.7094 136.842 48.329C136.659 47.9486 136.411 47.6607 136.097 47.4653C135.785 47.2699 135.436 47.1722 135.049 47.1722C134.663 47.1722 134.313 47.2699 133.999 47.4653C133.687 47.6607 133.438 47.9486 133.253 48.329C133.071 48.7094 132.979 49.176 132.979 49.7289C132.979 50.2818 133.071 50.7485 133.253 51.1288C133.438 51.5092 133.687 51.7971 133.999 51.9925C134.313 52.1879 134.663 52.2856 135.049 52.2856C135.436 52.2856 135.785 52.1879 136.097 51.9925C136.411 51.7971 136.659 51.5092 136.842 51.1288C137.027 50.7485 137.12 50.2818 137.12 49.7289ZM139.168 52.9216V46.5362H141.326C141.825 46.5362 142.234 46.6214 142.554 46.7918C142.874 46.9602 143.111 47.192 143.265 47.4871C143.419 47.7823 143.496 48.118 143.496 48.4942C143.496 48.8704 143.419 49.2041 143.265 49.4951C143.111 49.7861 142.875 50.0147 142.557 50.181C142.239 50.3452 141.833 50.4273 141.338 50.4273H139.592V49.7289H141.313C141.654 49.7289 141.929 49.679 142.136 49.5792C142.346 49.4795 142.498 49.3381 142.592 49.1552C142.687 48.9702 142.735 48.7499 142.735 48.4942C142.735 48.2385 142.687 48.0151 142.592 47.8239C142.496 47.6326 142.343 47.4851 142.133 47.3811C141.923 47.2751 141.646 47.2221 141.301 47.2221H139.941V52.9216H139.168ZM142.174 50.0532L143.745 52.9216H142.847L141.301 50.0532H142.174ZM110.618 59.5316H109.845C109.799 59.3092 109.719 59.1138 109.605 58.9455C109.493 58.7771 109.356 58.6358 109.193 58.5214C109.033 58.405 108.856 58.3177 108.66 58.2595C108.465 58.2013 108.261 58.1722 108.049 58.1722C107.663 58.1722 107.312 58.2699 106.998 58.4653C106.687 58.6607 106.438 58.9486 106.253 59.329C106.07 59.7094 105.979 60.176 105.979 60.7289C105.979 61.2818 106.07 61.7485 106.253 62.1288C106.438 62.5092 106.687 62.7971 106.998 62.9925C107.312 63.1879 107.663 63.2856 108.049 63.2856C108.261 63.2856 108.465 63.2565 108.66 63.1983C108.856 63.1401 109.033 63.0538 109.193 62.9395C109.356 62.8231 109.493 62.6807 109.605 62.5123C109.719 62.3419 109.799 62.1465 109.845 61.9262H110.618C110.56 62.2525 110.454 62.5446 110.3 62.8023C110.146 63.0601 109.955 63.2793 109.727 63.4602C109.498 63.6389 109.241 63.7751 108.956 63.8686C108.674 63.9622 108.371 64.0089 108.049 64.0089C107.505 64.0089 107.02 63.8759 106.596 63.6098C106.172 63.3438 105.839 62.9655 105.595 62.4749C105.352 61.9844 105.231 61.4024 105.231 60.7289C105.231 60.0554 105.352 59.4734 105.595 58.9829C105.839 58.4923 106.172 58.114 106.596 57.848C107.02 57.5819 107.505 57.4489 108.049 57.4489C108.371 57.4489 108.674 57.4956 108.956 57.5892C109.241 57.6827 109.498 57.8199 109.727 58.0007C109.955 58.1795 110.146 58.3978 110.3 58.6555C110.454 58.9112 110.56 59.2032 110.618 59.5316ZM117.256 60.7289C117.256 61.4024 117.134 61.9844 116.891 62.4749C116.648 62.9655 116.314 63.3438 115.89 63.6098C115.466 63.8759 114.982 64.0089 114.437 64.0089C113.892 64.0089 113.408 63.8759 112.984 63.6098C112.56 63.3438 112.226 62.9655 111.983 62.4749C111.74 61.9844 111.618 61.4024 111.618 60.7289C111.618 60.0554 111.74 59.4734 111.983 58.9829C112.226 58.4923 112.56 58.114 112.984 57.848C113.408 57.5819 113.892 57.4489 114.437 57.4489C114.982 57.4489 115.466 57.5819 115.89 57.848C116.314 58.114 116.648 58.4923 116.891 58.9829C117.134 59.4734 117.256 60.0554 117.256 60.7289ZM116.507 60.7289C116.507 60.176 116.415 59.7094 116.23 59.329C116.047 58.9486 115.798 58.6607 115.485 58.4653C115.173 58.2699 114.824 58.1722 114.437 58.1722C114.05 58.1722 113.7 58.2699 113.386 58.4653C113.074 58.6607 112.826 58.9486 112.641 59.329C112.458 59.7094 112.367 60.176 112.367 60.7289C112.367 61.2818 112.458 61.7485 112.641 62.1288C112.826 62.5092 113.074 62.7971 113.386 62.9925C113.7 63.1879 114.05 63.2856 114.437 63.2856C114.824 63.2856 115.173 63.1879 115.485 62.9925C115.798 62.7971 116.047 62.5092 116.23 62.1288C116.415 61.7485 116.507 61.2818 116.507 60.7289ZM120.526 63.9216H118.556V57.5362H120.614C121.233 57.5362 121.763 57.664 122.204 57.9197C122.644 58.1733 122.982 58.5381 123.217 59.0141C123.452 59.488 123.569 60.0554 123.569 60.7164C123.569 61.3816 123.451 61.9542 123.214 62.4344C122.977 62.9125 122.632 63.2804 122.179 63.5381C121.726 63.7938 121.175 63.9216 120.526 63.9216ZM119.329 63.2357H120.476C121.004 63.2357 121.442 63.1338 121.789 62.9301C122.136 62.7264 122.395 62.4365 122.565 62.0602C122.736 61.684 122.821 61.2361 122.821 60.7164C122.821 60.2009 122.737 59.7572 122.568 59.3851C122.4 59.0109 122.149 58.7241 121.814 58.5245C121.479 58.3229 121.062 58.2221 120.564 58.2221H119.329V63.2357ZM124.866 63.9216V57.5362H128.72V58.2221H125.64V60.3797H128.521V61.0656H125.64V63.2357H128.77V63.9216H124.866ZM132.583 63.9216V57.5362H133.356V60.3797H136.761V57.5362H137.534V63.9216H136.761V61.0656H133.356V63.9216H132.583ZM139.082 63.9216V57.5362H142.936V58.2221H139.856V60.3797H142.737V61.0656H139.856V63.2357H142.986V63.9216H139.082ZM144.33 63.9216V57.5362H146.487C146.986 57.5362 147.396 57.6214 147.716 57.7918C148.036 57.9602 148.273 58.192 148.427 58.4871C148.581 58.7823 148.657 59.118 148.657 59.4942C148.657 59.8704 148.581 60.2041 148.427 60.4951C148.273 60.7861 148.037 61.0147 147.719 61.181C147.401 61.3452 146.995 61.4273 146.5 61.4273H144.754V60.7289H146.475C146.816 60.7289 147.09 60.679 147.298 60.5792C147.508 60.4795 147.66 60.3381 147.753 60.1552C147.849 59.9702 147.897 59.7499 147.897 59.4942C147.897 59.2385 147.849 59.0151 147.753 58.8239C147.658 58.6326 147.505 58.4851 147.295 58.3811C147.085 58.2751 146.807 58.2221 146.462 58.2221H145.103V63.9216H144.33ZM147.335 61.0532L148.907 63.9216H148.009L146.462 61.0532H147.335ZM149.946 63.9216V57.5362H153.8V58.2221H150.719V60.3797H153.6V61.0656H150.719V63.2357H153.85V63.9216H149.946Z" fill="#263238"/>
<path d="M128.191 92.1443H107.593V66.701H128.191V92.1443ZM110.472 88.6043H125.311V70.2498H110.472V88.6043Z" fill="#263238"/>
<path d="M121.967 74.3915H113.824V84.4537H121.967V74.3915Z" fill="#263238"/>
<path d="M128.191 145.402H107.593V119.959H128.191V145.402ZM110.472 141.862H125.311V123.508H110.472V141.862Z" fill="#263238"/>
<path d="M121.967 127.65H113.824V137.712H121.967V127.65Z" fill="#263238"/>
<path d="M171.284 92.1443H150.693V66.701H171.284V92.1443ZM153.565 88.6043H168.412V70.2498H153.565V88.6043Z" fill="#263238"/>
<path d="M165.189 74.2322H156.788V84.613H165.189V74.2322Z" fill="#263238"/>
<path d="M134.651 68.4709H131.449V72.4268H134.651V68.4709Z" fill="#263238"/>
<path d="M137.852 72.4269H134.651V76.3827H137.852V72.4269Z" fill="#263238"/>
<path d="M141.046 72.4269H137.845V76.3827H141.046V72.4269Z" fill="#263238"/>
<path d="M137.852 76.3827H134.651V80.3386H137.852V76.3827Z" fill="#263238"/>
<path d="M134.651 84.2944H131.449V88.2503H134.651V84.2944Z" fill="#263238"/>
<path d="M137.852 84.2944H134.651V88.2503H137.852V84.2944Z" fill="#263238"/>
<path d="M141.046 84.2944H137.845V88.2503H141.046V84.2944Z" fill="#263238"/>
<path d="M144.248 84.2944H141.046V88.2503H144.248V84.2944Z" fill="#263238"/>
<path d="M144.248 80.3386H141.046V84.2945H144.248V80.3386Z" fill="#263238"/>
<path d="M147.449 76.3827H144.248V80.3386H147.449V76.3827Z" fill="#263238"/>
<path d="M144.248 68.4709H141.046V72.4268H144.248V68.4709Z" fill="#263238"/>
<path d="M147.449 72.4269H144.248V76.3827H147.449V72.4269Z" fill="#263238"/>
<path d="M147.449 84.2944H144.248V88.2503H147.449V84.2944Z" fill="#263238"/>
<path d="M147.449 88.2502H144.248V92.2061H147.449V88.2502Z" fill="#263238"/>
<path d="M131.449 96.1532H128.248V100.109H131.449V96.1532Z" fill="#263238"/>
<path d="M128.248 96.1532H125.046V100.109H128.248V96.1532Z" fill="#263238"/>
<path d="M125.047 96.1532H121.845V100.109H125.047V96.1532Z" fill="#263238"/>
<path d="M118.651 96.1532H115.449V100.109H118.651V96.1532Z" fill="#263238"/>
<path d="M112.248 96.1532H109.047V100.109H112.248V96.1532Z" fill="#263238"/>
<path d="M118.651 108.021H115.449V111.977H118.651V108.021Z" fill="#263238"/>
<path d="M118.651 111.977H115.449V115.932H118.651V111.977Z" fill="#263238"/>
<path d="M121.845 111.977H118.644V115.932H121.845V111.977Z" fill="#263238"/>
<path d="M125.047 111.977H121.845V115.932H125.047V111.977Z" fill="#263238"/>
<path d="M128.248 111.977H125.046V115.932H128.248V111.977Z" fill="#263238"/>
<path d="M128.248 108.021H125.046V111.977H128.248V108.021Z" fill="#263238"/>
<path d="M128.248 104.065H125.046V108.021H128.248V104.065Z" fill="#263238"/>
<path d="M131.449 104.065H128.248V108.021H131.449V104.065Z" fill="#263238"/>
<path d="M134.651 111.977H131.449V115.932H134.651V111.977Z" fill="#263238"/>
<path d="M134.651 108.021H131.449V111.977H134.651V108.021Z" fill="#263238"/>
<path d="M137.852 108.021H134.651V111.977H137.852V108.021Z" fill="#263238"/>
<path d="M141.046 108.021H137.845V111.977H141.046V108.021Z" fill="#263238"/>
<path d="M144.248 108.021H141.046V111.977H144.248V108.021Z" fill="#263238"/>
<path d="M147.449 111.977H144.248V115.932H147.449V111.977Z" fill="#263238"/>
<path d="M147.449 115.924H144.248V119.879H147.449V115.924Z" fill="#263238"/>
<path d="M150.65 119.88H147.449V123.835H150.65V119.88Z" fill="#263238"/>
<path d="M131.449 111.977H128.248V115.932H131.449V111.977Z" fill="#263238"/>
<path d="M115.45 108.021H112.248V111.977H115.45V108.021Z" fill="#263238"/>
<path d="M121.845 100.109H118.644V104.065H121.845V100.109Z" fill="#263238"/>
<path d="M121.845 104.065H118.644V108.021H121.845V104.065Z" fill="#263238"/>
<path d="M118.651 104.065H115.449V108.021H118.651V104.065Z" fill="#263238"/>
<path d="M115.45 104.065H112.248V108.021H115.45V104.065Z" fill="#263238"/>
<path d="M115.45 100.109H112.248V104.065H115.45V100.109Z" fill="#263238"/>
<path d="M112.248 104.065H109.047V108.021H112.248V104.065Z" fill="#263238"/>
<path d="M134.651 80.3386H131.449V84.2945H134.651V80.3386Z" fill="#263238"/>
<path d="M134.651 88.2502H131.449V92.2061H134.651V88.2502Z" fill="#263238"/>
<path d="M134.651 92.1973H131.449V96.1531H134.651V92.1973Z" fill="#263238"/>
<path d="M134.651 96.1532H131.449V100.109H134.651V96.1532Z" fill="#263238"/>
<path d="M134.651 100.109H131.449V104.065H134.651V100.109Z" fill="#263238"/>
<path d="M137.852 100.109H134.651V104.065H137.852V100.109Z" fill="#263238"/>
<path d="M141.046 100.109H137.845V104.065H141.046V100.109Z" fill="#263238"/>
<path d="M144.248 100.109H141.046V104.065H144.248V100.109Z" fill="#263238"/>
<path d="M141.046 96.1532H137.845V100.109H141.046V96.1532Z" fill="#263238"/>
<path d="M147.449 96.1532H144.248V100.109H147.449V96.1532Z" fill="#263238"/>
<path d="M150.65 96.1532H147.449V100.109H150.65V96.1532Z" fill="#263238"/>
<path d="M153.852 96.1532H150.65V100.109H153.852V96.1532Z" fill="#263238"/>
<path d="M157.046 96.1532H153.844V100.109H157.046V96.1532Z" fill="#263238"/>
<path d="M160.247 96.1532H157.046V100.109H160.247V96.1532Z" fill="#263238"/>
<path d="M163.448 96.1532H160.247V100.109H163.448V96.1532Z" fill="#263238"/>
<path d="M163.448 100.109H160.247V104.065H163.448V100.109Z" fill="#263238"/>
<path d="M153.852 104.065H150.65V108.021H153.852V104.065Z" fill="#263238"/>
<path d="M150.65 104.065H147.449V108.021H150.65V104.065Z" fill="#263238"/>
<path d="M150.65 100.109H147.449V104.065H150.65V100.109Z" fill="#263238"/>
<path d="M147.449 104.065H144.248V108.021H147.449V104.065Z" fill="#263238"/>
<path d="M160.247 108.021H157.046V111.977H160.247V108.021Z" fill="#263238"/>
<path d="M160.247 111.977H157.046V115.932H160.247V111.977Z" fill="#263238"/>
<path d="M163.448 111.977H160.247V115.932H163.448V111.977Z" fill="#263238"/>
<path d="M166.65 111.977H163.448V115.932H166.65V111.977Z" fill="#263238"/>
<path d="M166.65 115.924H163.448V119.879H166.65V115.924Z" fill="#263238"/>
<path d="M166.65 119.88H163.448V123.835H166.65V119.88Z" fill="#263238"/>
<path d="M160.247 123.835H157.046V127.791H160.247V123.835Z" fill="#263238"/>
<path d="M160.247 135.729H157.046V139.685H160.247V135.729Z" fill="#263238"/>
<path d="M169.851 123.835H166.65V127.791H169.851V123.835Z" fill="#263238"/>
<path d="M169.851 139.65H166.65V143.606H169.851V139.65Z" fill="#263238"/>
<path d="M157.046 139.65H153.844V143.606H157.046V139.65Z" fill="#263238"/>
<path d="M153.852 139.65H150.65V143.606H153.852V139.65Z" fill="#263238"/>
<path d="M150.65 139.65H147.449V143.606H150.65V139.65Z" fill="#263238"/>
<path d="M147.449 139.65H144.248V143.606H147.449V139.65Z" fill="#263238"/>
<path d="M150.65 135.694H147.449V139.65H150.65V135.694Z" fill="#263238"/>
<path d="M147.449 135.694H144.248V139.65H147.449V135.694Z" fill="#263238"/>
<path d="M150.65 131.747H147.449V135.703H150.65V131.747Z" fill="#263238"/>
<path d="M150.65 127.791H147.449V131.747H150.65V127.791Z" fill="#263238"/>
<path d="M147.449 123.835H144.248V127.791H147.449V123.835Z" fill="#263238"/>
<path d="M144.248 123.835H141.046V127.791H144.248V123.835Z" fill="#263238"/>
<path d="M141.046 123.835H137.845V127.791H141.046V123.835Z" fill="#263238"/>
<path d="M137.852 123.835H134.651V127.791H137.852V123.835Z" fill="#263238"/>
<path d="M144.248 127.791H141.046V131.747H144.248V127.791Z" fill="#263238"/>
<path d="M141.046 127.791H137.845V131.747H141.046V127.791Z" fill="#263238"/>
<path d="M134.651 135.694H131.449V139.65H134.651V135.694Z" fill="#263238"/>
<path d="M134.651 119.88H131.449V123.835H134.651V119.88Z" fill="#263238"/>
<path d="M137.852 127.791H134.651V131.747H137.852V127.791Z" fill="#263238"/>
<path d="M141.046 131.747H137.845V135.703H141.046V131.747Z" fill="#263238"/>
<path d="M137.852 131.747H134.651V135.703H137.852V131.747Z" fill="#263238"/>
<path d="M141.046 135.694H137.845V139.65H141.046V135.694Z" fill="#263238"/>
<path d="M137.852 139.65H134.651V143.606H137.852V139.65Z" fill="#263238"/>
<path d="M144.248 119.88H141.046V123.835H144.248V119.88Z" fill="#263238"/>
<path d="M141.046 119.88H137.845V123.835H141.046V119.88Z" fill="#263238"/>
<path d="M137.852 119.88H134.651V123.835H137.852V119.88Z" fill="#263238"/>
<path d="M141.046 115.924H137.845V119.879H141.046V115.924Z" fill="#263238"/>
<path d="M141.046 111.977H137.845V115.932H141.046V111.977Z" fill="#263238"/>
<path d="M137.852 115.924H134.651V119.879H137.852V115.924Z" fill="#263238"/>
<path d="M134.651 123.835H131.449V127.791H134.651V123.835Z" fill="#263238"/>
<path d="M147.449 131.747H144.248V135.703H147.449V131.747Z" fill="#263238"/>
<path d="M144.248 139.65H141.046V143.606H144.248V139.65Z" fill="#263238"/>
<path d="M153.852 123.835H150.65V127.791H153.852V123.835Z" fill="#263238"/>
<path d="M157.046 127.791H153.844V131.747H157.046V127.791Z" fill="#263238"/>
<path d="M166.65 127.791H163.448V131.747H166.65V127.791Z" fill="#263238"/>
<path d="M166.65 131.747H163.448V135.703H166.65V131.747Z" fill="#263238"/>
<path d="M163.448 131.747H160.247V135.703H163.448V131.747Z" fill="#263238"/>
<path d="M160.247 131.747H157.046V135.703H160.247V131.747Z" fill="#263238"/>
<path d="M157.046 131.747H153.844V135.703H157.046V131.747Z" fill="#263238"/>
<path d="M166.65 135.694H163.448V139.65H166.65V135.694Z" fill="#263238"/>
<path d="M166.65 139.65H163.448V143.606H166.65V139.65Z" fill="#263238"/>
<path d="M160.247 115.924H157.046V119.879H160.247V115.924Z" fill="#263238"/>
<path d="M157.046 108.021H153.844V111.977H157.046V108.021Z" fill="#263238"/>
<path d="M157.046 111.977H153.844V115.932H157.046V111.977Z" fill="#263238"/>
<path d="M157.046 115.924H153.844V119.879H157.046V115.924Z" fill="#263238"/>
<path d="M153.852 119.88H150.65V123.835H153.852V119.88Z" fill="#263238"/>
<path d="M153.852 111.977H150.65V115.932H153.852V111.977Z" fill="#263238"/>
<path d="M153.852 115.924H150.65V119.879H153.852V115.924Z" fill="#263238"/>
<path d="M160.247 104.065H157.046V108.021H160.247V104.065Z" fill="#263238"/>
<path d="M160.247 119.88H157.046V123.835H160.247V119.88Z" fill="#263238"/>
<path d="M163.448 119.88H160.247V123.835H163.448V119.88Z" fill="#263238"/>
<path d="M166.65 100.109H163.448V104.065H166.65V100.109Z" fill="#263238"/>
<path d="M166.65 104.065H163.448V108.021H166.65V104.065Z" fill="#263238"/>
<path d="M169.851 96.1532H166.65V100.109H169.851V96.1532Z" fill="#263238"/>
<path d="M169.851 108.021H166.65V111.977H169.851V108.021Z" fill="#263238"/>
<path d="M141.046 92.1973H137.845V96.1531H141.046V92.1973Z" fill="#263238"/>
<path d="M144.248 92.1973H141.046V96.1531H144.248V92.1973Z" fill="#263238"/>
<path d="M104.055 74.188H101.412V60.6566H112.363V63.9222H104.055V74.188Z" fill="#5E63B6"/>
<path d="M112.363 151.447H101.412V137.906H104.055V148.172H112.363V151.447Z" fill="#5E63B6"/>
<path d="M177.471 151.447H166.514V148.172H174.821V137.906H177.471V151.447Z" fill="#5E63B6"/>
<path d="M177.471 74.188H174.821V63.9222H166.514V60.6566H177.471V74.188Z" fill="#5E63B6"/>
<path d="M92.2593 170.89H40.8872V304.177H108.961V191.519C108.961 188.809 108.529 186.126 107.689 183.622C106.85 181.119 105.62 178.844 104.069 176.929C102.518 175.013 100.676 173.494 98.6502 172.458C96.6239 171.421 94.4523 170.889 92.2593 170.89Z" fill="#9988E3"/>
<g style="mix-blend-mode:multiply" opacity="0.4">
<path d="M59.2146 186.457L71.8267 255.556H88.2703V186.457H59.2146Z" fill="#A393EB"/>
</g>
<path d="M149.146 227.679L144.849 255.051L144.713 255.556H131.392L131.95 242.989L88.9792 251.547L75.6653 235.29L92.1018 220.723L104.542 219.166L127.353 220.104L145.451 221.104C146.076 221.142 146.685 221.357 147.233 221.732C147.78 222.108 148.25 222.633 148.607 223.268C148.964 223.903 149.198 224.631 149.292 225.396C149.385 226.161 149.335 226.942 149.146 227.679Z" fill="#ED9FD0"/>
<path d="M104.571 219.166L92.1305 220.723L85.957 225.953L82.949 236.334L89.6955 251.379L124.789 244.396L128.541 243.644C128.541 243.644 128.054 229.148 130.984 220.228L127.353 220.104L104.571 219.166Z" fill="#442AB5"/>
<path d="M55.0175 304.177H29.335C28.6474 304.177 27.988 303.839 27.5018 303.238C27.0156 302.638 26.7424 301.823 26.7424 300.973V188.377C26.7424 183.741 28.2324 179.294 30.8849 176.015C33.5373 172.736 37.1351 170.892 40.8871 170.89C44.6367 170.897 48.2308 172.742 50.8801 176.021C53.5295 179.3 55.0175 183.744 55.0175 188.377V304.177Z" fill="#B7A8F7"/>
<path d="M92.861 162.429C92.861 162.429 98.5547 165.182 100.467 170.996C102.379 176.81 107.629 206.926 107.629 206.926L126.636 209.413L137.236 203.546C137.236 203.546 142.192 211.758 143.961 213.502C143.961 213.502 142.786 215.121 139.621 212.617L137.795 210.369L104.571 218.059C100.453 218.599 96.5923 216.679 95.2602 211.864L91.2066 196.89L89.4089 178.306L92.861 162.429Z" fill="#EA84F0"/>
<path d="M137.258 203.546L126.636 209.413L107.579 206.926C107.579 206.926 106.583 201.156 104.829 191.784C102.455 194.064 99.7934 195.843 96.9505 197.05L93.0974 203.767L97.3945 214.183L100.259 216.192C103.082 218.174 106.396 218.804 109.57 217.962L137.795 210.369L139.642 212.643C142.808 215.157 143.983 213.528 143.983 213.528C142.214 211.758 137.258 203.546 137.258 203.546Z" fill="#EDADD5"/>
<path d="M104.571 219.166L136.033 210.767C136.819 210.559 137.635 210.6 138.405 210.886C139.175 211.173 139.874 211.695 140.437 212.404L179.312 261.6L195.784 254.689L180.479 278.433L175.581 270.928L153.895 251.538C146.985 247.212 140.754 241.398 135.496 234.369L134.923 233.6L97.4232 253.733C97.4232 253.733 83.8156 259.122 79.3968 250.335C74.9779 241.547 71.8267 226.44 71.8267 226.44L92.1234 220.776L104.571 219.219" fill="#6D4EEB"/>
<path d="M140.437 212.404C139.874 211.695 139.175 211.173 138.405 210.886C137.635 210.6 136.819 210.559 136.033 210.767L119.56 215.192C119.56 215.192 116.073 224.307 123.206 239.909L134.908 233.635L135.481 234.405C140.74 241.433 146.97 247.247 153.88 251.574L175.566 270.963L180.465 278.468L195.77 254.724L179.298 261.636L140.437 212.404Z" fill="#F7C7E5"/>
<path d="M175.588 270.928L179.312 261.592L195.792 254.68L180.494 278.433L175.588 270.928Z" fill="#EA84F0"/>
<path d="M99.7077 190.705L104.571 219.166C104.571 219.166 93.6129 220.936 72.6931 230.148C72.6931 230.148 68.5535 213.387 63.9198 198.581C60.8259 188.687 57.7749 172.731 57.7749 172.731L89.4304 172.934L98.4114 184.05L99.7077 190.705Z" fill="#EA84F0"/>
<g style="mix-blend-mode:multiply" opacity="0.5">
<path d="M97.1724 220.989C81.4879 225.042 62.7596 194.563 62.7524 194.545C63.1392 195.952 63.5259 197.306 63.9198 198.563C68.5536 213.369 72.6931 230.13 72.6931 230.13C80.7146 226.544 88.8861 223.492 97.1724 220.989Z" fill="#D067D6"/>
</g>
<path d="M74.7988 160.943L64.7077 164.828C56.6649 169.368 56.0419 175.049 58.8995 185.386C58.9997 185.74 59.1 186.094 59.2146 186.457C61.7857 194.873 73.1015 213.139 81.4164 219.334C82.8993 220.437 84.6445 220.875 86.3583 220.576C88.0722 220.276 89.6502 219.256 90.8271 217.688L112.563 188.828L123.449 180.067L128.721 170.854C128.977 170.404 129.141 169.883 129.198 169.337C129.255 168.79 129.204 168.235 129.049 167.719C128.894 167.203 128.639 166.74 128.308 166.372C127.976 166.004 127.577 165.742 127.145 165.606L125.161 169.846C124.75 170.741 124.106 171.437 123.333 171.822C122.56 172.206 121.705 172.255 120.907 171.961L117.82 170.89L116.674 166.306L113.272 167.66C113.272 167.66 110.966 174.031 108.589 182.66L99.6792 190.705C99.6792 190.705 96.9577 176.545 94.2362 163.66C93.5701 160.359 74.7988 160.943 74.7988 160.943Z" fill="#EA84F0"/>
<path d="M86.2434 136.968C86.2434 136.968 91.1708 133.349 89.2442 128.411C87.9607 125.357 85.8074 122.999 83.1996 121.791C83.1996 121.791 85.4413 124.101 83.5792 124.375C81.7171 124.65 72.7791 121.871 69.3414 132.49C69.3414 132.49 63.8482 136.968 66.9923 146.34C70.1363 155.712 79.4324 154.128 79.4324 154.128L86.2434 136.968Z" fill="#1A1C4A"/>
<path d="M87.776 133.119L89.5593 141.969L92.1448 144.225L89.8745 146.88L91.006 156.916L85.1691 161.553C85.1691 161.553 85.606 165.226 81.538 165.553C77.4701 165.881 74.7987 160.907 74.7987 160.907L75.787 155.748L74.6125 151.394C74.6125 151.394 71.3825 152.465 70.4156 148.739C69.4488 145.013 73.5024 143.907 73.5024 143.907L76.1953 146.022C76.1953 146.022 74.5552 140.712 77.4558 136.464L74.5194 134.083C74.5194 134.083 80.65 129.074 84.546 130.836C88.4421 132.597 87.776 133.119 87.776 133.119Z" fill="#F7C7E5"/>
<path d="M72.3638 146.588C72.7501 146.533 73.1405 146.635 73.4762 146.877C73.812 147.12 74.075 147.49 74.2259 147.933C74.3284 148.212 74.3844 148.513 74.3906 148.818C74.1576 148.321 73.8735 147.863 73.5455 147.456C73.1992 147.077 72.7983 146.783 72.3638 146.588Z" fill="#263238"/>
<g style="mix-blend-mode:multiply" opacity="0.5">
<path d="M81.5167 165.589C85.5846 165.261 85.1477 161.589 85.1477 161.589L90.9847 156.951C90.9847 156.951 83.4934 157.969 81.6098 157.226C79.7262 156.482 78.48 154.066 76.8973 148.836L75.7872 155.783L74.7988 160.943C74.7988 160.943 77.4702 165.916 81.5167 165.589Z" fill="#F7C7E5"/>
</g>
<path d="M129.172 168.491C129.124 167.999 128.989 167.525 128.776 167.105C128.563 166.684 128.277 166.326 127.94 166.058C127.688 165.851 127.409 165.698 127.116 165.606L125.132 169.845C124.723 170.733 124.083 171.425 123.317 171.809C122.55 172.192 121.701 172.246 120.907 171.961L116.674 169.845V166.306L113.272 167.66C113.272 167.66 113.072 167.96 112.735 168.545C112.563 168.837 112.363 169.208 112.134 169.642C111.095 171.615 110.429 176.492 109.04 181.076C108.889 181.589 108.732 182.111 108.588 182.651L103.439 187.297L99.6791 190.696L89.6525 199.722L85.5917 194.05C79.0959 198.926 75.0566 208.209 73.7817 211.59C76.0432 214.523 78.5769 217.117 81.3304 219.316C82.2487 219.999 83.274 220.433 84.3383 220.59H84.6535H84.9758C86.047 220.627 87.1121 220.38 88.1002 219.867C89.0882 219.355 89.9763 218.587 90.7053 217.617L112.442 188.758L123.328 179.996L128.599 170.784C128.933 170.212 129.108 169.523 129.1 168.819C129.129 168.712 129.153 168.602 129.172 168.491Z" fill="#F7C7E5"/>
<path d="M102.673 188.023C101.412 189.333 100.116 190.581 98.8196 191.82C97.5233 193.059 96.1911 194.253 94.8805 195.475C93.5699 196.696 92.2163 197.846 90.8627 199.015C89.5091 200.183 88.1627 201.307 86.7661 202.395C88.0266 201.085 89.3229 199.838 90.6192 198.599C91.9155 197.36 93.2476 196.165 94.5654 194.944C95.8832 193.722 97.2225 192.572 98.5761 191.404C99.9296 190.236 101.283 189.129 102.673 188.023Z" fill="white"/>
<path d="M89.7098 199.749C88.4994 198.262 87.332 196.731 86.1718 195.191C85.0116 193.652 83.8872 192.076 82.7413 190.519C81.5954 188.961 80.4996 187.359 79.4038 185.749C78.3081 184.138 77.2195 182.519 76.1738 180.855C77.3913 182.342 78.5516 183.873 79.7118 185.412C80.872 186.952 82.0036 188.528 83.1423 190.076C84.2811 191.625 85.384 193.244 86.4798 194.855C87.5755 196.466 88.6785 198.059 89.7098 199.749Z" fill="white"/>
<path d="M127.116 165.606L129.888 158.155C129.998 157.883 130.058 157.586 130.066 157.282C130.074 156.979 130.028 156.677 129.932 156.398C129.836 156.119 129.692 155.868 129.51 155.664C129.328 155.46 129.112 155.308 128.878 155.217L123.335 153.084C122.949 152.935 122.533 152.961 122.162 153.158C121.79 153.354 121.487 153.707 121.308 154.155L116.703 166.306V169.846L120.907 171.961C121.697 172.237 122.54 172.179 123.3 171.796C124.06 171.413 124.695 170.726 125.104 169.846L127.116 165.606Z" fill="#27296D"/>
<path d="M128.176 158.712C128.176 158.9 128.131 159.083 128.047 159.239C127.963 159.394 127.843 159.516 127.703 159.587C127.563 159.659 127.409 159.678 127.26 159.641C127.112 159.605 126.975 159.514 126.868 159.382C126.761 159.25 126.688 159.081 126.658 158.897C126.629 158.713 126.644 158.523 126.702 158.35C126.76 158.177 126.858 158.029 126.984 157.925C127.11 157.821 127.258 157.766 127.41 157.766C127.613 157.766 127.808 157.865 127.952 158.043C128.095 158.22 128.176 158.461 128.176 158.712Z" fill="white"/>
<path d="M142.436 255.556H62.3872V304.177H153.135V268.822C153.133 265.312 152.007 261.946 150.002 259.46C147.996 256.974 145.276 255.57 142.436 255.556Z" fill="#A393EB"/>
<g style="mix-blend-mode:multiply" opacity="0.4">
<path d="M102.107 255.556L124.473 276.866L124.746 302.221L123.492 312H125.619L128.613 300.522L131.399 255.556H102.107Z" fill="#A393EB"/>
</g>
<path d="M85.5129 141.73C85.5129 141.959 85.4579 142.183 85.3548 142.374C85.2517 142.564 85.1052 142.713 84.9337 142.801C84.7623 142.888 84.5736 142.911 84.3916 142.867C84.2097 142.822 84.0425 142.712 83.9113 142.549C83.7801 142.387 83.6907 142.181 83.6545 141.956C83.6183 141.731 83.6369 141.498 83.7079 141.286C83.7789 141.074 83.8992 140.893 84.0534 140.766C84.2077 140.638 84.3891 140.57 84.5747 140.57C84.8235 140.57 85.0621 140.692 85.2381 140.91C85.414 141.127 85.5129 141.422 85.5129 141.73Z" fill="#1A1C4A"/>
<path d="M86.6157 148.836C87.1717 148.695 87.7336 148.591 88.2988 148.526L89.1224 148.411C89.3998 148.373 89.6719 148.289 89.9317 148.163C89.7435 148.437 89.4945 148.637 89.2155 148.739C88.9392 148.854 88.6533 148.931 88.3632 148.969C87.779 149.053 87.1873 149.008 86.6157 148.836Z" fill="#263238"/>
<path d="M81.6311 139.694C81.6599 139.326 81.7611 138.973 81.9258 138.664C82.0906 138.356 82.314 138.102 82.5765 137.924C82.8351 137.735 83.1282 137.63 83.4286 137.617C83.729 137.605 84.027 137.686 84.2953 137.853C83.7545 137.82 83.2172 137.978 82.7456 138.306C82.2741 138.635 81.8876 139.123 81.6311 139.712V139.694Z" fill="#263238"/>
<path d="M124.166 244.538C125.046 244.219 125.935 243.98 126.823 243.75C127.711 243.52 128.606 243.326 129.501 243.14C130.396 242.954 131.299 242.795 132.201 242.671C133.104 242.547 134.013 242.432 134.93 242.387C134.049 242.706 133.161 242.945 132.273 243.175C131.385 243.405 130.482 243.609 129.587 243.795C128.692 243.98 127.797 244.131 126.887 244.246C125.977 244.361 125.082 244.494 124.166 244.538Z" fill="white"/>
<path d="M62.3871 255.556H26.7424V300.893C26.7424 301.325 26.8112 301.752 26.9447 302.15C27.0782 302.548 27.2739 302.91 27.5207 303.215C27.7674 303.52 28.0603 303.762 28.3827 303.927C28.705 304.092 29.0506 304.177 29.3995 304.177H73.1227V268.822C73.1208 265.304 71.9892 261.931 69.9763 259.444C67.9633 256.957 65.2338 255.558 62.3871 255.556Z" fill="#B7A8F7"/>
<path d="M152.462 312H125.619L128.613 300.522L131.399 255.556H144.742L137.028 302.309L152.462 312Z" fill="#ED9FD0"/>
<path d="M153.128 304.177H146.174V312H153.128V304.177Z" fill="#263238"/>
<path d="M128.613 300.522L137.028 302.309L153.128 312H125.619L128.613 300.522Z" fill="#C15BC7"/>
<path d="M126.357 238.193C127.467 237.449 128.592 236.777 129.73 236.113C130.869 235.449 132.008 234.812 133.154 234.192C134.3 233.573 135.46 232.971 136.627 232.423C137.795 231.874 138.969 231.299 140.165 230.803C139.055 231.555 137.924 232.228 136.792 232.892C135.66 233.555 134.515 234.192 133.369 234.812C132.223 235.431 131.063 236.033 129.888 236.582C128.713 237.131 127.553 237.706 126.357 238.193Z" fill="white"/>
<path d="M99.45 190.775L95.7688 170.89L99.9728 190.616L99.45 190.775Z" fill="white"/>
<g style="mix-blend-mode:multiply" opacity="0.5">
<path d="M134.035 234.077L133.999 234.095L134.035 234.077Z" fill="#F7C7E5"/>
</g>
<path d="M111.167 207.395C109.942 207.39 108.718 207.304 107.5 207.139C106.278 206.989 105.063 206.756 103.862 206.439C105.089 206.445 106.315 206.531 107.536 206.696C108.756 206.845 109.968 207.079 111.167 207.395Z" fill="white"/>
<path d="M36.7764 304.177H29.8223V312H36.7764V304.177Z" fill="#404B50"/>
<path d="M73.1229 304.177H66.1687V312H73.1229V304.177Z" fill="#404B50"/>
<path d="M80.034 304.177H73.0798V312H80.034V304.177Z" fill="#263238"/>
<path d="M223.694 151.756C225.073 150.492 226.539 149.381 228.077 148.438C229.608 147.475 231.198 146.664 232.833 146.013C231.357 147.119 229.846 148.075 228.321 149.031C226.795 149.987 225.27 150.907 223.694 151.756Z" fill="white"/>
<path d="M228.263 218.263C229.18 219.537 230.047 220.847 230.906 222.166C231.766 223.484 232.604 224.821 233.441 226.183C234.279 227.546 235.082 228.891 235.869 230.281C236.657 231.67 237.445 233.06 238.183 234.493C237.273 233.228 236.399 231.909 235.54 230.591C234.68 229.272 233.843 227.936 233.012 226.582C232.181 225.228 231.365 223.865 230.577 222.475C229.789 221.086 229.001 219.696 228.263 218.263Z" fill="white"/>
<path d="M240.367 92.569C240.834 92.569 241.212 92.1015 241.212 91.5247C241.212 90.948 240.834 90.4805 240.367 90.4805C239.9 90.4805 239.522 90.948 239.522 91.5247C239.522 92.1015 239.9 92.569 240.367 92.569Z" fill="#1A1C4A"/>
<path d="M72.9223 54.1431H71.0029V72.5241H72.9223C73.1217 72.5241 73.3191 72.4756 73.5033 72.3813C73.6876 72.287 73.8549 72.1488 73.9959 71.9746C74.1369 71.8004 74.2487 71.5936 74.325 71.3659C74.4013 71.1383 74.4406 70.8943 74.4406 70.648V56.0192C74.4406 55.7728 74.4013 55.5289 74.325 55.3013C74.2487 55.0736 74.1369 54.8668 73.9959 54.6926C73.8549 54.5184 73.6876 54.3802 73.5033 54.2859C73.3191 54.1916 73.1217 54.1431 72.9223 54.1431Z" fill="#5E63B6"/>
<path d="M70.9814 72.5241C70.7823 72.5241 70.5853 72.4755 70.4014 72.3811C70.2176 72.2867 70.0507 72.1484 69.9103 71.9741C69.7699 71.7997 69.6587 71.5928 69.5832 71.3653C69.5077 71.1377 69.4693 70.8939 69.4702 70.648V56.0192C69.4693 55.7733 69.5077 55.5295 69.5832 55.3019C69.6587 55.0743 69.7699 54.8674 69.9103 54.6931C70.0507 54.5188 70.2176 54.3804 70.4014 54.286C70.5853 54.1916 70.7823 54.1431 70.9814 54.1431C71.3841 54.1431 71.7703 54.3407 72.055 54.6926C72.3397 55.0444 72.4997 55.5216 72.4997 56.0192V70.648C72.4997 71.1455 72.3397 71.6228 72.055 71.9746C71.7703 72.3265 71.3841 72.5241 70.9814 72.5241Z" fill="#A393EB"/>
<path d="M72.9223 82.8076H71.0029V101.189H72.9223C73.1217 101.189 73.3191 101.14 73.5033 101.046C73.6876 100.952 73.8549 100.813 73.9959 100.639C74.1369 100.465 74.2487 100.258 74.325 100.03C74.4013 99.8029 74.4406 99.5589 74.4406 99.3125V84.7015C74.4425 84.4536 74.4046 84.2077 74.3292 83.9781C74.2537 83.7484 74.1422 83.5395 74.001 83.3634C73.8598 83.1873 73.6918 83.0475 73.5067 82.9521C73.3215 82.8567 73.1229 82.8076 72.9223 82.8076Z" fill="#5E63B6"/>
<path d="M70.9814 101.189C70.7823 101.189 70.5853 101.14 70.4014 101.046C70.2176 100.951 70.0507 100.813 69.9103 100.639C69.7699 100.464 69.6587 100.257 69.5832 100.03C69.5077 99.8022 69.4693 99.5585 69.4702 99.3125V84.7015C69.4693 84.4555 69.5077 84.2117 69.5832 83.9842C69.6587 83.7566 69.7699 83.5497 69.9103 83.3754C70.0507 83.201 70.2176 83.0627 70.4014 82.9683C70.5853 82.8739 70.7823 82.8253 70.9814 82.8253C71.3841 82.8253 71.7703 83.023 72.055 83.3748C72.3397 83.7267 72.4997 84.2039 72.4997 84.7015V99.3302C72.4959 99.8247 72.3343 100.297 72.05 100.645C71.7656 100.993 71.3816 101.189 70.9814 101.189Z" fill="#A393EB"/>
<path d="M240.61 101.773C240.361 101.742 240.118 101.655 239.894 101.516C239.657 101.389 239.435 101.223 239.235 101.021C238.823 100.629 238.511 100.097 238.34 99.4895L238.899 100.1C239.085 100.295 239.264 100.49 239.457 100.675C239.794 101.056 240.195 101.392 240.61 101.773Z" fill="#1A1C4A"/>
<path d="M238.204 106.269C237.819 106.589 237.364 106.756 236.901 106.746C236.437 106.731 235.982 106.598 235.561 106.357C233.869 105.213 232.278 103.854 230.813 102.304C232.379 103.661 234.016 104.891 235.712 105.985C236.11 106.167 236.523 106.295 236.944 106.366C237.365 106.426 237.792 106.393 238.204 106.269Z" fill="white"/>
</g>
<defs>
<clipPath id="clip0_1051_1367">
<rect width="312" height="312" fill="white"/>
</clipPath>
</defs>
</svg>
