<svg width="302" height="251" viewBox="0 0 302 251" fill="none" xmlns="http://www.w3.org/2000/svg">
<path d="M18.9162 231.881C18.9162 231.881 18.0016 208.422 17.2881 196.987C17.0091 192.602 17.2881 192.278 21.2806 192.278H41.7143C41.7143 192.278 40.1182 146.71 39.2767 133.186C39.0983 130.358 38.6593 125.094 45.7983 125.134L78.9046 125.313C78.9046 125.313 77.8985 103.708 77.8528 97.3128C77.8528 95.42 77.1942 91.9648 82.234 91.9816L110.182 92.0824H169.077C169.077 92.0824 168.858 76.9288 169.077 70.5672C169.159 68.0696 168.858 64.6032 175.48 64.4072C189.136 63.9984 209.08 64.7096 219.553 64.4072C222.805 64.3176 224.917 66.7312 224.853 70.3712C224.693 80.0424 224.853 109.067 224.853 109.067L232.674 109.812C236.04 110.137 236.104 113.732 236.09 115.479C236.04 121.219 236.09 133.181 236.09 133.181H248.411C248.411 133.181 248.969 101.58 248.411 87.3784C248.2 82.0136 250.725 82.3384 252.911 82.0136C256.675 81.3373 260.498 81.2996 264.271 81.9016C266.951 82.2432 266.864 85.2952 266.896 86.6728C267.541 114.499 266.896 185.188 266.896 185.188C266.896 185.188 272.183 185.558 273.756 185.558C276.107 185.558 276.431 187.176 276.431 191.421V232.76L18.9162 231.881Z" fill="#FFE4D2"/>
<path d="M49.1779 131.91L44.9247 131.988C44.714 131.994 44.5137 132.101 44.3673 132.287C44.2209 132.472 44.1402 132.721 44.1426 132.979L44.385 138.187C44.3862 138.315 44.408 138.441 44.4492 138.558C44.4903 138.676 44.55 138.782 44.6248 138.871C44.6996 138.96 44.7881 139.03 44.885 139.077C44.982 139.124 45.0856 139.147 45.1899 139.145L49.1779 139.178C49.3877 139.173 49.5873 139.066 49.7336 138.882C49.8799 138.697 49.9612 138.45 49.9599 138.193L49.9874 132.867C49.9856 132.739 49.9632 132.613 49.9216 132.496C49.8799 132.378 49.8198 132.272 49.7446 132.183C49.6694 132.094 49.5807 132.024 49.4835 131.977C49.3862 131.93 49.2824 131.907 49.1779 131.91Z" fill="white"/>
<path d="M56.445 143.093L52.8367 143.16C52.7486 143.161 52.6616 143.184 52.5808 143.227C52.4999 143.27 52.4268 143.332 52.3656 143.409C52.3043 143.487 52.2563 143.579 52.2241 143.679C52.1919 143.779 52.1763 143.887 52.1781 143.994L52.3793 148.413C52.3841 148.631 52.4587 148.839 52.5869 148.99C52.7152 149.142 52.887 149.226 53.0653 149.225L56.445 149.253C56.5331 149.251 56.6201 149.229 56.701 149.186C56.7818 149.143 56.8549 149.081 56.9162 149.003C56.9774 148.926 57.0255 148.834 57.0576 148.734C57.0898 148.633 57.1054 148.526 57.1036 148.418L57.131 143.899C57.1293 143.791 57.1101 143.684 57.0747 143.585C57.0392 143.486 56.9882 143.397 56.9245 143.322C56.8608 143.247 56.7856 143.188 56.7034 143.149C56.6211 143.11 56.5333 143.091 56.445 143.093Z" fill="white"/>
<path d="M49.9921 153.677L46.3837 153.744C46.2062 153.748 46.0373 153.839 45.914 153.995C45.7906 154.151 45.7227 154.361 45.7252 154.578L45.9264 158.997C45.9312 159.215 46.0057 159.423 46.134 159.574C46.2622 159.726 46.434 159.81 46.6124 159.809H49.9921C50.0804 159.807 50.1676 159.785 50.2487 159.742C50.3298 159.699 50.4032 159.637 50.4648 159.56C50.5264 159.482 50.5749 159.391 50.6076 159.29C50.6402 159.19 50.6564 159.083 50.6552 158.974V154.455C50.6459 154.247 50.5723 154.05 50.4492 153.906C50.326 153.761 50.1626 153.679 49.9921 153.677Z" fill="white"/>
<path opacity="0.2" d="M56.445 153.677L52.8367 153.744C52.7486 153.745 52.6616 153.768 52.5808 153.811C52.4999 153.854 52.4268 153.916 52.3656 153.993C52.3043 154.071 52.2563 154.163 52.2241 154.263C52.1919 154.363 52.1763 154.471 52.1781 154.578L52.3793 158.997C52.3841 159.215 52.4587 159.423 52.5869 159.574C52.7152 159.726 52.887 159.81 53.0653 159.809H56.445C56.5331 159.807 56.6201 159.785 56.701 159.742C56.7818 159.699 56.8549 159.637 56.9162 159.559C56.9774 159.482 57.0255 159.39 57.0576 159.29C57.0898 159.189 57.1054 159.082 57.1036 158.974L57.131 154.455C57.1216 154.242 57.0447 154.041 56.9167 153.896C56.7887 153.751 56.6195 153.672 56.445 153.677Z" fill="#DB724E"/>
<path d="M262.515 139.358L258.262 139.436C258.052 139.442 257.852 139.548 257.706 139.733C257.56 139.917 257.478 140.165 257.48 140.422L257.722 145.635C257.727 145.892 257.814 146.137 257.964 146.316C258.115 146.495 258.317 146.594 258.527 146.593L262.515 146.626C262.725 146.621 262.924 146.514 263.07 146.33C263.217 146.145 263.298 145.898 263.297 145.641L263.324 140.31C263.319 140.052 263.232 139.807 263.08 139.629C262.928 139.451 262.725 139.353 262.515 139.358Z" fill="white"/>
<path opacity="0.3" d="M220.71 69.6376L216.457 69.7216C216.352 69.7231 216.249 69.7498 216.154 69.8002C216.058 69.8505 215.971 69.9236 215.898 70.0152C215.826 70.1068 215.768 70.2151 215.73 70.3339C215.692 70.4526 215.673 70.5795 215.675 70.7072L215.917 75.9208C215.922 76.1778 216.009 76.4222 216.159 76.6013C216.31 76.7804 216.512 76.8799 216.722 76.8784L220.71 76.912C220.921 76.9061 221.121 76.7988 221.267 76.6132C221.414 76.4276 221.494 76.1788 221.492 75.9208L221.519 70.5952C221.515 70.3372 221.427 70.092 221.275 69.9127C221.124 69.7334 220.921 69.6346 220.71 69.6376Z" fill="#DB724E"/>
<path d="M212.172 69.6376L207.918 69.7216C207.814 69.7231 207.711 69.7498 207.615 69.8002C207.519 69.8505 207.433 69.9236 207.36 70.0152C207.287 70.1068 207.23 70.2151 207.192 70.3339C207.153 70.4526 207.135 70.5795 207.136 70.7072L207.379 75.9208C207.384 76.1778 207.471 76.4222 207.621 76.6013C207.772 76.7804 207.974 76.8799 208.184 76.8784L212.172 76.912C212.382 76.9061 212.582 76.7986 212.727 76.6128C212.873 76.4271 212.953 76.1783 212.949 75.9208L212.981 70.5952C212.976 70.3372 212.889 70.092 212.737 69.9127C212.585 69.7334 212.382 69.6346 212.172 69.6376Z" fill="white"/>
<path opacity="0.2" d="M262.195 167.94L258.586 168.007C258.408 168.012 258.238 168.102 258.113 168.26C257.989 168.417 257.921 168.628 257.923 168.847L258.129 173.26C258.134 173.478 258.208 173.686 258.337 173.838C258.465 173.989 258.637 174.074 258.815 174.072L262.195 174.1C262.283 174.099 262.37 174.076 262.451 174.033C262.531 173.99 262.605 173.928 262.666 173.851C262.727 173.773 262.775 173.681 262.807 173.581C262.839 173.481 262.855 173.373 262.853 173.266L262.876 168.746C262.875 168.639 262.856 168.532 262.821 168.433C262.786 168.334 262.736 168.244 262.672 168.17C262.609 168.095 262.534 168.036 262.452 167.996C262.37 167.957 262.283 167.938 262.195 167.94Z" fill="#DB724E"/>
<path d="M254.365 167.94L250.757 168.007C250.578 168.012 250.408 168.102 250.284 168.26C250.159 168.417 250.091 168.628 250.094 168.847L250.299 173.26C250.303 173.479 250.377 173.687 250.506 173.839C250.634 173.991 250.807 174.075 250.985 174.072L254.36 174.1C254.449 174.099 254.536 174.076 254.617 174.033C254.698 173.99 254.772 173.928 254.833 173.851C254.895 173.774 254.943 173.682 254.976 173.581C255.009 173.481 255.025 173.374 255.024 173.266L255.046 168.746C255.045 168.639 255.027 168.532 254.992 168.433C254.957 168.334 254.906 168.244 254.843 168.17C254.78 168.095 254.705 168.036 254.623 167.996C254.541 167.957 254.453 167.938 254.365 167.94Z" fill="white"/>
<path opacity="0.3" d="M247.949 139.027L244.345 139.1C244.257 139.101 244.169 139.124 244.088 139.167C244.007 139.21 243.934 139.271 243.872 139.349C243.811 139.426 243.762 139.518 243.729 139.618C243.697 139.719 243.68 139.826 243.682 139.934L243.888 144.353C243.889 144.461 243.907 144.568 243.942 144.667C243.977 144.766 244.028 144.856 244.091 144.932C244.154 145.007 244.229 145.066 244.311 145.106C244.393 145.146 244.481 145.166 244.569 145.165L247.949 145.193C248.037 145.191 248.124 145.169 248.205 145.126C248.286 145.083 248.36 145.021 248.421 144.944C248.483 144.866 248.531 144.775 248.564 144.674C248.597 144.574 248.613 144.466 248.612 144.358L248.635 139.839C248.631 139.62 248.557 139.412 248.428 139.26C248.3 139.108 248.127 139.024 247.949 139.027Z" fill="#DB724E"/>
<path d="M262.195 178.524L258.586 178.591C258.408 178.596 258.238 178.686 258.113 178.844C257.989 179.001 257.921 179.212 257.923 179.431L258.129 183.844C258.134 184.062 258.208 184.27 258.337 184.422C258.465 184.573 258.637 184.658 258.815 184.656H262.195C262.283 184.655 262.37 184.632 262.451 184.589C262.531 184.546 262.605 184.484 262.666 184.407C262.727 184.329 262.775 184.237 262.807 184.137C262.839 184.037 262.855 183.929 262.853 183.822L262.876 179.308C262.868 179.095 262.792 178.894 262.665 178.747C262.538 178.601 262.369 178.521 262.195 178.524Z" fill="white"/>
<path d="M271.693 191.107L268.09 191.174C267.911 191.18 267.742 191.271 267.618 191.429C267.494 191.586 267.425 191.796 267.427 192.014L267.632 196.433C267.634 196.541 267.652 196.647 267.687 196.746C267.722 196.845 267.773 196.935 267.836 197.01C267.899 197.085 267.974 197.143 268.056 197.183C268.138 197.222 268.226 197.241 268.314 197.239L271.693 197.267C271.782 197.266 271.869 197.243 271.95 197.2C272.031 197.158 272.105 197.096 272.166 197.018C272.228 196.941 272.276 196.849 272.309 196.749C272.342 196.648 272.358 196.541 272.357 196.433V191.919C272.353 191.705 272.282 191.501 272.158 191.35C272.035 191.198 271.868 191.111 271.693 191.107Z" fill="white"/>
<path d="M263.663 87.9552L260.054 88.0224C259.876 88.0283 259.707 88.1195 259.583 88.2766C259.459 88.4336 259.39 88.644 259.391 88.8624L259.597 93.2752C259.598 93.3833 259.617 93.4901 259.652 93.5894C259.686 93.6887 259.737 93.7786 259.8 93.854C259.864 93.9294 259.938 93.9888 260.02 94.0288C260.102 94.0689 260.19 94.0887 260.278 94.0872H263.658C263.746 94.0857 263.834 94.063 263.915 94.0203C263.996 93.9776 264.069 93.9157 264.131 93.8382C264.192 93.7607 264.241 93.6691 264.274 93.5687C264.306 93.4683 264.322 93.3609 264.321 93.2528V88.7392C264.313 88.5306 264.241 88.3336 264.118 88.188C263.996 88.0424 263.833 87.9592 263.663 87.9552Z" fill="white"/>
<path opacity="0.3" d="M26.0369 198.751L22.4285 198.818C22.2502 198.824 22.0809 198.916 21.9569 199.073C21.8329 199.23 21.7641 199.44 21.7654 199.658L21.9712 204.077C21.9724 204.185 21.991 204.291 22.0259 204.39C22.0609 204.489 22.1115 204.579 22.1748 204.654C22.2382 204.729 22.313 204.788 22.395 204.827C22.477 204.866 22.5646 204.885 22.6526 204.883L26.0323 204.917C26.2106 204.911 26.38 204.82 26.504 204.663C26.628 204.506 26.6967 204.295 26.6955 204.077V199.563C26.6931 199.35 26.6231 199.146 26.5002 198.994C26.3774 198.843 26.2112 198.756 26.0369 198.751Z" fill="#DB724E"/>
<path d="M33.4639 198.751L29.8555 198.818C29.6772 198.824 29.5079 198.916 29.3839 199.073C29.2599 199.23 29.1911 199.44 29.1924 199.658L29.3982 204.077C29.3994 204.185 29.418 204.291 29.4529 204.39C29.4879 204.489 29.5385 204.579 29.6018 204.654C29.6652 204.729 29.74 204.788 29.822 204.827C29.904 204.866 29.9916 204.885 30.0796 204.883L33.4593 204.917C33.6377 204.911 33.807 204.82 33.931 204.663C34.055 204.506 34.1237 204.295 34.1225 204.077V199.563C34.1201 199.35 34.0501 199.146 33.9273 198.994C33.8044 198.843 33.6382 198.756 33.4639 198.751Z" fill="white"/>
<path opacity="0.2" d="M56.445 143.093L52.8367 143.16C52.7486 143.161 52.6616 143.184 52.5808 143.227C52.4999 143.27 52.4268 143.332 52.3656 143.409C52.3043 143.487 52.2563 143.579 52.2241 143.679C52.1919 143.779 52.1763 143.887 52.1781 143.994L52.3793 148.413C52.3841 148.631 52.4587 148.839 52.5869 148.99C52.7152 149.142 52.887 149.226 53.0653 149.225L56.445 149.253C56.5331 149.251 56.6201 149.229 56.701 149.186C56.7818 149.143 56.8549 149.081 56.9162 149.003C56.9774 148.926 57.0255 148.834 57.0576 148.734C57.0898 148.633 57.1054 148.526 57.1036 148.418L57.131 143.899C57.1293 143.791 57.1101 143.684 57.0747 143.585C57.0392 143.486 56.9882 143.397 56.9245 143.322C56.8608 143.247 56.7856 143.188 56.7034 143.149C56.6211 143.11 56.5333 143.091 56.445 143.093Z" fill="#FFD4D2"/>
<path opacity="0.2" d="M49.9921 153.677L46.3837 153.744C46.2062 153.748 46.0373 153.839 45.914 153.995C45.7906 154.151 45.7227 154.361 45.7252 154.578L45.9264 158.997C45.9312 159.215 46.0057 159.423 46.134 159.574C46.2622 159.726 46.434 159.81 46.6124 159.809H49.9921C50.0804 159.807 50.1676 159.785 50.2487 159.742C50.3298 159.699 50.4032 159.637 50.4648 159.56C50.5264 159.482 50.5749 159.391 50.6076 159.29C50.6402 159.19 50.6564 159.083 50.6552 158.974V154.455C50.6459 154.247 50.5723 154.05 50.4492 153.906C50.326 153.761 50.1626 153.679 49.9921 153.677Z" fill="#FFD4D2"/>
<path opacity="0.2" d="M212.172 69.6376L207.918 69.7216C207.814 69.7231 207.711 69.7498 207.615 69.8002C207.519 69.8505 207.433 69.9236 207.36 70.0152C207.287 70.1068 207.23 70.2151 207.192 70.3339C207.153 70.4526 207.135 70.5795 207.136 70.7072L207.379 75.9208C207.384 76.1778 207.471 76.4222 207.621 76.6013C207.772 76.7804 207.974 76.8799 208.184 76.8784L212.172 76.912C212.382 76.9061 212.582 76.7986 212.727 76.6128C212.873 76.4271 212.953 76.1783 212.949 75.9208L212.981 70.5952C212.976 70.3372 212.889 70.092 212.737 69.9127C212.585 69.7334 212.382 69.6346 212.172 69.6376Z" fill="#FFD4D2"/>
<path opacity="0.2" d="M254.365 167.94L250.757 168.007C250.578 168.012 250.408 168.102 250.284 168.26C250.159 168.417 250.091 168.628 250.094 168.847L250.299 173.26C250.303 173.479 250.377 173.687 250.506 173.839C250.634 173.991 250.807 174.075 250.985 174.072L254.36 174.1C254.449 174.099 254.536 174.076 254.617 174.033C254.698 173.99 254.772 173.928 254.833 173.851C254.895 173.774 254.943 173.682 254.976 173.581C255.009 173.481 255.025 173.374 255.024 173.266L255.046 168.746C255.045 168.639 255.027 168.532 254.992 168.433C254.957 168.334 254.906 168.244 254.843 168.17C254.78 168.095 254.705 168.036 254.623 167.996C254.541 167.957 254.453 167.938 254.365 167.94Z" fill="#FFD4D2"/>
<path opacity="0.2" d="M262.195 178.524L258.586 178.591C258.408 178.596 258.238 178.686 258.113 178.844C257.989 179.001 257.921 179.212 257.923 179.431L258.129 183.844C258.134 184.062 258.208 184.27 258.337 184.422C258.465 184.573 258.637 184.658 258.815 184.656H262.195C262.283 184.655 262.37 184.632 262.451 184.589C262.531 184.546 262.605 184.484 262.666 184.407C262.727 184.329 262.775 184.237 262.807 184.137C262.839 184.037 262.855 183.929 262.853 183.822L262.876 179.308C262.868 179.095 262.792 178.894 262.665 178.747C262.538 178.601 262.369 178.521 262.195 178.524Z" fill="#FFD4D2"/>
<path opacity="0.2" d="M271.693 191.107L268.09 191.174C267.911 191.18 267.742 191.271 267.618 191.429C267.494 191.586 267.425 191.796 267.427 192.014L267.632 196.433C267.634 196.541 267.652 196.647 267.687 196.746C267.722 196.845 267.773 196.935 267.836 197.01C267.899 197.085 267.974 197.143 268.056 197.183C268.138 197.222 268.226 197.241 268.314 197.239L271.693 197.267C271.782 197.266 271.869 197.243 271.95 197.2C272.031 197.158 272.105 197.096 272.166 197.018C272.228 196.941 272.276 196.849 272.309 196.749C272.342 196.648 272.358 196.541 272.357 196.433V191.919C272.353 191.705 272.282 191.501 272.158 191.35C272.035 191.198 271.868 191.111 271.693 191.107Z" fill="#FFD4D2"/>
<path opacity="0.2" d="M33.4639 198.751L29.8555 198.818C29.6772 198.824 29.5079 198.916 29.3839 199.073C29.2599 199.23 29.1911 199.44 29.1924 199.658L29.3982 204.077C29.3994 204.185 29.418 204.291 29.4529 204.39C29.4879 204.489 29.5385 204.579 29.6018 204.654C29.6652 204.729 29.74 204.788 29.822 204.827C29.904 204.866 29.9916 204.885 30.0796 204.883L33.4593 204.917C33.6377 204.911 33.807 204.82 33.931 204.663C34.055 204.506 34.1237 204.295 34.1225 204.077V199.563C34.1201 199.35 34.0501 199.146 33.9273 198.994C33.8044 198.843 33.6382 198.756 33.4639 198.751Z" fill="#FFD4D2"/>
<path d="M69.7213 78.508H102.421C111.727 78.508 118.555 69.548 113.451 64.1888C108.348 58.8296 90.1961 63.9368 82.2613 68.3832C95.0209 51.068 83.6333 35.5616 73.8693 48.3856C74.5644 21.2536 33.1666 15.9056 51.6795 58.5216C35.3664 46.5936 21.7287 64.2336 38.2842 68.3832C19.6524 71.2504 16.8581 78.4632 27.331 78.4632L69.7213 78.508Z" fill="#FFD4D2"/>
<path opacity="0.5" d="M70.6726 77.4384C85.2799 77.4384 100.376 77.108 105.082 74.1232C109.788 71.1384 89.1763 67.3696 78.7857 74.1232C86.254 54.2488 79.5998 46.2968 72.3831 54.6464C72.4654 35.9592 45.5193 32.8512 55.5852 60.7448C43.0863 55.8392 40.324 68.0248 55.0959 68.8872C33.8299 71.1272 22.5612 77.4384 45.0757 77.4384" fill="white"/>
<path d="M179.221 47.4336H255.403C267.751 47.4336 267.751 42.556 263.782 38.328C259.812 34.1 243.737 39.952 243.737 39.952C243.737 39.952 256.784 27.9792 253.249 20.4752C249.714 12.9712 239.493 20.4416 239.493 20.4416C239.493 20.4416 243.22 7.44401 236.113 2.24721C229.006 -2.94959 220.783 8.09921 220.783 8.09921C220.783 8.09921 213.397 -1.84079 206.203 0.852807C199.01 3.54641 198.648 14.2928 201.982 23.7232C196.279 12.2768 175.914 5.49521 181.361 28.2536C158.389 25.9744 131.118 47.4336 179.221 47.4336Z" fill="#FFD4D2"/>
<path opacity="0.5" d="M203.551 2.44321C198.977 6.54241 199.096 15.6032 201.964 23.7232C196.261 12.2768 175.896 5.49521 181.343 28.2536C158.371 25.9744 131.1 47.4336 179.202 47.4336H255.403C259.83 47.4336 262.666 46.8008 264.308 45.804C265.309 41.0608 261.106 34.3688 240.737 43.2056C249.366 29.2056 253.665 17.5408 245.74 17.4456C243.549 18.0628 241.444 19.0704 239.493 20.436L234.233 25.644C234.233 25.644 240.293 3.64161 227.291 2.25281C224.858 3.71635 222.655 5.69354 220.783 8.09361L215.117 14.108C215.117 14.108 213.265 2.16321 203.551 2.44321Z" fill="white"/>
<path opacity="0.3" d="M231.178 7.976C227.204 4.28 221.721 11 224.908 15.0432C228.096 19.0864 234.965 11.5096 231.178 7.976Z" fill="white"/>
<path opacity="0.3" d="M179.221 47.4336H232.77C237.617 42.0688 243.471 32.4704 243.128 26.624C242.671 18.5992 228.119 38.944 228.119 38.944C228.119 38.944 228.791 21.276 218.734 20.464C208.677 19.652 206.789 36.76 206.789 36.76C206.789 36.76 198.15 25.056 192.264 28.108C186.378 31.16 192.753 40.7864 192.753 40.7864C192.753 40.7864 182.513 35.3264 172.242 35.2424C166.534 35.1976 157.895 40.1256 157.474 44.7624C161.6 46.3752 168.556 47.4336 179.221 47.4336Z" fill="white"/>
<path d="M0.659424 233.667H301.612C301.612 233.667 240.206 228.174 192.346 228.174H114.476C114.476 228.174 25.6984 227.479 0.659424 233.667Z" fill="#FEAD6F"/>
<path d="M257.438 231.881H252.673C252.673 231.881 250.51 222.282 234.069 213.916C217.628 205.55 235.834 204.396 243.563 211.676C236.346 201.204 236.579 195.38 241.221 194.187C245.863 192.994 261.582 212.085 257.438 231.881Z" fill="#B0AED4"/>
<g style="mix-blend-mode:multiply" opacity="0.5">
<path d="M250.199 217.601C250.199 217.601 248.278 203.254 240.791 194.361C236.579 195.806 236.575 201.574 243.535 211.721L247.062 215.529C247.062 215.529 235.779 209.8 228.142 207.398C226.44 208.333 227.415 210.534 234.087 213.916C250.528 222.282 252.691 231.881 252.691 231.881H257.457C260.086 219.314 254.713 207.056 249.257 200.073L250.199 217.601Z" fill="#B0AED4"/>
</g>
<path d="M258.829 231.881C258.829 231.881 267.294 200.812 260.571 179.409C253.848 158.006 248.191 182.618 250.162 196.987C252.133 211.357 254.452 231.881 254.452 231.881H258.829Z" fill="#B0AED4"/>
<g style="mix-blend-mode:multiply" opacity="0.3">
<path d="M257.466 231.881C260.375 210.651 254.955 174.559 254.448 171.266C250.926 173.282 248.85 187.406 250.162 196.987C252.133 211.357 254.452 231.881 254.452 231.881H257.466Z" fill="#B0AED4"/>
</g>
<path d="M262.122 231.881C262.122 231.881 277.785 207.314 278.284 196.007C278.782 184.701 258.536 194.126 257.438 231.881H262.122Z" fill="#B0AED4"/>
<path opacity="0.35" d="M276.317 191.734C271.287 189.758 258.312 201.865 257.438 231.881H260.123C261.82 218.452 271.694 195.71 276.317 191.734Z" fill="white"/>
<path d="M262.122 231.881H264.605C264.605 231.881 283.538 221.98 285.857 217.321C288.176 212.662 269.347 214.224 262.122 231.881Z" fill="#B0AED4"/>
<g style="mix-blend-mode:multiply" opacity="0.5">
<path d="M284.92 215.316C281.005 213.938 267.884 217.802 262.122 231.881H263.228C263.228 231.881 273.628 219.594 284.92 215.316Z" fill="#B0AED4"/>
</g>
<path style="mix-blend-mode:multiply" opacity="0.25" d="M145.346 236.316H136.826C81.6624 236.316 36.9443 237.139 36.9443 238.153C36.9443 239.166 81.6624 239.99 136.826 239.99C154.941 239.99 179.07 239.99 184.1 238.45C174.675 237.43 157.653 237.24 145.346 236.316Z" fill="url(#paint0_linear_123_5061)"/>
<path d="M183.305 20.0664H114.27C106.63 20.0664 100.436 27.6507 100.436 37.0064V221.498C100.436 230.854 106.63 238.438 114.27 238.438H183.305C190.945 238.438 197.139 230.854 197.139 221.498V37.0064C197.139 27.6507 190.945 20.0664 183.305 20.0664Z" fill="#B0AED4"/>
<path d="M183.305 23.236H114.27C108.059 23.236 103.024 29.4012 103.024 37.0064V221.498C103.024 229.104 108.059 235.269 114.27 235.269H183.305C189.516 235.269 194.551 229.104 194.551 221.498V37.0064C194.551 29.4012 189.516 23.236 183.305 23.236Z" fill="#DFDFFB"/>
<path d="M156.263 218.575H140.828C139.923 218.615 139.067 219.083 138.439 219.881C137.811 220.678 137.46 221.743 137.46 222.851C137.46 223.959 137.811 225.023 138.439 225.821C139.067 226.618 139.923 227.086 140.828 227.126H156.263C157.167 227.086 158.023 226.618 158.651 225.821C159.279 225.023 159.63 223.959 159.63 222.851C159.63 221.743 159.279 220.678 158.651 219.881C158.023 219.083 157.167 218.615 156.263 218.575Z" fill="#6770A7"/>
<path d="M156.336 218.575H141.244C140.807 218.555 140.371 218.643 139.962 218.834C139.554 219.025 139.181 219.315 138.866 219.686C138.551 220.058 138.301 220.503 138.129 220.996C137.958 221.489 137.87 222.019 137.87 222.554C137.87 223.089 137.958 223.619 138.129 224.112C138.301 224.605 138.551 225.05 138.866 225.422C139.181 225.793 139.554 226.083 139.962 226.274C140.371 226.465 140.807 226.553 141.244 226.533H156.336C157.176 226.494 157.972 226.058 158.556 225.316C159.139 224.574 159.465 223.584 159.465 222.554C159.465 221.524 159.139 220.534 158.556 219.792C157.972 219.05 157.176 218.614 156.336 218.575Z" fill="#B0AED4"/>
<path d="M147.916 81.42H146.169V83.5592H147.916V81.42Z" fill="#222221"/>
<path d="M158.389 81.42V96.3776H170.623V81.42H158.389ZM168.858 85.6928V94.244H160.132V83.5536H168.858V85.6928Z" fill="#222221"/>
<path d="M130.464 87.832V89.9656V92.1048H135.701V89.9656V87.832V85.6928H130.464V87.832Z" fill="#222221"/>
<path d="M144.427 89.9656H140.937V92.1048H144.427V89.9656Z" fill="#222221"/>
<path d="M146.169 92.1048V94.244H147.916V92.1048H149.663V94.244H151.406V92.1048H153.153V89.9656H151.406V87.832H156.642V85.6928H153.153V83.5536V81.42H151.406V83.5536H147.916V85.6928V87.832H149.663V89.9656H147.916V87.832H146.169V85.6928H142.68V83.5536V81.42H140.937V83.5536V85.6928V87.832H144.427V89.9656H146.169V92.1048Z" fill="#222221"/>
<path d="M156.647 89.9656H154.9V92.1048H156.647V89.9656Z" fill="#222221"/>
<path d="M167.115 89.9656V87.832V85.6928H161.879V87.832V89.9656V92.1048H167.115V89.9656Z" fill="#222221"/>
<path d="M139.19 94.244V81.42H126.975V96.3776H139.19V94.244ZM128.717 94.244V83.5536H137.443V94.244H128.717Z" fill="#222221"/>
<path d="M142.684 94.2384H140.937V96.3776H142.684V94.2384Z" fill="#222221"/>
<path d="M146.174 94.2384H144.427V96.3776H146.174V94.2384Z" fill="#222221"/>
<path d="M149.663 94.2384H147.916V96.3776H149.663V94.2384Z" fill="#222221"/>
<path d="M153.153 94.2384H151.406V96.3776H153.153V94.2384Z" fill="#222221"/>
<path d="M151.41 96.3776H149.663V98.5168H151.41V96.3776Z" fill="#222221"/>
<path d="M165.368 100.65H163.626V98.5168H161.879V100.65H160.132V102.79H158.389V104.929H160.132V107.062H161.879V104.929V102.79H163.626V104.929V107.062H168.858V109.202H170.605V107.062V104.929V102.79H168.858V104.929H165.368V102.79H168.858V100.65H170.605V98.5168H165.368V100.65Z" fill="#222221"/>
<path d="M139.19 104.929V102.79H137.443V100.65H139.19V102.79H140.937V100.65H142.68V102.79H140.937V104.929H144.427V107.062H146.169V104.929V102.79H144.427V100.65V98.5168H132.207V100.65H135.701V102.79H132.207V104.929H133.954V107.062H135.701V104.929H139.19Z" fill="#222221"/>
<path d="M128.717 104.929H130.464V102.79V100.65H128.717V98.5168H126.975V100.65V102.79V104.929V107.062V109.202V111.341V113.474V115.614V117.747H128.717V115.614V113.474H130.464V111.341H128.717V109.202H130.464V107.062H128.717V104.929Z" fill="#222221"/>
<path d="M132.211 104.929H130.464V107.068H132.211V104.929Z" fill="#222221"/>
<path d="M140.937 104.929H139.19V107.068H140.937V104.929Z" fill="#222221"/>
<path d="M149.663 109.202V107.062V104.929H151.406V102.79H153.153V104.929H156.642V102.79H154.9V100.65H156.642V102.79H158.389V100.65V98.5168H156.642V96.3776V94.244H154.9V96.3776V98.5168H153.153V100.65H149.663V102.79H147.916V104.929V107.062H146.169V109.202H149.663Z" fill="#222221"/>
<path d="M160.136 107.062H158.389V109.202H160.136V107.062Z" fill="#222221"/>
<path d="M144.427 109.202H142.68V111.341H144.427V109.202Z" fill="#222221"/>
<path d="M167.115 111.341H163.626V109.202H161.879V111.341V113.474H163.626V115.614H165.368V117.747V119.886H168.858V117.747V115.614H167.115V113.474H168.858V115.614H170.605V113.474V111.341H168.858V109.202H167.115V111.341Z" fill="#222221"/>
<path d="M133.954 111.341H132.207V113.474V115.614H133.954V113.474V111.341Z" fill="#222221"/>
<path d="M140.937 113.474H142.68V111.341H140.937V109.202H139.19V111.341H137.443V109.202H139.19V107.062H135.701V109.202H133.954V111.341H135.701V113.474V115.614H137.443V113.474H139.19V115.614H137.443V117.747H140.937V115.614V113.474Z" fill="#222221"/>
<path d="M161.879 113.48H160.132V115.619H158.389V113.48H160.132V111.341H158.389V109.207H156.642V107.068H153.153V109.207H149.663V111.341H146.169V115.619H147.916V113.48H153.153V117.753H151.415V122.031H153.162V119.892H154.909V122.031H153.153V126.304H158.389V128.438H160.132V126.304H163.626V115.614H161.879V113.48ZM161.879 119.892V124.165H156.642V117.747H161.879V119.892Z" fill="#222221"/>
<path d="M135.701 115.614H133.954V117.753H135.701V115.614Z" fill="#222221"/>
<path d="M151.41 115.614H149.663V117.753H151.41V115.614Z" fill="#222221"/>
<path d="M149.663 119.886V117.747H146.169V115.614H144.427V113.48H142.68V117.753H144.427V119.892H142.68V117.753H140.937V128.432H144.427V126.298H146.169V122.026H147.916V119.886H149.663ZM144.427 124.159H142.68V122.026H144.427V124.159Z" fill="#222221"/>
<path d="M126.975 122.026V134.844H139.19V119.886H126.975V122.026ZM137.443 122.026V132.71H128.717V122.026H137.443Z" fill="#222221"/>
<path d="M160.136 119.886H158.389V122.026H160.136V119.886Z" fill="#222221"/>
<path d="M170.604 119.886H168.857V122.026H170.604V119.886Z" fill="#222221"/>
<path d="M151.406 124.159V122.02H147.916V124.159V126.298H149.663V124.159H151.406Z" fill="#222221"/>
<path d="M167.115 124.159V126.298V128.432H161.879V130.571H160.132V132.71H163.626V130.571H165.368V132.71H168.858V134.844H170.605V132.71V130.571V128.432V126.298V124.159H168.858V122.02H167.115V124.159Z" fill="#222221"/>
<path d="M149.663 128.432H147.916V130.571H151.406V128.432H153.153V126.298H149.663V128.432Z" fill="#222221"/>
<path d="M135.701 128.432V126.298V124.159H130.464V126.298V128.432V130.571H135.701V128.432Z" fill="#222221"/>
<path d="M158.389 128.432H156.642V130.571H158.389V128.432Z" fill="#222221"/>
<path d="M142.684 132.71H140.937V134.85H142.684V132.71Z" fill="#222221"/>
<path d="M147.916 132.71V134.844H153.153V132.71V130.571H151.406V132.71H147.916Z" fill="#222221"/>
<path d="M158.389 132.71H154.9V134.85H158.389V132.71Z" fill="#222221"/>
<path d="M165.372 132.71H163.625V134.85H165.372V132.71Z" fill="#222221"/>
<path d="M121.487 88.5544H120.321V73.272H132.207V74.7H121.487V88.5544Z" fill="#6770A7"/>
<path d="M177.254 88.5544H176.092V74.7H165.368V73.272H177.254V88.5544Z" fill="#6770A7"/>
<path d="M132.207 142.992H120.321V129.16H121.487V141.564H132.207V142.992Z" fill="#6770A7"/>
<path d="M177.254 142.992H165.368V141.564H176.092V129.16H177.254V142.992Z" fill="#6770A7"/>
<path d="M177.254 181.565H120.321V198.841H177.254V181.565Z" fill="#6770A7"/>
<path d="M129.026 190.049C128.947 189.381 128.626 188.861 128.063 188.492C127.5 188.122 126.809 187.938 125.991 187.938C125.393 187.938 124.869 188.035 124.421 188.228C123.976 188.422 123.629 188.688 123.378 189.026C123.132 189.365 123.009 189.75 123.009 190.181C123.009 190.542 123.094 190.852 123.266 191.111C123.442 191.367 123.666 191.58 123.939 191.751C124.212 191.919 124.498 192.057 124.797 192.167C125.096 192.273 125.371 192.358 125.622 192.424L126.994 192.794C127.346 192.886 127.737 193.014 128.168 193.177C128.604 193.339 129.019 193.561 129.415 193.843C129.816 194.12 130.146 194.476 130.405 194.912C130.665 195.347 130.794 195.882 130.794 196.515C130.794 197.245 130.603 197.905 130.22 198.495C129.842 199.084 129.288 199.552 128.558 199.9C127.832 200.247 126.95 200.421 125.912 200.421C124.944 200.421 124.106 200.265 123.398 199.953C122.694 199.64 122.14 199.205 121.735 198.646C121.335 198.088 121.108 197.439 121.056 196.7H122.745C122.789 197.21 122.96 197.632 123.259 197.967C123.563 198.297 123.946 198.543 124.407 198.706C124.874 198.864 125.375 198.943 125.912 198.943C126.536 198.943 127.097 198.842 127.594 198.64C128.091 198.433 128.485 198.147 128.775 197.782C129.066 197.412 129.211 196.981 129.211 196.489C129.211 196.04 129.085 195.675 128.835 195.393C128.584 195.112 128.254 194.883 127.845 194.707C127.436 194.531 126.994 194.377 126.519 194.245L124.856 193.77C123.8 193.467 122.965 193.034 122.349 192.471C121.733 191.908 121.425 191.171 121.425 190.26C121.425 189.504 121.63 188.844 122.039 188.281C122.452 187.713 123.006 187.274 123.701 186.961C124.401 186.645 125.182 186.486 126.044 186.486C126.915 186.486 127.689 186.642 128.366 186.955C129.044 187.263 129.58 187.685 129.976 188.221C130.376 188.758 130.588 189.367 130.61 190.049H129.026ZM144.358 190.894H142.722C142.625 190.423 142.456 190.01 142.214 189.653C141.976 189.297 141.686 188.998 141.343 188.756C141.004 188.51 140.628 188.325 140.215 188.202C139.801 188.079 139.37 188.017 138.921 188.017C138.103 188.017 137.362 188.224 136.698 188.637C136.038 189.051 135.512 189.66 135.121 190.465C134.734 191.27 134.54 192.257 134.54 193.427C134.54 194.597 134.734 195.585 135.121 196.39C135.512 197.195 136.038 197.804 136.698 198.217C137.362 198.631 138.103 198.838 138.921 198.838C139.37 198.838 139.801 198.776 140.215 198.653C140.628 198.53 141.004 198.347 141.343 198.105C141.686 197.859 141.976 197.558 142.214 197.201C142.456 196.841 142.625 196.427 142.722 195.961H144.358C144.235 196.652 144.011 197.27 143.685 197.815C143.36 198.36 142.955 198.824 142.471 199.207C141.987 199.585 141.444 199.874 140.841 200.071C140.243 200.269 139.603 200.368 138.921 200.368C137.769 200.368 136.744 200.087 135.847 199.524C134.949 198.961 134.243 198.16 133.729 197.122C133.214 196.084 132.957 194.852 132.957 193.427C132.957 192.002 133.214 190.77 133.729 189.732C134.243 188.694 134.949 187.894 135.847 187.331C136.744 186.768 137.769 186.486 138.921 186.486C139.603 186.486 140.243 186.585 140.841 186.783C141.444 186.981 141.987 187.271 142.471 187.654C142.955 188.032 143.36 188.494 143.685 189.04C144.011 189.581 144.235 190.199 144.358 190.894ZM147.557 200.184H145.841L150.803 186.671H152.492L157.454 200.184H155.738L151.7 188.809H151.595L147.557 200.184ZM148.19 194.905H155.105V196.357H148.19V194.905ZM170.274 186.671V200.184H168.69L161.327 189.574H161.195V200.184H159.558V186.671H161.142L168.532 197.307H168.664V186.671H170.274Z" fill="white"/>
<path opacity="0.3" d="M194.55 221.498V37.0064C194.547 33.3556 193.361 29.8557 191.253 27.2742C189.144 24.6927 186.286 23.2405 183.305 23.236H114.275C111.819 23.2416 109.431 24.2293 107.476 26.0488C105.52 27.8683 104.103 30.42 103.44 33.316C114.499 30.7288 140.516 36.0488 156.642 43.956C177.378 54.092 179.934 56.9368 187.768 111.369C193.297 149.813 194.409 223.716 186.469 234.742C188.804 233.901 190.854 232.156 192.311 229.768C193.768 227.38 194.553 224.479 194.55 221.498Z" fill="white"/>
<path d="M183.305 23.236H114.275C112.682 23.2347 111.107 23.649 109.655 24.4514C108.203 25.2539 106.908 26.426 105.855 27.8896C107.909 25.6626 110.558 24.4352 113.301 24.44H182.331C185.312 24.4445 188.17 25.8967 190.278 28.4782C192.387 31.0597 193.573 34.5596 193.576 38.2104V222.68C193.579 226.045 192.571 229.293 190.745 231.808C191.94 230.518 192.896 228.931 193.552 227.154C194.207 225.376 194.546 223.449 194.546 221.498V37.0064C194.542 33.3566 193.357 29.8575 191.25 27.2762C189.142 24.6948 186.285 23.2419 183.305 23.236Z" fill="white"/>
<path d="M114.76 234.675C111.778 234.671 108.92 233.219 106.812 230.637C104.703 228.056 103.517 224.556 103.514 220.905V125.974L103.056 36.032C103.056 36.3568 103.024 36.6816 103.024 37.0064V221.498C103.029 225.15 104.216 228.65 106.325 231.231C108.434 233.812 111.293 235.264 114.275 235.269H183.305C183.893 235.27 184.48 235.214 185.061 235.101L114.76 234.675Z" fill="#172F5B"/>
<path opacity="0.6" d="M184.141 23.2808L103.235 64.1216L103.418 93.9192L194.55 51.488V37.0064C194.547 33.5336 193.473 30.1904 191.543 27.6455C189.613 25.1007 186.97 23.5419 184.141 23.2808Z" fill="white"/>
<path opacity="0.6" d="M103.203 59.44C116.955 51.4432 148.177 32.14 162.537 23.236H130.588L103.097 41.3576V45.3616L103.203 59.44Z" fill="white"/>
<path d="M217.728 117.859L218.13 113.687C218.13 113.687 215.455 111.302 215.13 110.109C214.806 108.916 215.697 105.758 215.697 105.758C215.405 105.388 215.186 104.942 215.057 104.453C214.966 103.848 216.594 101.462 216.594 101.462C216.594 101.462 218.702 97.9232 218.881 97.8056C218.497 100.393 218.264 103.012 218.185 105.64C218.185 105.64 218.739 103.434 219.841 102.986C220.943 102.538 219.242 107.723 218.835 108.21C219.787 109.862 220.875 111.389 222.082 112.769L223.454 111.089C223.532 112.976 224.103 117.842 224.103 117.842L217.728 117.859Z" fill="#FF9489"/>
<path d="M222.887 111.8C223.134 112.92 223.884 117.159 220.724 117.501C219.809 117.602 219.759 117.725 220.193 117.848H224.131C224.131 117.848 223.559 112.982 223.481 111.094L222.887 111.8Z" fill="#FFD4D2"/>
<path d="M215.675 119.948L216.814 116.56C216.814 116.56 219.494 116.678 221.524 116.823C222.556 116.944 223.598 116.855 224.607 116.56L225.782 119.948C225.782 119.948 220.221 121.438 215.675 119.948Z" fill="#DFDFFB"/>
<g style="mix-blend-mode:multiply" opacity="0.3">
<path d="M216.813 116.56L215.679 119.948C216.063 120.077 216.457 120.178 216.85 120.262L217.216 119.875C217.362 119.651 217.545 117.193 217.545 117.193L221.524 116.823C219.489 116.678 216.813 116.56 216.813 116.56Z" fill="#6770A7"/>
</g>
<path style="mix-blend-mode:multiply" opacity="0.25" d="M223.802 236.59H222.087C210.992 236.59 202 237.408 202 238.416C202 239.424 210.992 240.242 222.087 240.242C225.745 240.242 228.535 240.37 231.48 240.242C228.973 238.864 226.411 237.646 223.802 236.59Z" fill="url(#paint1_linear_123_5061)"/>
<path style="mix-blend-mode:multiply" opacity="0.25" d="M203.88 239.878C203.318 239.878 202.746 239.878 202.17 239.878C191.075 239.878 182.079 241.513 182.079 243.529C182.079 245.545 191.075 247.174 202.17 247.174C205.828 247.174 209.226 247.001 212.172 246.693C210.274 244.671 206.354 241.72 203.88 239.878Z" fill="url(#paint2_linear_123_5061)"/>
<path d="M224.478 236.378C223.251 236.524 222.015 236.524 220.788 236.378C218.839 236.126 220.138 238.018 222.411 238.713C224.684 239.407 225.045 239.082 226.202 239.194C227.36 239.306 231.727 240.998 232.056 239.805C232.386 238.612 230.012 236.355 230.012 236.355L224.478 236.378Z" fill="black"/>
<path d="M206.789 239.222C206.789 239.222 205.325 239.458 202.81 239.631C200.651 239.777 200.738 242.039 210.804 246.463C212.377 247.158 213.708 246.463 214.083 244.946C214.458 243.428 206.789 239.222 206.789 239.222Z" fill="black"/>
<path d="M235.235 174.52C235.148 175.544 235.148 176.576 235.235 177.6C236.291 179.689 236.369 180.781 235.235 182.472C234.101 184.163 234.018 185.154 233.246 185.552C232.473 185.95 232.354 187.344 231.48 185.552C230.607 183.76 231.777 172.812 231.777 172.812L235.235 174.52Z" fill="#FF9489"/>
<g style="mix-blend-mode:multiply">
<path d="M233.977 178.485L234.22 174.61L234.188 173.994L231.777 172.801C231.777 172.801 231.087 179.28 231.165 183.088C231.434 183.497 231.732 183.614 231.919 182.707C232.335 180.669 232.802 180.372 233.387 180.574C233.159 179.678 233.529 178.138 233.977 178.485Z" fill="#FF9489"/>
</g>
<path d="M234.22 124.12C234.22 124.12 237.018 151.157 237.101 161.69C237.183 172.224 237.101 174.906 237.101 174.906C237.101 174.906 233.369 175.802 231.155 175.405C229.934 175.007 229.61 166.159 229.61 166.159V127.301C229.61 127.301 231.828 122.63 234.22 124.12Z" fill="#6770A7"/>
<g style="mix-blend-mode:multiply" opacity="0.5">
<path d="M234.22 124.12C231.828 122.63 229.646 127.301 229.646 127.301V166.159C229.646 166.159 229.939 174.122 231.018 175.276C235.925 174.01 234.22 168.746 234.22 166.361C234.261 163.779 232.637 138.921 233.387 131.674C233.607 129.518 234.22 124.12 234.22 124.12Z" fill="#6770A7"/>
</g>
<path d="M236.168 175.08C236.739 174.974 237.082 174.884 237.082 174.884C237.082 174.884 237.165 172.202 237.082 161.668C237 151.134 234.201 124.098 234.201 124.098C234.201 124.098 236.835 162.379 236.168 175.08Z" fill="#B0AED4"/>
<path d="M208.655 168.248C207.828 172.744 207.54 177.364 207.799 181.962C208.289 189.119 209.263 201.344 208.655 206.412C208.046 211.48 206.341 235.185 206.825 239.654C207.681 243.232 210.969 245.17 212.771 245.92C214.573 246.67 214.961 241.149 214.838 232.95C214.714 224.752 217.033 212.527 215.812 208.35C216.786 200.302 218.368 186.734 219.224 185.838C220.079 184.942 222.388 185.541 222.388 185.541C222.388 185.541 224.702 204.922 225.068 206.412C225.434 207.902 225.96 210.584 225.96 210.584C225.96 210.584 225.352 233.393 224.497 236.378C229.614 240.102 230.899 239.956 232.075 239.805C233.145 236.378 233.145 233.544 232.656 229.221C232.656 221.616 231.864 212.376 232.075 208.501C232.285 204.626 232.349 192.546 232.075 188.078C231.8 183.609 232.047 171.233 231.439 167.503C230.831 163.774 208.655 168.248 208.655 168.248Z" fill="#172F5B"/>
<g style="mix-blend-mode:multiply" opacity="0.4">
<path d="M230.328 171.205L230.936 166.803C227.62 164.423 208.655 168.248 208.655 168.248C207.828 172.744 207.54 177.364 207.799 181.962C208.289 189.119 209.263 201.344 208.655 206.412C208.046 211.48 206.341 235.185 206.825 239.654C207.653 243.126 210.763 245.046 212.615 245.842C211.426 244.268 209.112 241.082 208.696 239.631C208.124 237.666 210.722 215.355 210.886 210.511C211.051 205.667 213.319 187.949 215.268 184.27C217.216 180.59 221.213 176.816 225.009 175.528C228.805 174.24 230.328 171.205 230.328 171.205Z" fill="#172F5B"/>
</g>
<path d="M188.404 118.654C188.404 118.654 187.512 113.934 187.347 113.189C186.198 110.971 185.193 108.645 184.343 106.234C184.343 106.234 186.328 101.014 186.858 100.37C187.773 99.5752 191.729 96.2936 190.549 98.6288C189.492 100.471 189.415 100.835 189.415 100.835C189.415 100.835 191.889 99.6256 192.012 99.7712C192.136 99.9168 190.023 102.409 190.023 102.409C190.023 102.409 191.898 102.358 192.017 102.902C192.136 103.445 190.224 104.195 190.224 104.195V106.122C190.224 106.122 190.979 106.385 190.572 106.878C190.165 107.37 188.788 107.578 188.788 107.578C189.182 108.116 189.464 108.762 189.612 109.461C189.76 110.161 189.769 110.894 189.639 111.598C189.922 113.586 190.37 116.638 190.37 116.638L188.404 118.654Z" fill="#FF9489"/>
<g style="mix-blend-mode:multiply">
<path d="M187.956 112.679C186.254 109.213 184.882 106.385 184.791 106.122C184.813 105.55 184.898 104.985 185.043 104.442C184.645 105.438 184.347 106.222 184.347 106.222C185.196 108.634 186.199 110.96 187.348 113.178C187.512 113.922 188.404 118.643 188.404 118.643L190.233 116.778C189.165 115.712 188.373 114.288 187.956 112.679Z" fill="#FF9489"/>
</g>
<g style="mix-blend-mode:multiply">
<path d="M188.404 103.669V99.116C187.759 99.6088 187.16 100.118 186.863 100.37C186.707 100.6 186.569 100.848 186.451 101.11C186.451 101.138 185.138 105.489 186.451 106.234C187.764 106.978 188.404 103.669 188.404 103.669Z" fill="#FF9489"/>
</g>
<path d="M189.991 95.1288C189.986 95.0751 189.971 95.0234 189.948 94.977C189.926 94.9307 189.895 94.8908 189.859 94.8601C189.822 94.8294 189.781 94.8085 189.738 94.7988C189.694 94.7891 189.649 94.7909 189.607 94.804L186.122 95.924C186.049 95.9478 185.985 96.0039 185.944 96.0814C185.903 96.1589 185.886 96.2525 185.898 96.344L187.087 106.558C187.099 106.647 187.137 106.727 187.193 106.786C187.249 106.844 187.32 106.876 187.393 106.878H187.462L190.663 106.01C190.737 105.99 190.803 105.937 190.848 105.862C190.892 105.786 190.913 105.693 190.905 105.601L189.991 95.1288Z" fill="#172F5B"/>
<path d="M187.165 108.322C187.165 108.322 188.564 104.593 189.053 103.478C189.543 102.364 187.956 103.254 186.072 105.898C185.715 107.499 185.825 109.067 187.165 108.322Z" fill="#FF9489"/>
<path d="M190.393 116.622L185.893 120.76C185.893 120.76 191.669 142.818 192.46 144.907C193.252 146.996 207.315 132.162 207.315 132.162C207.315 132.162 207.923 151.095 208.046 156.163C208.17 161.231 206.825 170.622 206.825 170.622C206.825 170.622 219.914 172.935 223.262 173.383C226.609 173.831 233.245 170.398 233.245 170.398C233.245 170.398 232.212 150.72 232.152 147.965C232.093 145.21 231.238 132.755 232.578 129.406C233.918 126.058 234.037 125.083 234.219 124.109C234.402 123.134 225.073 118.643 225.073 118.643H216.082C216.082 118.643 207.85 120.766 207.008 121.393C206.167 122.02 195.808 134.026 195.808 134.026C195.808 134.026 191.427 115.378 190.393 116.622Z" fill="#6770A7"/>
<g style="mix-blend-mode:multiply" opacity="0.3">
<path d="M216.406 148.67C215.675 132.766 208.531 126.903 207.799 127.53C207.068 128.158 194.651 141.413 193.842 139.85C191.515 132.509 190.276 124.719 190.183 116.846L185.893 120.76C185.893 120.76 191.669 142.818 192.46 144.907C193.252 146.996 207.315 132.162 207.315 132.162C207.315 132.162 207.923 151.095 208.046 156.163C208.17 161.231 206.825 170.622 206.825 170.622C206.825 170.622 219.914 172.935 223.262 173.383C224.66 173.458 226.059 173.256 227.405 172.784C224.336 170.538 217.037 162.418 216.406 148.67Z" fill="#6770A7"/>
</g>
<path d="M234.22 124.12C234.403 123.151 225.073 118.654 225.073 118.654H223.449C223.449 118.654 229.509 121.617 233.662 126.377C233.901 125.646 234.087 124.891 234.22 124.12Z" fill="#B0AED4"/>
<path d="M233.245 170.41C233.245 170.41 232.212 150.731 232.152 147.976C232.152 147.366 232.084 146.296 232.024 144.913C232.024 152.602 232.024 161.623 232.056 164.871C232.152 170.942 231.832 170.387 227.405 172.795C229.394 172.164 231.346 171.367 233.245 170.41Z" fill="#B0AED4"/>
<path d="M195.95 134.659L207.232 122.518L214.298 119.125C211.833 119.791 207.607 120.967 207.008 121.404C206.158 122.037 195.808 134.038 195.808 134.038C195.808 134.038 191.87 117.271 190.581 116.594L190.393 116.622C190.393 116.622 195.337 133.713 195.808 136.647C195.792 135.98 195.839 135.313 195.95 134.659Z" fill="#B0AED4"/>
<g style="mix-blend-mode:multiply" opacity="0.5">
<path d="M217.211 172.426C211.828 169.222 210.475 162.855 210.059 157.961C209.514 151.554 208.412 130.98 208.412 130.98L207.315 132.173C207.315 132.173 207.923 151.106 208.046 156.174C208.17 161.242 206.825 170.634 206.825 170.634C206.825 170.634 212.405 171.619 217.211 172.426Z" fill="#6770A7"/>
</g>
<path d="M188.098 103.562C188.23 103.926 188.065 104.649 187.896 105.304C187.654 106.234 187.165 108.322 187.165 108.322C187.165 108.322 188.564 104.593 189.053 103.478C189.341 102.84 188.916 102.84 188.098 103.562Z" fill="#FFD4D2"/>
<path opacity="0.4" d="M214.618 208.12C213.886 218.452 212.912 229.96 212.912 234.255C212.912 237.666 213.786 242.722 212.986 245.987C214.646 246.278 214.979 240.869 214.861 232.967C214.742 224.763 217.056 212.544 215.835 208.366C216.333 204.273 216.983 198.757 217.618 194.204C216.438 200.146 214.984 207.252 214.618 208.12Z" fill="#B0AED4"/>
<path opacity="0.4" d="M232.637 229.221C232.637 221.616 231.846 212.376 232.057 208.501C232.267 204.626 232.331 192.546 232.057 188.078C231.869 184.953 231.928 177.998 231.778 172.801C231.778 172.801 231.178 183.654 230.931 186.834C230.684 190.015 230.369 208.002 230.328 209.391C230.287 210.78 229.87 223.806 230.328 227.384C230.666 230.128 231.553 236.344 230.012 239.637C230.677 239.864 231.373 239.921 232.057 239.805C233.127 236.378 233.127 233.544 232.637 229.221Z" fill="#B0AED4"/>
<g style="mix-blend-mode:multiply" opacity="0.4">
<path d="M225.96 210.584C225.96 210.584 225.352 233.393 224.497 236.378C227.241 238.388 228.901 239.267 230.012 239.631C228.782 238.511 228.26 234.944 228.11 232.749C227.949 230.363 227.547 212.673 227.424 210.685C227.3 208.697 225.027 198.561 224.785 195.38C224.542 192.199 222.429 185.541 222.429 185.541C222.429 185.541 224.744 204.922 225.109 206.412C225.475 207.902 225.96 210.584 225.96 210.584Z" fill="#172F5B"/>
</g>
<path d="M234.787 178.098C234.993 178.686 235.724 180.075 234.993 181.565C234.261 183.054 234.238 183.967 233.685 185.171C234.105 184.65 234.357 183.766 235.235 182.461C236.369 180.781 236.291 179.661 235.235 177.589C235.235 177.589 234.586 177.51 234.787 178.098Z" fill="#FFD4D2"/>
<path d="M223.468 111.106C223.468 111.106 226.879 106.334 227.405 103.45C227.931 100.566 225.901 96.9936 224.766 95.6104C223.632 94.2272 222.329 92.0824 220.724 92.0824C220.097 92.0824 220.724 94.1432 220.724 94.1432C220.724 94.1432 218.757 92.6816 219.932 95.8848C217.723 95.4368 218.272 96.9432 218.839 97.8168C218.542 100.113 218.03 103.512 218.19 105.657C219.054 103.702 221.195 103.366 218.839 108.227C219.571 110.074 220.692 111.647 222.086 112.786L223.468 111.106Z" fill="#202336"/>
<g style="mix-blend-mode:multiply" opacity="0.5">
<path d="M215.675 109.913C215.309 108.793 215.675 105.758 215.675 105.758C215.675 105.758 214.76 108.916 215.108 110.109C215.455 111.302 218.108 113.687 218.108 113.687L218.355 111.649C218.355 111.649 216.041 111.055 215.675 109.913Z" fill="#FF9489"/>
</g>
<path d="M107.351 114.6C107.363 114.542 107.385 114.487 107.416 114.44C107.447 114.392 107.485 114.353 107.529 114.326C107.574 114.299 107.623 114.286 107.673 114.286C107.723 114.286 107.772 114.299 107.817 114.326L111.544 116.23C111.622 116.271 111.685 116.345 111.722 116.439C111.758 116.533 111.765 116.64 111.741 116.739L109.143 127.827C109.131 127.883 109.109 127.936 109.079 127.981C109.049 128.026 109.012 128.064 108.97 128.09C108.906 128.131 108.834 128.145 108.764 128.13C108.74 128.134 108.715 128.134 108.691 128.13L105.224 126.539C105.144 126.504 105.078 126.433 105.038 126.341C104.999 126.249 104.988 126.142 105.009 126.041L107.351 114.6Z" fill="#172F5B"/>
<path style="mix-blend-mode:multiply" opacity="0.25" d="M93.6078 246.262C91.9157 245.987 87.7036 245.27 88.9796 245.058C90.1 244.867 92.2038 244.716 93.3425 244.643C93.2817 244.322 93.2006 244.008 93.1001 243.702C92.5376 243.702 85.9383 243.96 85.3621 243.971C81.0037 244.061 70.8372 245.466 70.8372 247.482C70.8372 249.498 80.1759 250.355 86.6243 250.809C89.5335 251.084 92.456 251.075 95.3639 250.781C94.1703 249.521 93.8502 247.835 93.6078 246.262Z" fill="url(#paint3_linear_123_5061)"/>
<path style="mix-blend-mode:multiply" opacity="0.25" d="M66.1907 248.138C64.4986 247.863 64.8187 247.544 66.0901 247.331C67.2106 247.141 69.3189 246.99 70.4531 246.917C70.3931 246.596 70.3136 246.282 70.2153 245.976C69.6482 245.976 66.7899 245.567 66.2136 245.567C64.8782 245.567 48.2358 245.634 48.2358 247.65C48.2358 249.666 60.753 250.042 66.1907 248.138Z" fill="url(#paint4_linear_123_5061)"/>
<path d="M66.7806 240.998C65.4406 243.053 63.9405 245.819 59.6965 247.93C58.6354 249.235 61.224 248.972 62.8383 248.899C64.4527 248.826 67.4117 247.858 68.0382 247.186C68.6648 246.514 69.0718 242.566 69.4377 242.118C69.7441 245.321 69.8035 246.962 69.8035 246.962L70.4118 246.889C70.4118 246.889 70.7182 242.487 70.9606 241.07C71.2136 239.75 71.0381 238.361 70.4712 237.195C69.927 236.154 69.0489 237.52 66.7806 240.998Z" fill="#222221"/>
<path d="M71.4317 208.898C71.4317 208.898 70.1512 221.319 69.8539 224.304C69.3975 228.486 68.7486 232.633 67.9103 236.725C66.9407 241.765 64.3202 243.702 64.7089 244.565C65.4407 246.11 66.9316 243.445 67.9103 242.095C68.635 241.067 69.4887 240.186 70.4393 239.486C71.1299 238.987 70.8326 236.999 70.8326 236.999C70.8326 236.999 72.9044 228.252 73.5766 226.169C74.2489 224.086 78.7994 215.137 77.6149 209.867C78.7994 203.606 78.8954 202.218 78.8954 202.218C78.8954 202.218 72.7077 201.142 71.4317 208.898Z" fill="#FF9489"/>
<g style="mix-blend-mode:multiply">
<path d="M78.1042 205.718L77.2719 202.24C75.3419 202.486 72.287 203.713 71.4317 208.898C71.4317 208.898 70.1512 221.319 69.8539 224.304C69.3975 228.486 68.7486 232.633 67.9103 236.725C66.9407 241.765 64.3202 243.702 64.7089 244.565C65.3218 245.864 66.4697 244.178 67.4209 242.818C67.6816 241.054 68.6054 238.763 68.8204 237.968C69.1771 236.652 71.139 218.217 72.1955 214.14C73.2519 210.063 78.1042 205.718 78.1042 205.718Z" fill="#FF9489"/>
</g>
<path d="M93.2832 239.183C93.2832 239.183 89.8944 243.865 94.8016 250.49C95.3321 251.05 95.4235 251.128 96.2422 248.81C97.4953 245.298 96.2925 238.528 95.3732 237.408C94.454 236.288 93.2832 239.183 93.2832 239.183Z" fill="#222221"/>
<path d="M90.4432 203.752C90.4432 203.752 89.437 207.862 89.9858 209.794C90.5346 211.726 93.0682 234.894 93.0317 237.794C92.2725 240.874 92.899 245.892 94.6278 246.094C96.3565 246.295 96.7955 240.958 95.8534 237.369C95.6385 229.411 95.5973 219.236 95.8534 215.411C96.1095 211.586 96.3428 205.768 95.4189 203.282C94.4951 200.795 92.2771 199.446 92.2771 199.446C92.2771 199.446 90.3151 202.968 90.4432 203.752Z" fill="#FF9489"/>
<g style="mix-blend-mode:multiply">
<path d="M89.9904 209.8C90.5484 211.732 93.0729 234.899 93.0363 237.8C92.2771 240.88 92.9037 245.898 94.6324 246.099C94.8394 246.125 95.0475 246.064 95.2223 245.926C93.1323 244.122 93.704 239.043 93.4616 237.173C93.1552 234.832 91.4127 213.972 91.3304 210.69C91.2481 207.409 95.0668 202.738 95.0668 202.738V202.408C94.3532 201.174 93.4134 200.161 92.3228 199.451C92.3228 199.451 90.3334 202.974 90.4615 203.758C90.4432 203.752 89.4371 207.862 89.9904 209.8Z" fill="#FF9489"/>
</g>
<path d="M79.0968 146.71C74.7247 146.755 72.0584 140.707 71.0431 136.266C69.9044 131.299 71.1666 126.422 73.6408 122.334C76.115 118.246 74.7292 114.981 75.5479 109.409C76.3665 103.837 78.9184 101.294 82.1929 101.054C85.4674 100.813 89.4188 104.565 90.0133 110.742C90.6078 116.918 91.7969 119.511 93.9692 123.028C96.8139 127.631 101.108 146.486 79.0968 146.71Z" fill="#202336"/>
<path d="M76.3846 162.301C76.3846 162.301 71.5277 190.015 71.043 208.898C82.2431 206.709 95.6338 203.528 95.6338 203.528C95.6338 203.528 96.3609 190.312 96.3015 180.473C96.3015 177.365 95.9585 160.313 93.9691 158.213C89.0573 159.501 76.3846 162.301 76.3846 162.301Z" fill="#172F5B"/>
<path opacity="0.4" d="M90.6169 204.693C93.6674 203.998 95.6476 203.528 95.6476 203.528C95.6476 203.528 96.3748 190.312 96.3153 180.473C96.3153 177.365 95.9723 160.313 93.9829 158.213L93.3564 158.375C93.9783 162.766 95.643 176.816 94.4311 195.778C94.0221 199.193 92.6771 202.337 90.6169 204.693Z" fill="#B0AED4"/>
<g style="mix-blend-mode:multiply" opacity="0.4">
<path d="M80.2125 188.946C82.3208 179.134 87.2737 161.886 91.9019 159.602L90.4248 159.092C84.6578 160.475 76.3846 162.301 76.3846 162.301C76.3846 162.301 71.5277 190.015 71.043 208.898C76.1788 207.896 81.772 206.686 86.3225 205.667C83.4962 202.52 78.6987 195.99 80.2125 188.946Z" fill="#172F5B"/>
</g>
<path d="M97.134 135.824C97.134 135.824 99.878 141.194 100.665 143.356C102.531 139.94 105.595 131.501 106.267 130.308C106.207 128.298 106.267 126.433 106.267 126.433C106.267 126.433 105.05 123.375 105.11 122.709C105.169 122.042 107.058 125.313 107.058 125.313C107.058 125.313 106.143 120.99 106.569 120.323C106.994 119.657 108.458 124.803 108.458 124.803C108.458 124.803 108.032 118.47 108.458 118.173C108.883 117.876 109.798 124.333 109.916 126.892C110.035 129.451 107.666 131.736 107.607 132.184C106.326 137.924 102.855 148.508 101.09 151.566C100.299 152.904 93.9692 139.246 93.9692 139.246C93.9692 139.246 94.6415 137 97.134 135.824Z" fill="#FF9489"/>
<g style="mix-blend-mode:multiply">
<path d="M96.3611 136.266C95.31 136.9 94.4663 137.952 93.9692 139.251C93.9692 139.251 99.1691 150.451 100.733 151.571C98.6752 147.914 96.7773 139.587 96.3611 136.266Z" fill="#FF9489"/>
</g>
<path d="M70.6359 142.113C70.4154 141.022 70.0033 140.004 69.4282 139.129C68.8532 138.253 68.1291 137.542 67.3065 137.045C63.8994 142.908 60.9039 150.446 60.7347 151.644C60.5655 152.842 74.6102 161.489 74.6102 161.489C74.6102 161.489 73.7595 164.922 73.7595 166.014C73.7595 167.106 74.2169 172.823 74.6102 173.294C75.0035 173.764 75.5477 168.125 75.5477 168.125C75.5477 168.125 76.1559 170.365 76.723 170.46C77.2901 170.555 76.0233 164.44 76.0233 164.44C76.395 163.001 76.6298 161.515 76.723 160.01C76.723 158.33 66.5794 150.171 66.09 149.774C67.8736 146.682 70.6359 142.113 70.6359 142.113Z" fill="#FF9489"/>
<g style="mix-blend-mode:multiply">
<path d="M75.5248 161.018C75.5248 161.018 68.4636 156.102 61.9512 150.938C64.558 143.182 68.2853 139.363 69.7259 139.57C69.1301 138.47 68.2997 137.591 67.3249 137.028C63.9177 142.891 60.9222 150.429 60.753 151.627C60.5838 152.826 74.6285 161.472 74.6285 161.472C74.6285 161.472 73.7778 164.905 73.7778 165.997C73.7778 167.089 74.2352 172.806 74.6285 173.277C75.0218 173.747 75.566 168.108 75.566 168.108C75.566 168.108 74.6925 166.047 74.6285 165.078C74.5645 164.11 75.5248 161.018 75.5248 161.018Z" fill="#FF9489"/>
</g>
<path d="M77.8985 126.506C77.8985 126.506 72.4105 128.796 71.8525 129.194C71.2946 129.591 67.3066 137.034 67.3066 137.034C67.3066 137.034 69.1726 138.523 70.636 142.102C72.5843 139.117 73.5584 137.526 73.5584 137.526C73.5584 137.526 76.7231 147.864 77.8985 150.966C77.0478 157.227 76.9335 159.249 76.4716 162.334C81.923 163.611 91.3304 160.408 93.9692 158.224C92.7938 152.954 91.5773 149.079 91.6551 147.584C91.7328 146.089 92.3868 136.35 92.3868 136.35L93.9692 139.257C93.9692 139.257 95.3092 136.502 97.1339 135.83C96.1186 130.885 93.768 126.511 93.4432 125.52C93.1185 124.529 86.4826 125.621 86.4826 125.621L77.8985 126.506Z" fill="#6770A7"/>
<path d="M95.0895 137.498C95.6468 136.74 96.3493 136.162 97.1338 135.818C96.1185 130.874 93.7678 126.5 93.4431 125.509C93.1184 124.518 86.4825 125.61 86.4825 125.61L81.9092 126.086L82.5129 134.922C82.5129 134.922 86.2859 131.495 87.6258 126.427C90.7906 125.979 92.373 126.427 92.373 126.427C92.373 126.427 95.7709 132.453 95.0758 137.493L95.0895 137.498Z" fill="#B0AED4"/>
<path d="M80.9443 119.724C80.9443 119.724 81.4931 123.823 80.4549 125.016C78.6896 126.136 77.8984 126.506 77.8984 126.506C79.0761 129.583 80.6375 132.416 82.5266 134.906C85.5679 130.958 86.4826 125.593 86.4826 125.593C86.4826 125.593 84.8408 125.666 84.1685 125.29C83.4962 124.915 83.9261 119.69 83.9261 119.69L80.9443 119.724Z" fill="#FF9489"/>
<g style="mix-blend-mode:multiply">
<path d="M82.234 125.313C82.2091 124.513 82.3421 123.718 82.6215 122.995C82.9009 122.271 83.3186 121.641 83.8392 121.158C83.8758 120.34 83.9261 119.724 83.9261 119.724H80.9443C80.9443 119.724 81.4931 123.823 80.4549 125.016C78.6896 126.136 77.8984 126.506 77.8984 126.506C79.0761 129.583 80.6375 132.416 82.5266 134.906C82.6821 134.704 82.8285 134.497 82.984 134.29C78.6119 127.368 80.336 127.329 82.234 125.313Z" fill="#FF9489"/>
</g>
<path d="M77.9396 110.008C77.9396 110.008 78.2643 113.368 78.3467 114.085C77.4549 113.094 76.8832 113.984 77.3725 115.076C77.8504 116.027 78.3935 116.926 78.9961 117.764C78.9961 117.764 80.7797 122.334 82.8102 122.334C84.8408 122.334 86.7067 119.153 87.2738 110.803C86.3306 110.068 85.4828 109.164 84.7585 108.121C84.7585 108.121 82.8102 111.005 81.0221 109.213C79.2339 107.421 77.7475 108.048 77.9396 110.008Z" fill="#FF9489"/>
<g style="mix-blend-mode:multiply">
<path d="M106.509 131.428C106.935 130.459 106.267 126.433 106.267 126.433C106.267 126.433 106.207 128.298 106.267 130.308C105.595 131.501 102.53 139.94 100.665 143.356L101.213 144.622C101.213 144.622 106.084 132.397 106.509 131.428Z" fill="#FF9489"/>
</g>
<path d="M64.8735 149.841C64.8735 149.841 74.2855 156.914 76.7002 160.531C76.7002 160.346 76.723 160.167 76.723 159.999C76.723 158.319 66.5794 150.16 66.09 149.762C67.8736 146.682 70.6359 142.113 70.6359 142.113L64.8735 149.841Z" fill="#FFD4D2"/>
<path d="M109.916 126.881C109.811 124.607 109.066 119.17 108.604 118.279C108.974 120.693 109.674 125.71 109.308 126.881C108.823 128.438 109.006 129.042 107.3 131.652C106.569 135.88 101.108 151.56 101.108 151.56C102.873 148.502 106.345 137.918 107.625 132.178C107.666 131.725 110.04 129.418 109.916 126.881Z" fill="#FFD4D2"/>
<path d="M84.8407 119.724C84.0495 121.583 82.8147 122.328 81.429 121.678C81.8182 122.069 82.2985 122.298 82.801 122.334C84.8315 122.334 86.6974 119.153 87.2645 110.803C86.8862 110.519 86.5255 110.2 86.1852 109.851C86.1989 114.751 85.4809 118.218 84.8407 119.724Z" fill="#FFD4D2"/>
<g style="mix-blend-mode:multiply" opacity="0.3">
<path d="M80.3956 150.658C79.4809 148.721 75.525 134.038 75.5479 132.99C75.5707 131.943 77.9626 128.891 79.298 128.298L80.4322 127.329L78.8727 126.808C78.8727 126.808 73.7597 128.746 72.4197 130.235C71.5736 131.176 69.5842 135.186 68.2351 138.008C69.2167 139.203 70.0283 140.59 70.6361 142.113C72.5843 139.128 73.5585 137.538 73.5585 137.538C73.5585 137.538 76.7232 147.875 77.8986 150.978C77.0479 157.238 76.9336 159.26 76.4717 162.346C79.3254 163.012 83.2631 162.452 86.748 161.455C80.885 160.24 81.1868 152.338 80.3956 150.658Z" fill="#6770A7"/>
</g>
<path d="M92.3866 136.345L90.4979 148.049C90.4979 148.049 92.0848 155.206 92.3866 156.398C92.6885 157.591 91.5452 158.918 87.7676 161.125C90.5116 160.251 92.8486 159.137 93.969 158.213C92.7937 152.943 91.5772 149.068 91.6549 147.573C91.7327 146.078 92.3866 136.345 92.3866 136.345Z" fill="#B0AED4"/>
<path d="M39.368 187.691C37.493 188.173 35.9883 184.656 31.7854 186.011C27.5825 187.366 25.0809 197.614 30.9394 200.918C36.7978 204.222 37.2734 209.666 36.656 213.546C36.0386 217.427 32.7047 229.086 50.87 225.508C53.6688 224.522 59.5913 214.213 54.4417 207.918C49.2922 201.624 44.9292 202.985 46.0405 197.278C47.1518 191.572 44.4764 186.398 39.368 187.691Z" fill="#B0AED4"/>
<g style="mix-blend-mode:multiply" opacity="0.4">
<path d="M39.368 187.691C37.493 188.173 35.9883 184.656 31.7854 186.011C27.5825 187.366 25.0809 197.614 30.9394 200.918C36.7978 204.222 37.2734 209.666 36.656 213.546C36.0386 217.427 32.7047 229.086 50.87 225.508C53.6688 224.522 59.5913 214.213 54.4417 207.918C49.2922 201.624 44.9292 202.985 46.0405 197.278C47.1518 191.572 44.4764 186.398 39.368 187.691Z" fill="#B0AED4"/>
</g>
<path d="M54.0028 230.778C53.948 230.649 51.2588 224.287 47.2892 215.994L51.5515 207.414C51.5752 207.367 51.5825 207.31 51.5717 207.256C51.561 207.202 51.5332 207.155 51.4944 207.126C51.4556 207.097 51.4089 207.088 51.3648 207.101C51.3206 207.114 51.2825 207.148 51.2588 207.196L47.088 215.596C45.1534 211.581 42.9171 207.129 40.5252 202.716L42.1625 190.827C42.1704 190.772 42.1599 190.714 42.1333 190.668C42.1067 190.622 42.0662 190.59 42.0207 190.581C41.9752 190.571 41.9285 190.584 41.8907 190.617C41.853 190.649 41.8274 190.699 41.8195 190.754L40.2463 202.201C37.7069 197.497 34.9587 192.967 32.0143 188.632C31.9935 188.602 31.9682 188.578 31.9398 188.56C31.9113 188.542 31.8803 188.531 31.8484 188.528C31.8166 188.525 31.7846 188.53 31.7541 188.542C31.7237 188.554 31.6956 188.573 31.6713 188.598C31.6469 188.624 31.6269 188.655 31.6124 188.69C31.5978 188.724 31.589 188.762 31.5865 188.801C31.584 188.84 31.5877 188.88 31.5975 188.917C31.6074 188.954 31.6231 188.989 31.6438 189.018C33.3908 191.55 35.1424 194.35 36.8483 197.267L30.2444 195.587C30.2013 195.581 30.1577 195.594 30.1222 195.625C30.0867 195.655 30.0619 195.701 30.0528 195.753C30.0436 195.805 30.0506 195.86 30.0726 195.906C30.0945 195.952 30.1297 195.986 30.1712 196.002L37.1455 197.782C41.8606 205.88 46.2282 214.84 49.2649 221.392H38.577C38.5521 221.387 38.5267 221.389 38.5024 221.397C38.4781 221.405 38.4556 221.42 38.4364 221.44C38.4172 221.46 38.4017 221.485 38.3912 221.513C38.3806 221.541 38.3751 221.571 38.3751 221.602C38.3751 221.633 38.3806 221.663 38.3912 221.691C38.4017 221.719 38.4172 221.744 38.4364 221.764C38.4556 221.784 38.4781 221.799 38.5024 221.807C38.5267 221.815 38.5521 221.817 38.577 221.812H49.457C51.9586 227.238 53.5181 230.951 53.573 231.046C53.5943 231.095 53.6259 231.136 53.6645 231.164C53.7032 231.193 53.7473 231.208 53.7925 231.209C53.8338 231.209 53.8744 231.195 53.9104 231.171C53.9464 231.146 53.9767 231.11 53.9982 231.067C54.0197 231.023 54.0319 230.974 54.0335 230.924C54.0351 230.873 54.0261 230.823 54.0074 230.778H54.0028Z" fill="#6770A7"/>
<path d="M59.3672 218.564C63.7805 220.037 68.3355 213.406 65.715 207.806C63.0945 202.206 68.2166 202.901 67.5443 198.908C66.8721 194.915 64.8369 192.938 66.6617 191.118C68.4864 189.298 67.8828 180.596 63.3414 180.142C58.8001 179.689 62.1798 187.798 62.4725 189.595C62.7652 191.393 62.1204 194.887 59.2437 195.649C56.3671 196.41 55.6765 200.409 58.1736 203.203C60.6706 205.998 54.1536 206.059 53.8381 209.845C53.5225 213.63 54.2268 216.845 59.3672 218.564Z" fill="#B0AED4"/>
<path d="M66.584 198.639C66.572 198.632 66.5589 198.627 66.5454 198.626C66.532 198.624 66.5185 198.626 66.5057 198.632C66.4929 198.637 66.4811 198.645 66.4709 198.656C66.4608 198.667 66.4526 198.68 66.4468 198.695C65.8614 200.146 63.7348 201.495 62.971 201.966C63.0122 201.747 63.0579 201.534 63.1037 201.316C63.9589 197.228 64.7821 193.274 64.7683 189.478C65.5824 188.094 65.7516 186.47 65.8751 185.272C65.9071 184.97 65.9346 184.712 65.9711 184.443C65.9752 184.411 65.969 184.377 65.9537 184.35C65.9383 184.323 65.9151 184.304 65.8888 184.298C65.875 184.294 65.8608 184.295 65.847 184.298C65.8332 184.302 65.8202 184.309 65.8087 184.319C65.7972 184.329 65.7874 184.341 65.78 184.356C65.7725 184.371 65.7675 184.387 65.7653 184.404C65.7288 184.656 65.7013 184.964 65.6693 185.244C65.5965 186.571 65.2841 187.862 64.7546 189.024C64.7279 186.64 64.2587 184.294 63.3826 182.164C63.3589 182.12 63.3227 182.089 63.2811 182.075C63.2395 182.062 63.1954 182.069 63.1573 182.093C63.1192 182.117 63.0898 182.158 63.0749 182.207C63.0599 182.257 63.0604 182.311 63.0762 182.36C65.4818 188.15 64.1509 194.495 62.7469 201.215C62.5686 202.061 62.3948 202.895 62.221 203.774C61.7271 202.654 60.3322 199.44 60.0395 198.174C60.0364 198.158 60.0305 198.142 60.0222 198.129C60.0139 198.115 60.0035 198.104 59.9915 198.095C59.9794 198.087 59.9661 198.082 59.9524 198.08C59.9386 198.078 59.9247 198.08 59.9115 198.085C59.8855 198.095 59.8637 198.117 59.8502 198.146C59.8366 198.175 59.8324 198.209 59.8383 198.242C60.1721 199.664 61.7957 203.349 62.1478 204.133C61.7545 206.115 61.3978 208.137 61.16 210.192L59.2392 206.513C59.2318 206.498 59.222 206.486 59.2106 206.476C59.1992 206.466 59.1863 206.459 59.1727 206.456C59.1591 206.452 59.145 206.452 59.1313 206.455C59.1176 206.458 59.1045 206.464 59.0928 206.474C59.0711 206.493 59.0559 206.521 59.05 206.553C59.0441 206.585 59.048 206.618 59.0608 206.647L61.1143 210.567C61.1143 210.567 61.1143 210.606 61.1143 210.623C60.035 220.832 56.5043 230.716 56.4723 230.817C56.4626 230.842 56.4571 230.869 56.4562 230.896C56.4553 230.924 56.459 230.951 56.4672 230.977C56.4753 231.003 56.4877 231.026 56.5035 231.046C56.5194 231.065 56.5383 231.081 56.5592 231.091C56.5819 231.096 56.6051 231.096 56.6278 231.091C56.6617 231.091 56.6948 231.078 56.7232 231.055C56.7515 231.033 56.774 231 56.7879 230.962C58.6774 225.436 60.1039 219.689 61.0457 213.81C61.6722 213.591 64.3613 212.561 65.9208 210.718C65.9308 210.707 65.9387 210.693 65.9442 210.678C65.9496 210.662 65.9524 210.646 65.9524 210.629C65.9524 210.612 65.9496 210.595 65.9442 210.58C65.9387 210.565 65.9308 210.551 65.9208 210.539C65.9012 210.516 65.875 210.503 65.8477 210.503C65.8203 210.503 65.7941 210.516 65.7745 210.539C64.3156 212.264 61.8414 213.261 61.0868 213.535C61.2286 212.583 61.3521 211.626 61.4527 210.662C61.7904 207.83 62.2669 205.025 62.8796 202.262C63.465 201.932 65.9391 200.454 66.6068 198.785C66.6164 198.761 66.6194 198.734 66.6153 198.707C66.6112 198.681 66.6002 198.657 66.584 198.639Z" fill="#6770A7"/>
<path d="M54.6752 225.558C56.204 224.243 57.4599 222.507 58.3422 220.49C59.2245 218.473 59.7088 216.231 59.7562 213.944C59.9116 206.104 53.8108 207.633 54.7666 201.915C55.7225 196.198 59.1525 189.45 55.1371 185.86C51.1217 182.27 45.8304 186.241 48.5195 179.291C50.9342 173.047 42.9766 168.534 40.1137 169.9C37.2508 171.266 35.9977 176.172 40.2875 180.652C42.2174 182.674 41.2524 185.132 39.3362 187.842C37.2645 190.766 35.6547 194.96 39.7661 197.514C44.1565 200.246 36.9078 202.677 38.5816 207.627C40.2555 212.578 47.0834 210.231 45.7252 214.073C44.2205 218.34 35.8971 222.775 54.6752 225.558Z" fill="#B0AED4"/>
<path opacity="0.5" d="M54.7665 201.915C55.7315 196.192 59.1524 189.45 55.137 185.86C51.1216 182.27 45.8303 186.241 48.5194 179.291C50.1658 175.024 46.9782 171.569 43.8774 170.242C45.1007 171.192 46.058 172.578 46.6214 174.212C47.2709 176.301 42.9628 184.09 49.3151 185.244C55.6675 186.398 57.2544 187.73 55.384 194.484C53.5135 201.238 50.9204 204.228 55.384 207.308C59.8475 210.388 59.4999 217.567 54.7162 222.775C54.7162 224.534 54.6476 224.976 54.6842 225.575C56.214 224.262 57.4706 222.528 58.3531 220.511C59.2356 218.495 59.7193 216.253 59.7652 213.966C59.9116 206.093 53.8016 207.633 54.7665 201.915Z" fill="#DFDFFB"/>
<path d="M56.5547 211.004C56.539 210.984 56.5201 210.968 56.4993 210.958C56.4785 210.947 56.4561 210.941 56.4335 210.941C56.4109 210.941 56.3886 210.947 56.3678 210.958C56.347 210.968 56.3281 210.984 56.3123 211.004L53.1842 215.518C52.2055 210.248 50.8975 204.038 49.2511 197.553C49.8045 196.679 52.7223 191.986 53.9342 188.89C53.9481 188.864 53.9574 188.835 53.9613 188.805C53.9653 188.775 53.9639 188.744 53.9572 188.714C53.9505 188.685 53.9387 188.658 53.9226 188.634C53.9064 188.611 53.8864 188.592 53.8637 188.579C53.8411 188.566 53.8164 188.559 53.7914 188.559C53.7664 188.558 53.7417 188.565 53.7188 188.577C53.696 188.59 53.6756 188.608 53.6591 188.631C53.6426 188.654 53.6304 188.681 53.6232 188.71C52.5073 191.555 49.9188 195.783 49.1231 197.06C47.0605 189.063 44.4537 180.686 41.2249 173.187C41.2099 173.153 41.1895 173.122 41.1648 173.097C41.1401 173.072 41.1117 173.054 41.0811 173.042C41.0505 173.031 41.0184 173.027 40.9866 173.03C40.9548 173.034 40.9239 173.046 40.8956 173.064C40.8674 173.082 40.8424 173.107 40.8221 173.138C40.8018 173.168 40.7865 173.203 40.7771 173.24C40.7678 173.278 40.7646 173.317 40.7676 173.356C40.7707 173.395 40.78 173.433 40.795 173.467C43.3938 179.637 45.6061 186.039 47.4126 192.619C46.0818 192.059 42.0344 190.458 40.4978 190.082C40.4745 190.073 40.4498 190.07 40.4255 190.073C40.4011 190.076 40.3776 190.086 40.3564 190.101C40.3353 190.116 40.317 190.137 40.3027 190.161C40.2885 190.185 40.2786 190.213 40.2737 190.242C40.2689 190.272 40.2691 190.302 40.2745 190.331C40.2799 190.361 40.2902 190.388 40.3049 190.412C40.3196 190.436 40.3382 190.456 40.3597 190.471C40.3811 190.485 40.4048 190.494 40.4292 190.497C42.039 190.894 46.6032 192.737 47.5544 193.118C48.9264 198.068 50.1018 202.962 51.0759 207.498C49.5027 207.123 43.196 205.628 41.042 205.141C41.0197 205.135 40.9968 205.135 40.9745 205.14C40.9522 205.146 40.931 205.157 40.9122 205.172C40.8935 205.188 40.8774 205.208 40.8652 205.232C40.8529 205.255 40.8446 205.281 40.8408 205.309C40.8327 205.364 40.8426 205.42 40.8682 205.466C40.8939 205.512 40.9333 205.544 40.978 205.555C43.2189 206.065 49.9417 207.661 51.1765 207.952C52.1232 212.387 52.8869 216.475 53.4632 219.93L45.5147 219.225C45.4921 219.223 45.4694 219.226 45.4478 219.234C45.4263 219.243 45.4064 219.257 45.3893 219.275C45.3723 219.294 45.3584 219.316 45.3485 219.341C45.3386 219.366 45.3329 219.393 45.3318 219.421C45.3292 219.475 45.3439 219.529 45.3729 219.571C45.4018 219.613 45.4428 219.639 45.4873 219.645L53.5455 220.384C54.6248 226.718 55.1187 230.839 55.1324 230.951C55.1401 231.022 55.1684 231.087 55.2121 231.134C55.2558 231.182 55.3119 231.208 55.3702 231.209H55.4068C55.4704 231.195 55.5272 231.152 55.5655 231.088C55.6038 231.025 55.6207 230.946 55.6126 230.867C55.6126 230.727 54.8809 224.741 53.2757 216.055L56.5685 211.301C56.5838 211.28 56.5956 211.256 56.6032 211.23C56.6108 211.204 56.6141 211.177 56.6128 211.149C56.6116 211.121 56.6058 211.094 56.5958 211.069C56.5858 211.044 56.5718 211.022 56.5547 211.004Z" fill="#6770A7"/>
<defs>
<linearGradient id="paint0_linear_123_5061" x1="36.9443" y1="238.142" x2="184.1" y2="238.142" gradientUnits="userSpaceOnUse">
<stop stop-color="white"/>
<stop offset="0.53"/>
</linearGradient>
<linearGradient id="paint1_linear_123_5061" x1="202" y1="238.433" x2="231.48" y2="238.433" gradientUnits="userSpaceOnUse">
<stop stop-color="white"/>
<stop offset="1"/>
</linearGradient>
<linearGradient id="paint2_linear_123_5061" x1="182.079" y1="243.512" x2="212.172" y2="243.512" gradientUnits="userSpaceOnUse">
<stop stop-color="white"/>
<stop offset="1"/>
</linearGradient>
<linearGradient id="paint3_linear_123_5061" x1="70.8372" y1="247.354" x2="95.3639" y2="247.354" gradientUnits="userSpaceOnUse">
<stop stop-color="white"/>
<stop offset="1"/>
</linearGradient>
<linearGradient id="paint4_linear_123_5061" x1="48.2358" y1="247.477" x2="70.4531" y2="247.477" gradientUnits="userSpaceOnUse">
<stop stop-color="white"/>
<stop offset="1"/>
</linearGradient>
</defs>
</svg>
