<svg width="343" height="280" viewBox="0 0 343 280" fill="none" xmlns="http://www.w3.org/2000/svg">
<g clip-path="url(#clip0_340_10987)">
<g clip-path="url(#clip1_340_10987)">
<path d="M325.618 71.9852C323.855 60.5785 320.417 49.64 313.181 39.6743C299.838 21.1596 275.696 9.97177 251.284 4.29881C230.8 -0.456025 208.736 -1.83018 188.304 3.08274C165.874 8.47601 147.051 20.8921 126.853 30.6267C112.067 37.6488 96.6309 43.6794 80.6912 48.661C67.8303 52.7531 51.4872 55.0454 40.9162 62.8161C34.4462 67.6164 28.7094 73.0585 23.8342 79.0202C4.09667 102.922 -2.29718 133.458 0.716853 161.962C2.8457 181.821 9.41512 201.916 24.1268 217.646C44.8081 239.724 80.3108 250.602 113.809 247.859C151.85 244.746 187.88 225.854 225.687 230.39C244.51 232.646 262.521 240.684 281.454 239.189C300.116 237.717 316.086 227.028 327.345 214.594C336.372 204.604 342.378 192.522 342.934 179.936C343.541 166.322 336.123 153.906 332.4 140.906C325.925 118.184 329.166 94.9385 325.618 71.9852Z" fill="#92E3A9"/>
<path opacity="0.7" d="M325.618 71.9852C323.855 60.5785 320.417 49.64 313.181 39.6743C299.838 21.1596 275.696 9.97177 251.284 4.29881C230.8 -0.456025 208.736 -1.83018 188.304 3.08274C165.874 8.47601 147.051 20.8921 126.853 30.6267C112.067 37.6488 96.6309 43.6794 80.6912 48.661C67.8303 52.7531 51.4872 55.0454 40.9162 62.8161C34.4462 67.6164 28.7094 73.0585 23.8342 79.0202C4.09667 102.922 -2.29718 133.458 0.716853 161.962C2.8457 181.821 9.41512 201.916 24.1268 217.646C44.8081 239.724 80.3108 250.602 113.809 247.859C151.85 244.746 187.88 225.854 225.687 230.39C244.51 232.646 262.521 240.684 281.454 239.189C300.116 237.717 316.086 227.028 327.345 214.594C336.372 204.604 342.378 192.522 342.934 179.936C343.541 166.322 336.123 153.906 332.4 140.906C325.925 118.184 329.166 94.9385 325.618 71.9852Z" fill="white"/>
<path d="M234.678 180.045H341.442V176.701H234.678V180.045Z" stroke="#263238" stroke-linecap="round" stroke-linejoin="round"/>
<path d="M239.63 270.496H336.489V180.142H239.63V270.496Z" stroke="#263238" stroke-linecap="round" stroke-linejoin="round"/>
<path d="M243.12 203.953H333.124V184.35H243.12V203.953Z" stroke="#263238" stroke-linecap="round" stroke-linejoin="round"/>
<path d="M283.773 195.951H292.771V192.34H283.773V195.951Z" fill="#263238" stroke="#263238" stroke-linecap="round" stroke-linejoin="round"/>
<path d="M243.12 228.712H333.124V209.109H243.12V228.712Z" stroke="#263238" stroke-linecap="round" stroke-linejoin="round"/>
<path d="M283.773 220.717H292.771V217.105H283.773V220.717Z" fill="#263238" stroke="#263238" stroke-linecap="round" stroke-linejoin="round"/>
<path d="M243.12 253.593H333.124V233.99H243.12V253.593Z" stroke="#263238" stroke-linecap="round" stroke-linejoin="round"/>
<path d="M283.773 245.597H292.771V241.986H283.773V245.597Z" fill="#263238" stroke="#263238" stroke-linecap="round" stroke-linejoin="round"/>
<path d="M292.522 137.173C293.612 137.568 296.283 137.519 296.283 137.519C296.283 137.519 295.712 136.066 295.661 135.975C295.076 134.959 293.225 133.275 291.718 133.445C291.467 133.478 291.227 133.555 291.014 133.67C290.801 133.785 290.619 133.936 290.481 134.113C290.343 134.29 290.251 134.49 290.212 134.699C290.173 134.907 290.188 135.12 290.255 135.324C290.45 135.75 290.754 136.136 291.145 136.455C291.537 136.774 292.006 137.019 292.522 137.173Z" fill="#263238"/>
<path d="M319.495 137.659C319.495 137.659 319.978 136.188 319.992 136.09C320.183 134.972 319.751 132.722 318.383 132.169C318.152 132.082 317.901 132.038 317.647 132.038C317.394 132.038 317.143 132.082 316.912 132.168C316.681 132.255 316.474 132.38 316.305 132.538C316.136 132.695 316.009 132.88 315.932 133.081C315.81 133.524 315.806 133.984 315.918 134.429C316.03 134.874 316.257 135.293 316.583 135.659C317.234 136.473 319.488 137.659 319.495 137.659Z" fill="#263238"/>
<path d="M327.462 129.621C325.947 129.487 324.148 131.208 323.599 132.235C323.548 132.327 322.999 133.792 323.029 133.792C322.743 134.059 322.436 134.351 322.114 134.68C321.521 135.288 320.863 135.969 320.205 136.759C319.482 137.599 318.82 138.474 318.222 139.38C317.542 140.393 316.974 141.455 316.525 142.554C316.525 142.554 316.525 142.554 316.525 142.59C316.525 142.219 316.525 141.186 316.525 141.107C316.349 139.988 315.223 137.908 313.723 137.677C313.473 137.646 313.219 137.658 312.975 137.713C312.732 137.769 312.505 137.866 312.31 137.999C312.114 138.132 311.955 138.298 311.842 138.485C311.729 138.673 311.664 138.878 311.653 139.088C311.677 139.543 311.821 139.988 312.074 140.392C312.327 140.797 312.682 141.15 313.116 141.429C313.972 142.037 316.335 142.675 316.525 142.724C316.103 143.848 315.769 144.994 315.523 146.153C315.384 146.834 315.259 147.515 315.15 148.202C315.15 147.886 315.15 147.594 315.15 147.558C314.974 146.439 313.847 144.36 312.355 144.135C312.105 144.101 311.85 144.112 311.605 144.166C311.361 144.22 311.133 144.317 310.937 144.449C310.741 144.582 310.581 144.748 310.467 144.936C310.353 145.123 310.289 145.329 310.277 145.539C310.302 145.994 310.445 146.44 310.698 146.844C310.951 147.248 311.306 147.602 311.74 147.88C312.758 148.44 313.873 148.867 315.047 149.145C315.011 149.412 314.967 149.674 314.93 149.941C314.747 151.206 314.572 152.477 314.352 153.711C314.279 154.149 314.184 154.575 314.089 155.006C314.089 154.721 314.089 154.477 314.089 154.441C313.913 153.322 312.787 151.249 311.287 151.018C311.038 150.985 310.783 150.996 310.54 151.051C310.296 151.106 310.069 151.202 309.874 151.335C309.678 151.468 309.519 151.633 309.406 151.82C309.292 152.008 309.228 152.213 309.217 152.422C309.241 152.877 309.384 153.323 309.637 153.727C309.89 154.131 310.246 154.485 310.68 154.763C311.667 155.306 312.751 155.716 313.891 155.979C313.782 156.417 313.672 156.855 313.54 157.274C313.438 157.554 313.372 157.834 313.255 158.113C313.138 158.393 313.035 158.673 312.933 158.946C312.706 159.469 312.472 160.01 312.201 160.515C312.04 160.862 311.879 161.196 311.719 161.53C311.799 161.099 311.938 160.248 311.938 160.175C311.921 159.181 311.599 158.208 311.002 157.347C311.015 157.114 310.965 156.882 310.855 156.667C310.745 156.453 310.579 156.262 310.368 156.108C310.157 155.954 309.907 155.842 309.637 155.78C309.367 155.718 309.083 155.707 308.807 155.748C307.344 156.076 306.407 158.217 306.334 159.348C306.334 159.415 306.385 160.138 306.429 160.594C306.349 160.333 306.283 160.071 306.203 159.798C306.049 159.256 305.873 158.721 305.69 158.15C305.595 157.87 305.493 157.59 305.391 157.311C305.288 157.031 305.149 156.745 305.032 156.459C304.747 155.797 304.41 155.14 304.059 154.483C305.247 154.277 306.389 153.92 307.446 153.425C307.902 153.174 308.286 152.843 308.571 152.456C308.857 152.068 309.037 151.633 309.1 151.182C309.107 150.972 309.06 150.763 308.964 150.568C308.867 150.374 308.722 150.199 308.538 150.054C308.355 149.91 308.136 149.799 307.898 149.729C307.659 149.66 307.406 149.632 307.154 149.649C305.639 149.789 304.33 151.79 304.059 152.896C304.059 152.963 303.949 153.778 303.913 154.222C303.693 153.827 303.481 153.438 303.247 153.042C302.574 151.911 301.842 150.787 301.126 149.656C300.906 149.315 300.694 148.968 300.474 148.622C300.679 148.579 303.086 148.117 303.986 147.54C304.442 147.288 304.826 146.957 305.111 146.57C305.397 146.182 305.577 145.747 305.639 145.296C305.646 145.086 305.6 144.877 305.503 144.683C305.407 144.488 305.262 144.313 305.078 144.169C304.894 144.024 304.676 143.913 304.438 143.844C304.199 143.774 303.945 143.747 303.693 143.764C302.186 143.904 300.87 145.904 300.599 147.011C300.599 147.09 300.453 148.257 300.438 148.555C299.962 147.795 299.494 147.035 299.07 146.263C298.499 145.228 298.01 144.164 297.607 143.077C297.702 143.077 300.218 142.584 301.14 141.994C301.596 141.743 301.98 141.412 302.265 141.024C302.551 140.637 302.731 140.202 302.794 139.751C302.801 139.541 302.754 139.332 302.657 139.137C302.561 138.943 302.416 138.768 302.232 138.623C302.049 138.479 301.83 138.368 301.592 138.298C301.353 138.228 301.1 138.201 300.848 138.218C299.341 138.358 298.024 140.359 297.753 141.459C297.753 141.532 297.636 142.426 297.599 142.852H297.519C297.137 141.749 296.878 140.619 296.743 139.477C296.656 138.869 296.619 138.261 296.597 137.653C297.826 137.558 299.03 137.308 300.167 136.911C300.653 136.702 301.079 136.406 301.413 136.046C301.748 135.686 301.984 135.269 302.106 134.826C302.14 134.618 302.121 134.406 302.05 134.204C301.979 134.003 301.858 133.816 301.694 133.656C301.531 133.496 301.328 133.366 301.101 133.276C300.873 133.185 300.625 133.135 300.372 133.129C298.85 133.129 297.285 134.996 296.868 136.072C296.868 136.127 296.692 136.741 296.59 137.191C296.59 136.929 296.59 136.656 296.59 136.4C296.59 135.44 296.663 134.576 296.736 133.792C296.78 133.354 296.831 132.953 296.882 132.576C297.915 132.023 298.841 131.342 299.626 130.557C299.941 130.185 300.154 129.761 300.252 129.314C300.349 128.866 300.328 128.407 300.189 127.967C300.103 127.77 299.969 127.589 299.794 127.438C299.62 127.286 299.409 127.167 299.175 127.087C298.941 127.007 298.69 126.969 298.438 126.975C298.185 126.981 297.937 127.031 297.709 127.122C296.363 127.73 296.005 129.961 296.246 131.074C296.246 131.171 296.773 132.649 296.795 132.637C296.736 132.995 296.678 133.378 296.619 133.798C296.531 134.57 296.436 135.446 296.407 136.407C296.365 137.441 296.394 138.476 296.495 139.507C296.602 140.661 296.832 141.805 297.182 142.925V142.967C296.941 142.651 296.239 141.8 296.173 141.751C295.288 140.9 292.961 139.684 291.564 140.176C291.335 140.264 291.13 140.39 290.964 140.548C290.797 140.705 290.672 140.89 290.597 141.09C290.522 141.29 290.498 141.501 290.527 141.709C290.556 141.917 290.638 142.118 290.767 142.298C291.086 142.668 291.498 142.975 291.974 143.199C292.45 143.422 292.979 143.557 293.525 143.593C294.659 143.727 297.036 143.156 297.226 143.107C297.626 144.241 298.115 145.352 298.689 146.433C299.019 147.041 299.37 147.686 299.736 148.312L299.289 147.783C298.397 146.925 296.078 145.716 294.68 146.208C294.451 146.295 294.245 146.421 294.078 146.578C293.911 146.735 293.785 146.92 293.71 147.121C293.635 147.321 293.611 147.532 293.641 147.741C293.671 147.949 293.753 148.15 293.883 148.33C294.202 148.699 294.614 149.007 295.09 149.23C295.567 149.454 296.096 149.589 296.641 149.625C297.862 149.625 299.076 149.469 300.24 149.163C300.387 149.4 300.526 149.643 300.665 149.881C301.396 151.024 302.047 152.161 302.691 153.292C302.918 153.687 303.123 154.088 303.328 154.508C303.137 154.271 302.969 154.076 302.94 154.046C302.055 153.194 299.728 151.978 298.331 152.471C298.102 152.559 297.897 152.686 297.73 152.844C297.564 153.002 297.439 153.187 297.364 153.388C297.288 153.588 297.265 153.8 297.294 154.008C297.323 154.217 297.405 154.418 297.534 154.599C297.854 154.967 298.266 155.272 298.743 155.495C299.219 155.717 299.747 155.851 300.292 155.888C301.48 155.891 302.661 155.744 303.796 155.45C303.993 155.864 304.191 156.277 304.359 156.666C304.461 156.946 304.593 157.213 304.681 157.499L304.966 158.338C305.12 158.879 305.281 159.433 305.42 159.968C305.515 160.333 305.603 160.685 305.69 161.038C305.471 160.643 305.025 159.864 304.959 159.822C304.227 158.867 302.164 157.39 300.694 157.688C300.451 157.746 300.226 157.845 300.033 157.98C299.839 158.115 299.682 158.282 299.571 158.471C299.46 158.659 299.398 158.865 299.388 159.075C299.379 159.284 299.422 159.493 299.516 159.688C299.766 160.093 300.118 160.448 300.549 160.728C300.979 161.008 301.478 161.207 302.011 161.312C303.245 161.469 304.5 161.469 305.734 161.312C305.881 161.92 306.012 162.473 306.122 163.014C306.371 164.2 306.561 165.264 306.707 166.17H300.716V176.64H316.474V166.152H310.38C310.775 165.422 311.206 164.595 311.66 163.677C311.938 163.111 312.223 162.503 312.509 161.883C312.794 161.932 315.135 162.327 316.225 162.12C316.764 162.051 317.279 161.884 317.732 161.632C318.186 161.38 318.568 161.049 318.851 160.661C318.965 160.473 319.029 160.268 319.04 160.058C319.051 159.848 319.008 159.639 318.915 159.443C318.822 159.248 318.68 159.072 318.499 158.925C318.318 158.779 318.101 158.666 317.864 158.594C316.401 158.186 314.206 159.548 313.416 160.46C313.365 160.509 312.926 161.141 312.684 161.543C312.801 161.287 312.918 161.038 313.028 160.777C313.262 160.254 313.474 159.725 313.701 159.165C313.804 158.886 313.899 158.606 314.001 158.326C314.103 158.046 314.184 157.718 314.272 157.451C314.469 156.763 314.63 156.064 314.769 155.353C315.895 155.73 317.085 155.957 318.295 156.028C318.842 156.028 319.383 155.929 319.878 155.737C320.374 155.544 320.812 155.264 321.163 154.915C321.309 154.743 321.409 154.548 321.458 154.342C321.507 154.136 321.503 153.923 321.446 153.718C321.389 153.514 321.282 153.321 321.129 153.153C320.977 152.985 320.784 152.846 320.563 152.744C319.21 152.167 316.788 153.237 315.823 154.033C315.764 154.082 315.15 154.714 314.82 155.073C314.901 154.641 314.981 154.216 315.047 153.784C315.237 152.532 315.376 151.255 315.53 149.99C315.574 149.601 315.625 149.212 315.676 148.823C315.867 148.883 318.186 149.601 319.334 149.534C320.344 149.473 321.617 149.169 322.202 148.421C322.346 148.249 322.445 148.053 322.493 147.847C322.54 147.641 322.535 147.428 322.478 147.224C322.421 147.019 322.313 146.827 322.161 146.659C322.008 146.492 321.816 146.352 321.595 146.251C320.249 145.643 317.82 146.737 316.861 147.534C316.788 147.594 315.903 148.512 315.698 148.75C315.808 147.892 315.925 147.041 316.079 146.208C316.284 145.081 316.577 143.966 316.957 142.87C317.044 142.87 319.458 143.654 320.614 143.587C321.161 143.586 321.701 143.486 322.196 143.294C322.691 143.102 323.13 142.822 323.482 142.475C323.628 142.303 323.728 142.108 323.777 141.901C323.826 141.695 323.822 141.483 323.765 141.278C323.709 141.073 323.601 140.881 323.449 140.713C323.296 140.545 323.103 140.406 322.882 140.304C321.529 139.726 319.107 140.79 318.142 141.587C318.076 141.642 317.41 142.341 317.096 142.675H317.022C317.439 141.58 317.972 140.518 318.617 139.501C318.961 138.942 319.349 138.419 319.7 137.921C320.79 138.403 321.961 138.745 323.175 138.936C323.719 138.983 324.269 138.931 324.787 138.784C325.305 138.637 325.778 138.398 326.174 138.085C326.34 137.927 326.465 137.742 326.54 137.542C326.614 137.342 326.638 137.131 326.608 136.923C326.578 136.715 326.496 136.514 326.367 136.334C326.239 136.154 326.066 135.998 325.86 135.878C324.587 135.178 322.041 136.017 320.98 136.723C320.922 136.759 320.388 137.203 320 137.531C320.175 137.306 320.344 137.069 320.519 136.863C321.148 136.066 321.792 135.367 322.37 134.753C322.699 134.406 323.007 134.102 323.292 133.816C324.53 133.826 325.763 133.68 326.95 133.385C327.46 133.221 327.921 132.966 328.3 132.638C328.679 132.311 328.967 131.918 329.144 131.488C329.213 131.271 329.221 131.044 329.169 130.824C329.118 130.604 329.007 130.396 328.845 130.217C328.683 130.037 328.475 129.89 328.235 129.787C327.996 129.684 327.731 129.627 327.462 129.621ZM310.716 163.385C310.175 164.431 309.648 165.361 309.195 166.152H307.593C307.424 165.215 307.198 164.102 306.861 162.856C306.722 162.248 306.554 161.64 306.378 160.977C307.088 160.737 307.782 160.465 308.456 160.162C309.373 160.817 310.395 161.363 311.492 161.786C311.258 162.339 310.987 162.874 310.716 163.385Z" fill="#263238"/>
<path d="M10.4832 181.085L18.9693 248.662" stroke="#263238" stroke-width="2" stroke-miterlimit="10"/>
<path d="M17.6012 235.729L13.7532 232.348" stroke="#263238" stroke-width="2" stroke-miterlimit="10"/>
<path d="M14.9237 233.364C14.9142 232.848 14.773 232.339 14.5094 231.871C14.2458 231.404 13.8659 230.988 13.3947 230.652C12.4071 229.922 7.20569 228.104 6.71554 229.624C6.1815 231.278 11.5 234.525 14.9237 233.364Z" fill="#92E3A9" stroke="#263238" stroke-miterlimit="10"/>
<path d="M14.9239 233.364L9.97852 230.798" stroke="#263238" stroke-width="0.5" stroke-miterlimit="10"/>
<path d="M18.567 243.415L14.719 240.034" stroke="#263238" stroke-width="2" stroke-miterlimit="10"/>
<path d="M15.8895 241.049C15.88 240.533 15.7388 240.024 15.4752 239.557C15.2117 239.09 14.8317 238.674 14.3605 238.337C13.3729 237.608 8.17151 235.79 7.68136 237.31C7.14732 238.964 12.4658 242.211 15.8895 241.049Z" fill="#92E3A9" stroke="#263238" stroke-miterlimit="10"/>
<path d="M15.8894 241.049L10.9441 238.483" stroke="#263238" stroke-width="0.5" stroke-miterlimit="10"/>
<path d="M15.2457 216.977L11.3977 213.597" stroke="#263238" stroke-width="2" stroke-miterlimit="10"/>
<path d="M12.5682 214.612C12.5587 214.096 12.4175 213.587 12.1539 213.12C11.8904 212.652 11.5104 212.236 11.0392 211.9C10.0516 211.164 4.85022 209.352 4.36007 210.873C3.82603 212.526 9.14449 215.773 12.5682 214.612Z" fill="#92E3A9" stroke="#263238" stroke-miterlimit="10"/>
<path d="M12.5682 214.612L7.6228 212.046" stroke="#263238" stroke-width="0.5" stroke-miterlimit="10"/>
<path d="M16.2113 224.663L12.3633 221.282" stroke="#263238" stroke-width="2" stroke-miterlimit="10"/>
<path d="M13.5338 222.298C13.5243 221.781 13.3832 221.273 13.1196 220.805C12.856 220.338 12.4761 219.922 12.0049 219.586C11.0173 218.85 5.81586 217.038 5.32571 218.558C4.79167 220.212 10.1394 223.459 13.5338 222.298Z" fill="#92E3A9" stroke="#263238" stroke-miterlimit="10"/>
<path d="M13.5337 222.298L8.58838 219.732" stroke="#263238" stroke-width="0.5" stroke-miterlimit="10"/>
<path d="M13.68 204.488L9.83203 201.114" stroke="#263238" stroke-width="2" stroke-miterlimit="10"/>
<path d="M11.0025 202.129C10.995 201.612 10.8539 201.102 10.5888 200.634C10.3238 200.167 9.94097 199.751 9.46624 199.417C8.47863 198.681 3.28455 196.87 2.7944 198.39C2.26036 200.043 7.57881 203.29 11.0025 202.129Z" fill="#92E3A9" stroke="#263238" stroke-miterlimit="10"/>
<path d="M11.0025 202.129L6.05713 199.563" stroke="#263238" stroke-width="0.5" stroke-miterlimit="10"/>
<path d="M12.1073 191.951L8.25928 188.576" stroke="#263238" stroke-width="2" stroke-miterlimit="10"/>
<path d="M9.4078 189.591C9.40023 189.074 9.25916 188.565 8.99412 188.097C8.72907 187.629 8.34625 187.214 7.87152 186.879C6.88391 186.144 1.68983 184.326 1.19968 185.852C0.680272 187.506 5.99873 190.753 9.4078 189.591Z" fill="#92E3A9" stroke="#263238" stroke-miterlimit="10"/>
<path d="M9.42973 189.585L4.48438 187.025" stroke="#263238" stroke-width="0.5" stroke-miterlimit="10"/>
<path d="M16.9575 231.181L19.8838 227.217" stroke="#263238" stroke-width="2" stroke-miterlimit="10"/>
<path d="M18.9839 228.408C18.8672 227.903 18.8805 227.382 19.023 226.882C19.1655 226.381 19.4339 225.91 19.8106 225.502C20.5933 224.614 25.2241 221.945 26.0874 223.349C27.0238 224.894 22.6271 228.962 18.9839 228.408Z" fill="#92E3A9" stroke="#263238" stroke-miterlimit="10"/>
<path d="M18.9912 228.408L23.4391 224.87" stroke="#263238" stroke-width="0.5" stroke-miterlimit="10"/>
<path d="M14.4189 210.958L17.3379 206.993" stroke="#263238" stroke-width="2" stroke-miterlimit="10"/>
<path d="M16.4455 208.185C16.3277 207.679 16.3405 207.157 16.483 206.655C16.6255 206.153 16.8945 205.682 17.2721 205.273C18.0549 204.385 22.6857 201.716 23.5489 203.12C24.4853 204.646 20.0887 208.738 16.4455 208.185Z" fill="#92E3A9" stroke="#263238" stroke-miterlimit="10"/>
<path d="M16.4453 208.185L20.9005 204.646" stroke="#263238" stroke-width="0.5" stroke-miterlimit="10"/>
<path d="M13.2998 202.068L16.2261 198.104" stroke="#263238" stroke-width="2" stroke-miterlimit="10"/>
<path d="M15.3333 199.302C15.2135 198.795 15.2245 198.272 15.3658 197.769C15.507 197.266 15.7753 196.794 16.1527 196.383C16.9428 195.495 21.5736 192.826 22.4295 194.231C23.3659 195.757 18.9692 199.849 15.3333 199.302Z" fill="#92E3A9" stroke="#263238" stroke-miterlimit="10"/>
<path d="M15.3335 199.296L19.7887 195.757" stroke="#263238" stroke-width="0.5" stroke-miterlimit="10"/>
<path d="M11.6611 189.044L14.5874 185.08" stroke="#263238" stroke-width="2" stroke-miterlimit="10"/>
<path d="M13.6947 186.271C13.5758 185.764 13.5881 185.241 13.7306 184.738C13.8731 184.235 14.1426 183.763 14.5213 183.353C15.3041 182.465 19.9349 179.796 20.7981 181.2C21.7345 182.727 17.3378 186.819 13.6947 186.271Z" fill="#92E3A9" stroke="#263238" stroke-miterlimit="10"/>
<path d="M13.6948 186.265L18.15 182.727" stroke="#263238" stroke-width="0.5" stroke-miterlimit="10"/>
<path d="M10.41 180.714C10.2911 180.207 10.3034 179.684 10.4459 179.181C10.5884 178.678 10.858 178.205 11.2367 177.795C12.0194 176.908 16.6502 174.238 17.5135 175.643C18.4499 177.169 14.0532 181.261 10.41 180.714Z" fill="#92E3A9" stroke="#263238" stroke-miterlimit="10"/>
<path d="M10.4102 180.714L14.8654 177.175" stroke="#263238" stroke-width="0.5" stroke-miterlimit="10"/>
<path d="M10.6733 180.866C10.0551 180.914 9.43163 180.853 8.84397 180.687C8.25631 180.52 7.71788 180.252 7.26425 179.899C6.29127 179.157 3.60644 175.035 5.34756 174.482C7.27156 173.849 11.7121 177.917 10.6733 180.866Z" fill="#92E3A9" stroke="#263238" stroke-miterlimit="10"/>
<path d="M10.6733 180.866L6.90576 176.81" stroke="#263238" stroke-width="0.5" stroke-miterlimit="10"/>
<path d="M32.8617 190.394L24.4268 257.971" stroke="#263238" stroke-width="2" stroke-miterlimit="10"/>
<path d="M26.2922 245.081L23.366 241.116" stroke="#263238" stroke-width="2" stroke-miterlimit="10"/>
<path d="M24.2584 242.308C24.3762 241.801 24.3634 241.28 24.2209 240.778C24.0784 240.276 23.8095 239.805 23.4318 239.395C22.6417 238.508 18.0109 235.845 17.1477 237.243C16.2186 238.775 20.6153 242.861 24.2584 242.308Z" fill="#92E3A9" stroke="#263238" stroke-miterlimit="10"/>
<path d="M24.2585 242.308L20.052 238.958" stroke="#263238" stroke-width="0.5" stroke-miterlimit="10"/>
<path d="M28.6333 226.329L25.707 222.364" stroke="#263238" stroke-width="2" stroke-miterlimit="10"/>
<path d="M26.5994 223.556C26.7182 223.049 26.706 222.526 26.5635 222.023C26.421 221.52 26.1514 221.048 25.7727 220.638C24.99 219.75 20.3519 217.081 19.4959 218.485C18.5595 220.03 22.9562 224.109 26.5994 223.556Z" fill="#92E3A9" stroke="#263238" stroke-miterlimit="10"/>
<path d="M26.5995 223.556L22.3931 220.2" stroke="#263238" stroke-width="0.5" stroke-miterlimit="10"/>
<path d="M27.6748 234.014L24.7485 230.05" stroke="#263238" stroke-width="2" stroke-miterlimit="10"/>
<path d="M25.6412 231.242C25.759 230.735 25.7462 230.214 25.6037 229.712C25.4612 229.21 25.1923 228.738 24.8146 228.329C24.0245 227.441 19.3937 224.772 18.5305 226.177C17.6014 227.703 21.9981 231.795 25.6412 231.242Z" fill="#92E3A9" stroke="#263238" stroke-miterlimit="10"/>
<path d="M25.641 231.242L21.4346 227.885" stroke="#263238" stroke-width="0.5" stroke-miterlimit="10"/>
<path d="M30.1914 213.84L27.2651 209.881" stroke="#263238" stroke-width="2" stroke-miterlimit="10"/>
<path d="M28.1578 211.073C28.2766 210.566 28.2644 210.043 28.1218 209.54C27.9793 209.037 27.7098 208.565 27.3311 208.155C26.5483 207.273 21.9102 204.604 21.0543 206.008C20.1179 207.534 24.5146 211.627 28.1578 211.073Z" fill="#92E3A9" stroke="#263238" stroke-miterlimit="10"/>
<path d="M28.1577 211.067L23.9512 207.717" stroke="#263238" stroke-width="0.5" stroke-miterlimit="10"/>
<path d="M31.7571 201.302L28.8308 197.344" stroke="#263238" stroke-width="2" stroke-miterlimit="10"/>
<path d="M29.7232 198.536C29.842 198.028 29.8298 197.506 29.6873 197.002C29.5448 196.499 29.2752 196.027 28.8965 195.617C28.1137 194.729 23.4756 192.066 22.6197 193.471C21.6833 194.997 26.08 199.083 29.7232 198.536Z" fill="#92E3A9" stroke="#263238" stroke-miterlimit="10"/>
<path d="M29.7233 198.529L25.5168 195.179" stroke="#263238" stroke-width="0.5" stroke-miterlimit="10"/>
<path d="M26.7898 240.52L30.6305 237.14" stroke="#263238" stroke-width="2" stroke-miterlimit="10"/>
<path d="M29.46 238.155C29.4694 237.639 29.6106 237.13 29.8742 236.663C30.1378 236.195 30.5177 235.78 30.9889 235.443C31.9765 234.714 37.1706 232.889 37.6681 234.41C38.2021 236.063 32.8837 239.316 29.46 238.155Z" fill="#92E3A9" stroke="#263238" stroke-miterlimit="10"/>
<path d="M29.46 238.155L34.6979 235.455" stroke="#263238" stroke-width="0.5" stroke-miterlimit="10"/>
<path d="M29.3135 220.297L33.1542 216.916" stroke="#263238" stroke-width="2" stroke-miterlimit="10"/>
<path d="M31.9839 217.932C31.9979 217.413 32.1448 216.903 32.4148 216.436C32.6847 215.968 33.0715 215.554 33.5494 215.22C34.537 214.484 39.7311 212.666 40.2286 214.186C40.726 215.84 35.4149 219.093 31.9839 217.932Z" fill="#92E3A9" stroke="#263238" stroke-miterlimit="10"/>
<path d="M31.9839 217.932L37.2219 215.232" stroke="#263238" stroke-width="0.5" stroke-miterlimit="10"/>
<path d="M30.4182 211.408L34.2662 208.027" stroke="#263238" stroke-width="2" stroke-miterlimit="10"/>
<path d="M33.0957 209.042C33.1052 208.526 33.2464 208.017 33.51 207.55C33.7735 207.083 34.1535 206.667 34.6247 206.331C35.6123 205.601 40.8064 203.777 41.2965 205.297C41.8379 206.957 36.5194 210.204 33.0957 209.042Z" fill="#92E3A9" stroke="#263238" stroke-miterlimit="10"/>
<path d="M33.0957 209.042L38.3337 206.343" stroke="#263238" stroke-width="0.5" stroke-miterlimit="10"/>
<path d="M32.0496 198.377L35.8903 195.003" stroke="#263238" stroke-width="2" stroke-miterlimit="10"/>
<path d="M34.7197 196.012C34.7251 195.492 34.8643 194.978 35.128 194.507C35.3917 194.035 35.7738 193.615 36.2487 193.276C37.2363 192.546 42.4304 190.722 42.9278 192.248C43.4619 193.927 38.1508 197.174 34.7197 196.012Z" fill="#92E3A9" stroke="#263238" stroke-miterlimit="10"/>
<path d="M34.7271 196.012L39.9577 193.312" stroke="#263238" stroke-width="0.5" stroke-miterlimit="10"/>
<path d="M32.8835 190.017C32.893 189.501 33.0342 188.992 33.2978 188.525C33.5614 188.057 33.9413 187.641 34.4125 187.305C35.4001 186.569 40.5942 184.751 41.0917 186.271C41.5964 187.925 36.3146 191.178 32.8835 190.017Z" fill="#92E3A9" stroke="#263238" stroke-miterlimit="10"/>
<path d="M32.8835 190.011L38.1215 187.311" stroke="#263238" stroke-width="0.5" stroke-miterlimit="10"/>
<path d="M33.1031 190.236C32.4856 190.177 31.8904 190.009 31.3578 189.742C30.8253 189.476 30.3676 189.117 30.0159 188.691C29.2405 187.798 27.6091 183.316 29.4819 183.067C31.5156 182.763 34.8515 187.5 33.1031 190.236Z" fill="#92E3A9" stroke="#263238" stroke-miterlimit="10"/>
<path d="M33.103 190.205L30.4182 185.597" stroke="#263238" stroke-width="0.5" stroke-miterlimit="10"/>
<path d="M23.1978 162.874V248.334" stroke="#263238" stroke-width="2" stroke-miterlimit="10"/>
<path d="M23.2782 235.48L19.8765 231.789" stroke="#263238" stroke-width="2" stroke-miterlimit="10"/>
<path d="M20.908 232.902C20.9634 232.387 20.8863 231.867 20.682 231.379C20.4777 230.89 20.1507 230.444 19.7228 230.068C18.8303 229.26 13.8704 227.028 13.2119 228.475C12.4731 230.068 17.3526 233.759 20.908 232.902Z" fill="#92E3A9" stroke="#263238" stroke-miterlimit="10"/>
<path d="M20.9079 232.896L16.3064 229.922" stroke="#263238" stroke-width="0.5" stroke-miterlimit="10"/>
<path d="M23.2782 219.422L19.8765 215.731" stroke="#263238" stroke-width="2" stroke-miterlimit="10"/>
<path d="M20.908 216.843C20.9634 216.328 20.8863 215.809 20.682 215.321C20.4777 214.832 20.1507 214.385 19.7228 214.01C18.8303 213.195 13.8704 210.939 13.2119 212.411C12.4731 214.01 17.3526 217.701 20.908 216.843Z" fill="#92E3A9" stroke="#263238" stroke-miterlimit="10"/>
<path d="M20.9079 216.837L16.3064 213.864" stroke="#263238" stroke-width="0.5" stroke-miterlimit="10"/>
<path d="M23.2782 200.566L19.8765 196.876" stroke="#263238" stroke-width="2" stroke-miterlimit="10"/>
<path d="M20.908 197.988C20.9634 197.473 20.8863 196.954 20.682 196.466C20.4777 195.977 20.1507 195.53 19.7228 195.155C18.8303 194.34 13.8704 192.115 13.2119 193.556C12.4731 195.155 17.3526 198.846 20.908 197.988Z" fill="#92E3A9" stroke="#263238" stroke-miterlimit="10"/>
<path d="M20.9079 197.982L16.3064 195.009" stroke="#263238" stroke-width="0.5" stroke-miterlimit="10"/>
<path d="M23.2782 188.017L19.8765 184.326" stroke="#263238" stroke-width="2" stroke-miterlimit="10"/>
<path d="M20.908 185.432C20.9623 184.918 20.8847 184.4 20.6805 183.913C20.4762 183.426 20.1498 182.98 19.7228 182.605C18.8303 181.79 13.8704 179.534 13.2119 181.006C12.4731 182.605 17.3526 186.296 20.908 185.432Z" fill="#92E3A9" stroke="#263238" stroke-miterlimit="10"/>
<path d="M20.9079 185.432L16.3064 182.459" stroke="#263238" stroke-width="0.5" stroke-miterlimit="10"/>
<path d="M23.2782 175.412L19.8765 171.721" stroke="#263238" stroke-width="2" stroke-miterlimit="10"/>
<path d="M20.908 172.828C20.9623 172.314 20.8847 171.796 20.6805 171.308C20.4762 170.821 20.1498 170.375 19.7228 170C18.8303 169.186 13.8704 166.93 13.2119 168.401C12.4731 170 17.3526 173.691 20.908 172.828Z" fill="#92E3A9" stroke="#263238" stroke-miterlimit="10"/>
<path d="M20.9079 172.828L16.3064 169.848" stroke="#263238" stroke-width="0.5" stroke-miterlimit="10"/>
<path d="M23.2051 240.387L26.6068 236.696" stroke="#263238" stroke-width="2" stroke-miterlimit="10"/>
<path d="M25.5681 237.802C25.5138 237.288 25.5913 236.77 25.7956 236.283C25.9999 235.796 26.3263 235.35 26.7532 234.975C27.6457 234.16 32.6057 231.904 33.2641 233.376C34.003 234.975 29.1601 238.666 25.5681 237.802Z" fill="#92E3A9" stroke="#263238" stroke-miterlimit="10"/>
<path d="M25.5681 237.802L30.4403 234.665" stroke="#263238" stroke-width="0.5" stroke-miterlimit="10"/>
<path d="M23.2051 214.843L26.6068 211.152" stroke="#263238" stroke-width="2" stroke-miterlimit="10"/>
<path d="M25.568 212.265C25.5126 211.75 25.5896 211.231 25.7939 210.742C25.9982 210.254 26.3252 209.807 26.7531 209.432C27.6456 208.617 32.6056 206.391 33.264 207.832C34.0029 209.432 29.1599 213.122 25.568 212.265Z" fill="#92E3A9" stroke="#263238" stroke-miterlimit="10"/>
<path d="M25.5681 212.259L30.4403 209.128" stroke="#263238" stroke-width="0.5" stroke-miterlimit="10"/>
<path d="M23.2051 202.238L26.6068 198.548" stroke="#263238" stroke-width="2" stroke-miterlimit="10"/>
<path d="M25.5681 199.654C25.5138 199.14 25.5913 198.622 25.7956 198.135C25.9999 197.648 26.3263 197.202 26.7532 196.827C27.6457 196.012 32.6057 193.787 33.2641 195.228C34.003 196.827 29.1601 200.518 25.5681 199.654Z" fill="#92E3A9" stroke="#263238" stroke-miterlimit="10"/>
<path d="M25.5681 199.654L30.4403 196.517" stroke="#263238" stroke-width="0.5" stroke-miterlimit="10"/>
<path d="M23.2051 185.572L26.6068 181.888" stroke="#263238" stroke-width="2" stroke-miterlimit="10"/>
<path d="M25.5681 182.994C25.5138 182.48 25.5913 181.962 25.7956 181.475C25.9999 180.987 26.3263 180.542 26.7532 180.167C27.6457 179.352 32.6057 177.096 33.2641 178.568C34.003 180.167 29.1601 183.858 25.5681 182.994Z" fill="#92E3A9" stroke="#263238" stroke-miterlimit="10"/>
<path d="M25.5681 182.994L30.4403 179.857" stroke="#263238" stroke-width="0.5" stroke-miterlimit="10"/>
<path d="M23.2051 172.475L26.6068 168.784" stroke="#263238" stroke-width="2" stroke-miterlimit="10"/>
<path d="M25.568 169.897C25.5126 169.382 25.5896 168.863 25.7939 168.374C25.9982 167.886 26.3252 167.439 26.7531 167.064C27.6456 166.249 32.6056 163.993 33.264 165.465C34.0029 167.064 29.1599 170.779 25.568 169.897Z" fill="#92E3A9" stroke="#263238" stroke-miterlimit="10"/>
<path d="M25.5681 169.891L30.4403 166.76" stroke="#263238" stroke-width="0.5" stroke-miterlimit="10"/>
<path d="M23.0003 164.09C22.9417 163.576 23.0165 163.058 23.2197 162.57C23.4229 162.083 23.7498 161.637 24.1781 161.263C25.0706 160.448 30.0306 158.223 30.6964 159.664C31.4352 161.257 26.5484 164.948 23.0003 164.09Z" fill="#92E3A9" stroke="#263238" stroke-miterlimit="10"/>
<path d="M23.0002 164.084L27.8724 160.947" stroke="#263238" stroke-width="0.5" stroke-miterlimit="10"/>
<path d="M23.2342 164.261C22.6126 164.252 22.0003 164.134 21.4378 163.914C20.8753 163.693 20.3755 163.376 19.9715 162.984C19.0936 162.163 16.9135 157.84 18.7424 157.432C20.7323 156.988 24.6388 161.415 23.2342 164.261Z" fill="#92E3A9" stroke="#263238" stroke-miterlimit="10"/>
<path d="M23.2342 164.255L19.9934 159.901" stroke="#263238" stroke-width="0.5" stroke-miterlimit="10"/>
<path d="M27.4263 270.496H16.5406L15.1726 247.64H28.787L27.4263 270.496Z" fill="#263238" stroke="#263238" stroke-miterlimit="10"/>
<path d="M73.8437 95.4919H8.42749V8.93204H89.4187V95.4919H78.1014" stroke="#263238" stroke-miterlimit="10"/>
<path d="M86.4852 12.0695H11.3684V92.3483H86.4852V12.0695Z" stroke="#263238" stroke-miterlimit="10"/>
<path d="M26.4165 34.0621C27.7459 35.0846 29.1667 36.0216 30.6669 36.8652C47.6611 46.4478 76.4846 41.9118 86.1924 55.5257" stroke="#263238" stroke-miterlimit="10"/>
<path d="M16.4088 12.4039C16.0018 15.99 16.4923 19.6073 17.8495 23.0281C19.2068 26.4489 21.4013 29.5992 24.2951 32.2806" stroke="#263238" stroke-miterlimit="10"/>
<path d="M22.8467 56.6263C31.1353 52.9781 41.8673 50.4061 47.3613 57.7937C53.7332 66.3731 24.2952 81.5071 24.2952 92.3422" stroke="#263238" stroke-miterlimit="10"/>
<path d="M11.5586 62.8404C14.3965 60.9347 17.4045 59.211 20.5568 57.6843" stroke="#263238" stroke-miterlimit="10"/>
<path d="M50.697 12.4039C50.697 12.4039 61.6192 26.5286 86.4997 22.7405" stroke="#263238" stroke-miterlimit="10"/>
<path d="M53.96 26.2732C54.0103 26.608 54.0347 26.9451 54.0331 27.2825C54.0295 29.3121 53.1325 31.2705 51.5114 32.7883C49.8902 34.3061 47.6569 35.2785 45.2326 35.522C42.8083 35.7655 40.3606 35.2634 38.351 34.1103C36.3415 32.9572 34.909 31.2328 34.3237 29.2624C33.7385 27.2919 34.0408 25.2116 35.1738 23.4137C36.3068 21.6158 38.1922 20.2245 40.4743 19.5024C42.7564 18.7802 45.2776 18.777 47.5624 19.4933C49.8471 20.2097 51.7376 21.5961 52.8773 23.3911" stroke="#263238" stroke-miterlimit="10"/>
<path d="M78.9061 38.5068C78.9018 39.2796 78.622 40.0339 78.1022 40.6746C77.5824 41.3152 76.8458 41.8135 75.9855 42.1064C75.1251 42.3994 74.1796 42.4738 73.2684 42.3204C72.3572 42.167 71.5211 41.7927 70.8657 41.2445C70.2104 40.6964 69.7651 39.9992 69.5862 39.2409C69.4073 38.4826 69.5028 37.6973 69.8606 36.984C70.2183 36.2708 70.8224 35.6617 71.5964 35.2336C72.3705 34.8056 73.2798 34.5777 74.2095 34.5789C74.8287 34.5789 75.4419 34.6807 76.0136 34.8784C76.5853 35.0761 77.1044 35.3658 77.5409 35.7309C77.9774 36.0959 78.3227 36.5291 78.557 37.0055C78.7913 37.482 78.91 37.9922 78.9061 38.5068Z" stroke="#263238" stroke-miterlimit="10"/>
<path d="M78.9719 64.8773C81.6214 65.4501 84.0931 66.4866 86.2217 67.9175" stroke="#263238" stroke-miterlimit="10"/>
<path d="M60.9537 92.4031C58.0721 90.2067 56.0556 87.3384 55.1679 84.1736C54.2802 81.0089 54.5628 77.6951 55.9787 74.666C57.3946 71.637 59.8778 69.0338 63.1032 67.1972C66.3287 65.3606 70.1461 64.3761 74.0559 64.3727C74.4364 64.3727 74.7875 64.3727 75.1752 64.3727" stroke="#263238" stroke-miterlimit="10"/>
<path d="M225.219 270.496H341.537" stroke="#263238" stroke-miterlimit="10"/>
<path d="M1.3606 270.496H219.366" stroke="#263238" stroke-miterlimit="10"/>
<path d="M254.747 14.2098H131.135V241.548H254.747V14.2098Z" fill="white"/>
<path d="M254.747 202.773H131.135V241.542H254.747V202.773Z" fill="#DEDEDE"/>
<path d="M258.459 58.9368C258.863 58.9368 259.251 58.7773 259.537 58.4934C259.823 58.2094 259.984 57.8243 259.984 57.4228V42.2645C259.984 41.863 259.823 41.4779 259.537 41.1939C259.251 40.91 258.863 40.7505 258.459 40.7505C258.363 40.7412 258.267 40.7412 258.171 40.7505V12.4222C258.171 9.83069 257.134 7.34537 255.288 5.51293C253.443 3.68049 250.939 2.65103 248.329 2.65103H139.832C138.539 2.65023 137.259 2.90238 136.064 3.39307C134.869 3.88376 133.783 4.60337 132.869 5.51078C131.954 6.41819 131.229 7.49562 130.734 8.6815C130.239 9.86738 129.984 11.1385 129.984 12.4222V241.22C129.984 243.813 131.021 246.299 132.868 248.133C134.715 249.967 137.22 250.997 139.832 250.997H248.329C250.94 250.995 253.443 249.964 255.289 248.131C257.134 246.298 258.171 243.812 258.171 241.22V102.028C258.267 102.038 258.363 102.038 258.459 102.028C258.864 102.027 259.252 101.866 259.538 101.581C259.823 101.296 259.984 100.91 259.984 100.508V85.3802C259.984 84.9787 259.823 84.5936 259.537 84.3097C259.251 84.0257 258.863 83.8662 258.459 83.8662C258.362 83.867 258.266 83.8772 258.171 83.8966V80.4673C258.266 80.4868 258.362 80.4969 258.459 80.4977C258.863 80.4961 259.25 80.3361 259.535 80.0525C259.821 79.7689 259.982 79.3848 259.984 78.9837V63.8193C259.982 63.4183 259.821 63.0341 259.535 62.7505C259.25 62.4669 258.863 62.3069 258.459 62.3053C258.362 62.3061 258.266 62.3163 258.171 62.3357V58.9003C258.266 58.9218 258.362 58.934 258.459 58.9368ZM252.469 236.258H135.686V19.5118H252.469V236.258Z" fill="#263238"/>
<path d="M248.5 21.7616H238.817V27.0332H248.5V21.7616Z" stroke="#263238" stroke-width="0.82" stroke-linecap="round" stroke-linejoin="round"/>
<path d="M246.369 21.7616H238.817V27.0332H246.369V21.7616Z" fill="#263238" stroke="#263238" stroke-width="0.73" stroke-linecap="round" stroke-linejoin="round"/>
<path d="M249.842 23.233H248.476V25.5557H249.842V23.233Z" fill="#263238" stroke="#263238" stroke-width="0.73" stroke-linecap="round" stroke-linejoin="round"/>
<path d="M140.096 23.3972H138.32V26.4191H140.096V23.3972Z" fill="#263238" stroke="#263238" stroke-width="0.88" stroke-linecap="round" stroke-linejoin="round"/>
<path d="M142.882 22.3331H141.106V26.413H142.882V22.3331Z" fill="#263238" stroke="#263238" stroke-width="0.88" stroke-linecap="round" stroke-linejoin="round"/>
<path d="M145.675 21.0806H143.899V26.4191H145.675V21.0806Z" fill="#263238" stroke="#263238" stroke-width="0.88" stroke-linecap="round" stroke-linejoin="round"/>
<path d="M249.719 29.964H137.572V59.2226H249.719V29.964Z" fill="#92E3A9"/>
<path d="M165.91 34.1776V55.6595" stroke="white" stroke-miterlimit="10"/>
<path d="M194.494 34.1776V55.6595" stroke="white" stroke-miterlimit="10"/>
<path d="M223.071 34.1776V55.6595" stroke="white" stroke-miterlimit="10"/>
<path opacity="0.15" d="M257.16 102.028C257.256 102.038 257.353 102.038 257.448 102.028C257.853 102.027 258.241 101.866 258.527 101.581C258.813 101.296 258.973 100.91 258.973 100.508V95.0784L251.459 108.23V236.258H178.35L169.904 250.997H247.312C249.924 250.997 252.429 249.967 254.276 248.133C256.123 246.3 257.16 243.813 257.16 241.22V102.028Z" fill="white"/>
<path d="M189.337 160.096V153.146H192.834V149.65H189.349C189.349 148.488 189.349 147.321 189.349 146.159H196.362V142.688H199.865V146.141H203.381V139.161H213.915V142.633H217.4V139.161H213.903V135.659H206.878V128.739H196.337V132.217H189.349V139.191H192.828V142.669H189.331V146.153H185.828V142.663H175.3V139.191H185.828V111.295H189.349C189.349 114.651 189.349 118.007 189.349 121.364V121.741H192.859V114.791H196.356V121.753H199.884V125.225H217.437V128.703H220.952V132.211H217.455V135.707H220.94V142.688H224.461V149.656H220.977V156.612H224.412V160.096H231.425V163.574H220.94V170.536H217.437V167.058H210.393V163.574H206.89V160.096H213.878V156.612H196.368V160.077H189.337V160.096ZM210.393 149.637V146.172H206.908V149.631H210.406V153.103H217.4V149.637H210.393ZM203.362 149.637H199.914V153.085H203.387L203.362 149.637ZM210.412 132.169H213.884V128.715H210.412V132.169Z" fill="#263238"/>
<path d="M157.74 121.729V97.3585H182.282V121.729H157.74ZM161.262 100.855V118.251H178.778V100.855H161.262Z" fill="#263238"/>
<path d="M231.443 121.735H206.902V97.3707H231.443V121.735ZM227.94 100.855H210.424V118.245H227.94V100.855Z" fill="#263238"/>
<path d="M157.747 146.159H182.294V170.529H157.747V146.159ZM178.784 149.656H161.262V167.051H178.784V149.656Z" fill="#263238"/>
<path d="M189.331 111.295V104.321H185.828V97.3646H203.35V104.308H199.914V107.798H203.387V114.754H199.89V111.295H196.362V107.817H192.859V111.283H189.325L189.331 111.295ZM192.853 104.296H196.331V100.855H192.853V104.296Z" fill="#263238"/>
<path d="M175.281 128.715V132.199H182.294V135.677H171.778V142.645H157.753V135.713H161.225V139.161H168.269V128.715H175.287H175.281Z" fill="#263238"/>
<path d="M189.325 160.089V163.574H192.834V167.051H196.331V170.536H185.828V160.096H189.313L189.325 160.089Z" fill="#263238"/>
<path d="M168.269 128.715H161.25V132.187H157.753V125.255H168.256V128.721L168.269 128.715Z" fill="#263238"/>
<path d="M231.443 135.677H227.964V128.727H224.461V125.249H231.443V135.677Z" fill="#263238"/>
<path d="M175.287 128.727V125.255H182.288V128.715H175.281L175.287 128.727Z" fill="#263238"/>
<path d="M224.449 142.669V139.197H227.934V142.657H224.413L224.449 142.669Z" fill="#263238"/>
<path d="M227.971 146.165H231.444V149.619H227.971V146.165Z" fill="#263238"/>
<path d="M199.865 121.753V118.281H203.356V121.741H199.859L199.865 121.753Z" fill="#263238"/>
<path d="M189.337 153.146H185.828V149.668H189.313V153.146H189.337Z" fill="#263238"/>
<path d="M224.449 156.611V153.146H227.934V156.605H224.449V156.611Z" fill="#263238"/>
<path d="M220.928 132.211H224.413V135.689H220.928V132.193V132.211Z" fill="#263238"/>
<path d="M203.356 167.051H199.877V163.604H203.356V167.051Z" fill="#263238"/>
<path d="M210.393 167.058V170.529H206.908V167.07H210.406L210.393 167.058Z" fill="#263238"/>
<path d="M231.444 170.542H227.971V167.088H231.444V170.542Z" fill="#263238"/>
<path d="M203.381 139.161H199.914V135.701H203.405V139.161H203.381Z" fill="#263238"/>
<path d="M175.263 114.76H164.765V104.339H175.263V114.76Z" fill="#263238"/>
<path d="M213.921 114.754V104.333H224.412V114.754H213.921Z" fill="#263238"/>
<path d="M164.765 163.561V153.146H175.263V163.567L164.765 163.561Z" fill="#263238"/>
<path d="M167.938 89.1014H152.571V105.932" stroke="#92E3A9" stroke-width="2" stroke-miterlimit="10"/>
<path d="M223.843 89.1014H239.209V105.932" stroke="#92E3A9" stroke-width="2" stroke-miterlimit="10"/>
<path d="M167.938 177.765H152.571V160.929" stroke="#92E3A9" stroke-width="2" stroke-miterlimit="10"/>
<path d="M223.843 177.765H239.209V160.929" stroke="#92E3A9" stroke-width="2" stroke-miterlimit="10"/>
<path d="M119.45 92.7435H113.356C112.277 92.7435 111.402 93.4704 111.402 94.367V108.552C111.402 109.449 112.277 110.176 113.356 110.176H119.45C120.528 110.176 121.403 109.449 121.403 108.552V94.367C121.403 93.4704 120.528 92.7435 119.45 92.7435Z" fill="#263238" stroke="#263238" stroke-miterlimit="10"/>
<path d="M120.517 94.2879H112.287V108.638H120.517V94.2879Z" fill="white" stroke="#263238" stroke-miterlimit="10"/>
<path d="M31.8376 178.179C34.7728 178.165 37.6455 177.472 40.1336 176.178C39.9726 180.057 39.8482 182.994 39.8482 182.994C39.8482 182.994 40.653 184.162 41.0553 184.666C41.4577 185.171 44.8741 186.837 45.2764 188.345C45.6788 189.853 47.4711 190.686 47.2882 192.856C47.1053 195.027 44.8741 192.686 45.2764 193.191C45.6788 193.696 46.8859 195.362 46.8859 196.869C46.8859 198.377 43.0671 198.371 41.6552 197.368C40.2433 196.365 35.6271 194.024 35.2248 191.853L33.6519 186.989L31.8376 178.179Z" fill="white" stroke="#263238" stroke-miterlimit="10"/>
<path d="M40.1921 190.236L41.1724 193.884C41.1724 193.884 44.3401 195.909 44.5815 197.332" fill="white"/>
<path d="M40.1921 190.236L41.1724 193.884C41.1724 193.884 44.3401 195.909 44.5815 197.332" stroke="#263238" stroke-miterlimit="10"/>
<path d="M45.2764 193.191L43.8499 190.844" stroke="#263238" stroke-miterlimit="10"/>
<path d="M56.001 267.316C56.001 267.316 54.8524 275.142 55.7449 276.096C56.2482 276.698 56.889 277.211 57.6309 277.606C58.3727 278.002 59.201 278.272 60.0685 278.401C62.1022 278.614 65.5406 277.659 65.5406 277.659C67.861 278.177 70.2719 278.356 72.666 278.188C76.3238 277.872 78.7672 276.711 79.0232 275.227C79.2793 273.743 76.097 273.117 74.3193 271.53C72.5416 269.943 69.7031 267.134 69.7031 267.134L68.9716 265.079C68.9716 265.079 64.648 266.903 61.8535 266.982C60.273 267.06 58.6871 266.954 57.1422 266.666L56.001 267.316Z" fill="white" stroke="#263238" stroke-miterlimit="10"/>
<path d="M79.0234 275.245C79.0524 275.071 79.0324 274.894 78.9649 274.728C78.1236 275.02 77.0482 275.373 75.7168 275.774C71.898 276.942 69.9886 275.987 68.0866 275.987C66.1845 275.987 66.0455 277.677 60.7051 276.516C57.2156 275.756 55.9061 274.777 55.4086 274.181C55.3385 274.833 55.4538 275.489 55.7451 276.096C56.2483 276.698 56.8892 277.211 57.631 277.606C58.3729 278.002 59.2012 278.272 60.0687 278.401C62.1024 278.614 65.5407 277.659 65.5407 277.659C67.8612 278.177 70.2721 278.356 72.6661 278.188C76.3532 277.89 78.7674 276.729 79.0234 275.245Z" fill="white" stroke="#263238" stroke-miterlimit="10"/>
<path d="M49.2194 170.171C49.2194 170.171 44.0985 184.459 45.9274 194.492C47.7563 204.525 56.535 223.374 56.535 223.374C56.535 223.374 55.4377 230.366 55.4377 232.798C55.4377 235.23 52.8772 239.791 54.7061 244.655C56.535 249.519 56.535 262.288 56.535 263.2C56.535 264.112 55.8035 268.976 55.8035 268.976C55.8035 268.976 57.2666 270.8 62.7533 270.8C68.24 270.8 69.7031 267.152 69.7031 267.152C69.7031 267.152 75.1898 240.095 75.1898 235.838C75.1898 231.582 81.0423 215.773 83.237 209.389C84.7047 204.994 86.8307 200.769 89.565 196.815C91.0282 194.687 90.1869 168.955 90.1869 168.955L48.4878 165.914L49.2194 170.171Z" fill="#737373" stroke="#263238" stroke-miterlimit="10"/>
<path d="M78.0064 269.329C78.0064 269.329 83.4785 271.123 86.1487 272.181C88.8189 273.239 90.5966 273.342 90.5966 275.038C90.5966 276.735 85.7683 278.419 82.8421 278.845C79.9158 279.27 75.2046 279.161 74.6998 279.264C74.195 279.368 64.6481 280.535 63.5069 278.522C62.3657 276.51 63.6313 269.645 63.6313 269.645C68.4018 270.322 73.2857 270.215 78.0064 269.329Z" fill="white" stroke="#263238" stroke-miterlimit="10"/>
<path d="M74.6998 279.264C75.2046 279.161 79.9158 279.264 82.8421 278.845C85.7683 278.425 90.5966 276.729 90.5966 275.038C90.5985 274.816 90.559 274.594 90.4796 274.382C89.2444 274.981 87.9667 275.517 86.6535 275.987C83.0908 277.258 78.3869 278.103 71.2907 278C68.5411 277.995 65.8031 277.702 63.1411 277.13C63.1819 277.609 63.3153 278.079 63.5362 278.522C64.6481 280.535 74.1877 279.374 74.6998 279.264Z" fill="white" stroke="#263238" stroke-miterlimit="10"/>
<path d="M90.5527 171.387C90.5527 171.387 92.7474 196.012 88.358 214.557C83.9687 233.102 76.6531 258.336 76.2873 259.552C75.9215 260.768 78.8477 264.112 78.8477 264.112V268.976C78.8477 268.976 76.2873 271.104 70.4348 271.712C64.5823 272.321 62.7534 270.8 62.7534 270.8C62.7534 270.8 61.2903 262.592 61.2903 256.816C61.2903 251.039 62.7534 231.278 62.7534 231.278C62.7534 231.278 66.0454 211.213 65.6796 208.173C65.3138 205.133 64.2165 195.708 64.2165 195.708L58.364 189.932" fill="#737373"/>
<path d="M90.5527 171.387C90.5527 171.387 92.7474 196.012 88.358 214.557C83.9687 233.102 76.6531 258.336 76.2873 259.552C75.9215 260.768 78.8477 264.112 78.8477 264.112V268.976C78.8477 268.976 76.2873 271.104 70.4348 271.712C64.5823 272.321 62.7534 270.8 62.7534 270.8C62.7534 270.8 61.2903 262.592 61.2903 256.816C61.2903 251.039 62.7534 231.278 62.7534 231.278C62.7534 231.278 66.0454 211.213 65.6796 208.173C65.3138 205.133 64.2165 195.708 64.2165 195.708L58.364 189.932" stroke="#263238" stroke-miterlimit="10"/>
<path d="M29.065 166.754L40.5724 165.075C40.5212 166.37 40.8504 158.186 40.8504 157.578C40.8504 156.241 44.6692 147.85 44.6692 147.85C44.6692 147.85 47.6832 158.721 47.6832 160.059C47.6832 161.397 46.4762 171.612 48.0856 172.931C49.695 174.251 55.328 176.944 67.8012 176.61C80.2743 176.275 89.5286 175.436 91.9427 173.43C94.3569 171.423 91.5404 165.24 91.3355 164.407C91.1307 163.573 94.5544 141.666 94.5544 141.666C94.5544 141.666 108.03 153.371 116.077 151.699C124.124 150.026 120.305 123.96 120.305 123.96L120.708 116.439C120.708 116.439 123.319 110.924 123.319 110.085C123.319 109.246 120.708 103.232 120.708 103.232C120.708 103.232 119.098 102.059 118.089 104.904C117.523 106.433 117.119 107.999 116.882 109.586C116.882 109.586 114.467 111.088 114.687 113.265C114.808 114.578 115.145 115.871 115.689 117.107L110.246 131.864C110.246 131.864 104.211 126.179 103.809 125.176C103.406 124.173 103.604 120.494 98.578 118.317C93.5521 116.141 83.2883 115.977 83.2883 115.977L54.9257 116.147C54.9257 116.147 41.6478 117.12 38.6704 119.29C35.6929 121.461 26.4021 149.054 26.4021 153.231C26.4021 154.538 27.2214 158.588 28.37 163.598L29.065 166.754Z" fill="white" stroke="#263238" stroke-miterlimit="10"/>
<path d="M120.708 103.244C120.708 103.244 120.101 107.421 120.503 108.261C121.08 109.714 121.218 111.264 120.905 112.772" stroke="#263238" stroke-miterlimit="10"/>
<path d="M116.077 151.729C124.124 150.057 120.305 123.972 120.305 123.972L120.393 122.288C119.514 121.734 118.494 121.353 117.412 121.175C116.33 120.997 115.213 121.026 114.146 121.26L110.246 131.864C110.246 131.864 104.211 126.179 103.809 125.176C103.406 124.173 103.604 120.494 98.578 118.317C93.5521 116.141 83.2883 115.977 83.2883 115.977L54.9257 116.147C54.9257 116.147 41.6478 117.12 38.6704 119.29C35.6929 121.461 26.4021 149.054 26.4021 153.231C26.4021 155.712 29.3722 168.079 31.8742 178.16C34.7948 178.147 37.6537 177.46 40.1335 176.178C40.4261 168.949 40.8651 158.448 40.8651 157.578C40.8651 156.241 44.6838 147.85 44.6838 147.85C44.6838 147.85 47.6979 158.721 47.6979 160.059C47.6979 161.397 46.4908 171.612 48.1002 172.931C49.7097 174.251 55.3427 176.944 67.8158 176.61C80.2889 176.275 89.5432 175.436 91.9573 173.43C94.3715 171.423 91.555 165.24 91.3501 164.406C91.1453 163.573 94.569 141.666 94.569 141.666C94.569 141.666 108.03 153.401 116.077 151.729Z" fill="#92E3A9" stroke="#263238" stroke-miterlimit="10"/>
<path d="M40.7187 138.674L44.6692 147.88L36.5415 136.321" stroke="#263238" stroke-miterlimit="10"/>
<path d="M38.4875 133.482L39.8848 136.741" stroke="#263238" stroke-miterlimit="10"/>
<path d="M66.3455 139.331C68.1232 142.651 70.7348 146.816 73.844 149.497" stroke="#263238" stroke-miterlimit="10"/>
<path d="M63.8508 134.096C63.8508 134.096 64.3995 135.464 65.3798 137.452" stroke="#263238" stroke-miterlimit="10"/>
<path d="M68.2402 145.241C68.2402 145.241 72.6296 152.538 74.8243 153.954" stroke="#263238" stroke-miterlimit="10"/>
<path d="M101.438 136.394L103.106 135.105" stroke="#263238" stroke-miterlimit="10"/>
<path d="M98.717 134.497L94.5544 141.696L99.9241 137.556" stroke="#263238" stroke-miterlimit="10"/>
<path d="M117.738 138.553C117.496 137.136 110.246 131.834 110.246 131.834C110.246 131.834 117.738 134.297 119.691 136.528" stroke="#263238" stroke-miterlimit="10"/>
<path d="M86.1048 94.0447C86.1048 94.0447 86.5071 98.228 87.1143 98.909C87.7215 99.59 88.1166 104.758 87.1143 106.266C86.1121 107.774 85.5049 109.61 84.9197 110.109C84.3344 110.608 82.1031 110.614 81.2619 110.614C80.4206 110.614 71.4077 110.279 71.4077 110.279L71.6126 99.742C71.6126 99.742 73.8365 91.8741 86.1048 94.0447Z" fill="white" stroke="#263238" stroke-miterlimit="10"/>
<path d="M70.0177 82.3461C70.0177 82.3461 61.7657 84.5168 59.9587 90.5181C58.1518 96.5194 63.9823 103.39 63.9823 103.39C63.9823 103.39 65.5917 108.255 66.9963 109.246C68.4009 110.237 74.034 109.246 75.8482 108.911C77.6625 108.577 81.7007 99.5475 81.7007 99.5475C81.7007 99.5475 81.7007 101.718 82.9078 101.718C84.1149 101.718 83.9174 98.8786 83.9174 98.3739C83.9174 97.8693 89.5504 94.3609 89.5504 88.3474C89.5504 82.334 83.2955 79.6708 77.443 80.0052C71.5905 80.3396 70.0177 82.3461 70.0177 82.3461Z" fill="#263238" stroke="#263238" stroke-miterlimit="10"/>
<path d="M87.1143 115.612C87.1143 115.612 85.9073 112.103 85.3001 111.605C84.6929 111.106 80.8741 109.094 74.6412 108.759C68.4083 108.425 59.154 108.595 58.3493 108.929C57.5446 109.264 57.3398 112.103 57.3398 112.103C57.3398 112.103 54.7281 114.11 54.1209 115.283C53.5137 116.457 52.9138 116.949 58.5103 120.798C64.1067 124.647 67.1646 126.149 72.9952 124.975C78.8257 123.802 87.2753 116.785 87.2753 116.785L87.1143 115.612Z" fill="#92E3A9" stroke="#263238" stroke-miterlimit="10"/>
<path d="M72.7246 117.983C76.6842 116.858 80.4937 115.397 84.0931 113.623" stroke="#263238" stroke-miterlimit="10"/>
<path d="M57.3398 112.772C57.3398 112.772 60.9977 118.792 67.3988 118.792C68.2713 118.783 69.1409 118.706 69.9959 118.561" stroke="#263238" stroke-miterlimit="10"/>
</g>
</g>
<defs>
<clipPath id="clip0_340_10987">
<rect width="343" height="280" rx="40" fill="white"/>
</clipPath>
<clipPath id="clip1_340_10987">
<rect width="343" height="280" fill="white"/>
</clipPath>
</defs>
</svg>
