<svg width="18" height="18" viewBox="0 0 18 18" fill="none" xmlns="http://www.w3.org/2000/svg">
<path fill-rule="evenodd" clip-rule="evenodd" d="M9.00008 0.666016C13.6025 0.666016 17.3334 4.39694 17.3334 8.99935C17.3334 13.6017 13.6025 17.3327 9.00008 17.3327C4.39772 17.3327 0.666748 13.6017 0.666748 8.99935C0.666748 4.39694 4.39772 0.666016 9.00008 0.666016ZM9.83524 8.16602H8.16857V13.166H9.83524V8.16602ZM9.00855 4.62435C8.40097 4.62435 7.96024 5.06264 7.96024 5.65446C7.96024 6.27022 8.38936 6.70768 9.00855 6.70768C9.60366 6.70768 10.0436 6.27022 10.0436 5.66602C10.0436 5.06264 9.60366 4.62435 9.00855 4.62435Z" fill="#111111"/>
<path fill-rule="evenodd" clip-rule="evenodd" d="M9.00008 0.666016C13.6025 0.666016 17.3334 4.39694 17.3334 8.99935C17.3334 13.6017 13.6025 17.3327 9.00008 17.3327C4.39772 17.3327 0.666748 13.6017 0.666748 8.99935C0.666748 4.39694 4.39772 0.666016 9.00008 0.666016ZM9.83524 8.16602H8.16857V13.166H9.83524V8.16602ZM9.00855 4.62435C8.40097 4.62435 7.96024 5.06264 7.96024 5.65446C7.96024 6.27022 8.38936 6.70768 9.00855 6.70768C9.60366 6.70768 10.0436 6.27022 10.0436 5.66602C10.0436 5.06264 9.60366 4.62435 9.00855 4.62435Z" fill="black" fill-opacity="0.2"/>
<path fill-rule="evenodd" clip-rule="evenodd" d="M9.00008 0.666016C13.6025 0.666016 17.3334 4.39694 17.3334 8.99935C17.3334 13.6017 13.6025 17.3327 9.00008 17.3327C4.39772 17.3327 0.666748 13.6017 0.666748 8.99935C0.666748 4.39694 4.39772 0.666016 9.00008 0.666016ZM9.83524 8.16602H8.16857V13.166H9.83524V8.16602ZM9.00855 4.62435C8.40097 4.62435 7.96024 5.06264 7.96024 5.65446C7.96024 6.27022 8.38936 6.70768 9.00855 6.70768C9.60366 6.70768 10.0436 6.27022 10.0436 5.66602C10.0436 5.06264 9.60366 4.62435 9.00855 4.62435Z" fill="black" fill-opacity="0.2"/>
<path fill-rule="evenodd" clip-rule="evenodd" d="M9.00008 0.666016C13.6025 0.666016 17.3334 4.39694 17.3334 8.99935C17.3334 13.6017 13.6025 17.3327 9.00008 17.3327C4.39772 17.3327 0.666748 13.6017 0.666748 8.99935C0.666748 4.39694 4.39772 0.666016 9.00008 0.666016ZM9.83524 8.16602H8.16857V13.166H9.83524V8.16602ZM9.00855 4.62435C8.40097 4.62435 7.96024 5.06264 7.96024 5.65446C7.96024 6.27022 8.38936 6.70768 9.00855 6.70768C9.60366 6.70768 10.0436 6.27022 10.0436 5.66602C10.0436 5.06264 9.60366 4.62435 9.00855 4.62435Z" fill="black" fill-opacity="0.2"/>
</svg>
