<svg width="13" height="12" viewBox="0 0 13 12" fill="none" xmlns="http://www.w3.org/2000/svg">
<path d="M0.666504 7.33317V5.99984H5.33317V7.33317H0.666504ZM0.666504 4.6665V3.33317H7.99984V4.6665H0.666504ZM0.666504 1.99984V0.666504H7.99984V1.99984H0.666504ZM6.6665 11.3332V9.28317L10.3498 5.6165C10.4498 5.5165 10.5609 5.44428 10.6832 5.39984C10.8054 5.35539 10.9276 5.33317 11.0498 5.33317C11.1832 5.33317 11.3109 5.35817 11.4332 5.40817C11.5554 5.45817 11.6665 5.53317 11.7665 5.63317L12.3832 6.24984C12.4721 6.34984 12.5415 6.46095 12.5915 6.58317C12.6415 6.70539 12.6665 6.82761 12.6665 6.94984C12.6665 7.07206 12.6443 7.19706 12.5998 7.32484C12.5554 7.45261 12.4832 7.5665 12.3832 7.6665L8.7165 11.3332H6.6665ZM7.6665 10.3332H8.29984L10.3165 8.29984L10.0165 7.98317L9.69984 7.68317L7.6665 9.69984V10.3332ZM10.0165 7.98317L9.69984 7.68317L10.3165 8.29984L10.0165 7.98317Z" fill="black"/>
</svg>
