<svg width="44" height="44" viewBox="0 0 44 44" fill="none" xmlns="http://www.w3.org/2000/svg">
<g clip-path="url(#clip0_588_21024)">
<path d="M7.1626 37.2311V33.8465H10.2324V8.46191H40.93V33.8465H43.9998V37.2311H7.1626ZM22.5114 33.8465H28.651V32.1542H22.5114V33.8465ZM13.3021 28.7696H37.8603V11.8465H13.3021V28.7696Z" fill="#111111"/>
<path d="M7.1626 37.2311V33.8465H10.2324V8.46191H40.93V33.8465H43.9998V37.2311H7.1626ZM22.5114 33.8465H28.651V32.1542H22.5114V33.8465ZM13.3021 28.7696H37.8603V11.8465H13.3021V28.7696Z" fill="black" fill-opacity="0.2"/>
<path d="M7.1626 37.2311V33.8465H10.2324V8.46191H40.93V33.8465H43.9998V37.2311H7.1626ZM22.5114 33.8465H28.651V32.1542H22.5114V33.8465ZM13.3021 28.7696H37.8603V11.8465H13.3021V28.7696Z" fill="black" fill-opacity="0.2"/>
<path d="M7.1626 37.2311V33.8465H10.2324V8.46191H40.93V33.8465H43.9998V37.2311H7.1626ZM22.5114 33.8465H28.651V32.1542H22.5114V33.8465ZM13.3021 28.7696H37.8603V11.8465H13.3021V28.7696Z" fill="black" fill-opacity="0.2"/>
</g>
<path d="M7.16272 25.9484C6.59993 25.9484 6.11815 25.7275 5.71737 25.2856C5.3166 24.8437 5.11621 24.3125 5.11621 23.692V3.38434C5.11621 2.76383 5.3166 2.23263 5.71737 1.79075C6.11815 1.34887 6.59993 1.12793 7.16272 1.12793H17.3953C17.9581 1.12793 18.4399 1.34887 18.8406 1.79075C19.2414 2.23263 19.4418 2.76383 19.4418 3.38434V23.692C19.4418 24.3125 19.2414 24.8437 18.8406 25.2856C18.4399 25.7275 17.9581 25.9484 17.3953 25.9484H7.16272ZM7.16272 20.3074V23.692H17.3953V20.3074H7.16272ZM12.279 23.1279C12.5689 23.1279 12.8119 23.0198 13.0081 22.8036C13.2042 22.5873 13.3023 22.3194 13.3023 21.9997C13.3023 21.6801 13.2042 21.4121 13.0081 21.1959C12.8119 20.9796 12.5689 20.8715 12.279 20.8715C11.9891 20.8715 11.7461 20.9796 11.5499 21.1959C11.3538 21.4121 11.2557 21.6801 11.2557 21.9997C11.2557 22.3194 11.3538 22.5873 11.5499 22.8036C11.7461 23.0198 11.9891 23.1279 12.279 23.1279ZM7.16272 18.051H17.3953V6.76896H7.16272V18.051ZM7.16272 4.51255H17.3953V3.38434H7.16272V4.51255Z" fill="#111111"/>
<path d="M7.16272 25.9484C6.59993 25.9484 6.11815 25.7275 5.71737 25.2856C5.3166 24.8437 5.11621 24.3125 5.11621 23.692V3.38434C5.11621 2.76383 5.3166 2.23263 5.71737 1.79075C6.11815 1.34887 6.59993 1.12793 7.16272 1.12793H17.3953C17.9581 1.12793 18.4399 1.34887 18.8406 1.79075C19.2414 2.23263 19.4418 2.76383 19.4418 3.38434V23.692C19.4418 24.3125 19.2414 24.8437 18.8406 25.2856C18.4399 25.7275 17.9581 25.9484 17.3953 25.9484H7.16272ZM7.16272 20.3074V23.692H17.3953V20.3074H7.16272ZM12.279 23.1279C12.5689 23.1279 12.8119 23.0198 13.0081 22.8036C13.2042 22.5873 13.3023 22.3194 13.3023 21.9997C13.3023 21.6801 13.2042 21.4121 13.0081 21.1959C12.8119 20.9796 12.5689 20.8715 12.279 20.8715C11.9891 20.8715 11.7461 20.9796 11.5499 21.1959C11.3538 21.4121 11.2557 21.6801 11.2557 21.9997C11.2557 22.3194 11.3538 22.5873 11.5499 22.8036C11.7461 23.0198 11.9891 23.1279 12.279 23.1279ZM7.16272 18.051H17.3953V6.76896H7.16272V18.051ZM7.16272 4.51255H17.3953V3.38434H7.16272V4.51255Z" fill="black" fill-opacity="0.2"/>
<path d="M7.16272 25.9484C6.59993 25.9484 6.11815 25.7275 5.71737 25.2856C5.3166 24.8437 5.11621 24.3125 5.11621 23.692V3.38434C5.11621 2.76383 5.3166 2.23263 5.71737 1.79075C6.11815 1.34887 6.59993 1.12793 7.16272 1.12793H17.3953C17.9581 1.12793 18.4399 1.34887 18.8406 1.79075C19.2414 2.23263 19.4418 2.76383 19.4418 3.38434V23.692C19.4418 24.3125 19.2414 24.8437 18.8406 25.2856C18.4399 25.7275 17.9581 25.9484 17.3953 25.9484H7.16272ZM7.16272 20.3074V23.692H17.3953V20.3074H7.16272ZM12.279 23.1279C12.5689 23.1279 12.8119 23.0198 13.0081 22.8036C13.2042 22.5873 13.3023 22.3194 13.3023 21.9997C13.3023 21.6801 13.2042 21.4121 13.0081 21.1959C12.8119 20.9796 12.5689 20.8715 12.279 20.8715C11.9891 20.8715 11.7461 20.9796 11.5499 21.1959C11.3538 21.4121 11.2557 21.6801 11.2557 21.9997C11.2557 22.3194 11.3538 22.5873 11.5499 22.8036C11.7461 23.0198 11.9891 23.1279 12.279 23.1279ZM7.16272 18.051H17.3953V6.76896H7.16272V18.051ZM7.16272 4.51255H17.3953V3.38434H7.16272V4.51255Z" fill="black" fill-opacity="0.2"/>
<path d="M7.16272 25.9484C6.59993 25.9484 6.11815 25.7275 5.71737 25.2856C5.3166 24.8437 5.11621 24.3125 5.11621 23.692V3.38434C5.11621 2.76383 5.3166 2.23263 5.71737 1.79075C6.11815 1.34887 6.59993 1.12793 7.16272 1.12793H17.3953C17.9581 1.12793 18.4399 1.34887 18.8406 1.79075C19.2414 2.23263 19.4418 2.76383 19.4418 3.38434V23.692C19.4418 24.3125 19.2414 24.8437 18.8406 25.2856C18.4399 25.7275 17.9581 25.9484 17.3953 25.9484H7.16272ZM7.16272 20.3074V23.692H17.3953V20.3074H7.16272ZM12.279 23.1279C12.5689 23.1279 12.8119 23.0198 13.0081 22.8036C13.2042 22.5873 13.3023 22.3194 13.3023 21.9997C13.3023 21.6801 13.2042 21.4121 13.0081 21.1959C12.8119 20.9796 12.5689 20.8715 12.279 20.8715C11.9891 20.8715 11.7461 20.9796 11.5499 21.1959C11.3538 21.4121 11.2557 21.6801 11.2557 21.9997C11.2557 22.3194 11.3538 22.5873 11.5499 22.8036C11.7461 23.0198 11.9891 23.1279 12.279 23.1279ZM7.16272 18.051H17.3953V6.76896H7.16272V18.051ZM7.16272 4.51255H17.3953V3.38434H7.16272V4.51255Z" fill="black" fill-opacity="0.2"/>
<defs>
<clipPath id="clip0_588_21024">
<rect width="36.8372" height="40.6154" fill="white" transform="translate(7.1626 3.38477)"/>
</clipPath>
</defs>
</svg>
