<svg width="25" height="24" viewBox="0 0 25 24" fill="none" xmlns="http://www.w3.org/2000/svg">
<path d="M8.5 2C8.76522 2 9.01957 2.10536 9.20711 2.29289C9.39464 2.48043 9.5 2.73478 9.5 3C9.5 3.26522 9.39464 3.51957 9.20711 3.70711C9.01957 3.89464 8.76522 4 8.5 4H4.5V8C4.5 8.26522 4.39464 8.51957 4.20711 8.70711C4.01957 8.89464 3.76522 9 3.5 9C3.23478 9 2.98043 8.89464 2.79289 8.70711C2.60536 8.51957 2.5 8.26522 2.5 8V3C2.5 2.73478 2.60536 2.48043 2.79289 2.29289C2.98043 2.10536 3.23478 2 3.5 2H8.5ZM8.5 20H4.5V16C4.5 15.7348 4.39464 15.4804 4.20711 15.2929C4.01957 15.1054 3.76522 15 3.5 15C3.23478 15 2.98043 15.1054 2.79289 15.2929C2.60536 15.4804 2.5 15.7348 2.5 16V21C2.5 21.2652 2.60536 21.5196 2.79289 21.7071C2.98043 21.8946 3.23478 22 3.5 22H8.5C8.76522 22 9.01957 21.8946 9.20711 21.7071C9.39464 21.5196 9.5 21.2652 9.5 21C9.5 20.7348 9.39464 20.4804 9.20711 20.2929C9.01957 20.1054 8.76522 20 8.5 20ZM21.5 15C21.2348 15 20.9804 15.1054 20.7929 15.2929C20.6054 15.4804 20.5 15.7348 20.5 16V20H16.5C16.2348 20 15.9804 20.1054 15.7929 20.2929C15.6054 20.4804 15.5 20.7348 15.5 21C15.5 21.2652 15.6054 21.5196 15.7929 21.7071C15.9804 21.8946 16.2348 22 16.5 22H21.5C21.7652 22 22.0196 21.8946 22.2071 21.7071C22.3946 21.5196 22.5 21.2652 22.5 21V16C22.5 15.7348 22.3946 15.4804 22.2071 15.2929C22.0196 15.1054 21.7652 15 21.5 15ZM21.5 9C21.7652 9 22.0196 8.89464 22.2071 8.70711C22.3946 8.51957 22.5 8.26522 22.5 8V3C22.5 2.73478 22.3946 2.48043 22.2071 2.29289C22.0196 2.10536 21.7652 2 21.5 2H16.5C16.2348 2 15.9804 2.10536 15.7929 2.29289C15.6054 2.48043 15.5 2.73478 15.5 3C15.5 3.26522 15.6054 3.51957 15.7929 3.70711C15.9804 3.89464 16.2348 4 16.5 4H20.5V8C20.5 8.26522 20.6054 8.51957 20.7929 8.70711C20.9804 8.89464 21.2348 9 21.5 9ZM22.5 11H2.5C2.23478 11 1.98043 11.1054 1.79289 11.2929C1.60536 11.4804 1.5 11.7348 1.5 12C1.5 12.2652 1.60536 12.5196 1.79289 12.7071C1.98043 12.8946 2.23478 13 2.5 13H22.5C22.7652 13 23.0196 12.8946 23.2071 12.7071C23.3946 12.5196 23.5 12.2652 23.5 12C23.5 11.7348 23.3946 11.4804 23.2071 11.2929C23.0196 11.1054 22.7652 11 22.5 11Z" fill="#414141"/>
</svg>
