<svg width="25" height="25" viewBox="0 0 25 25" fill="none" xmlns="http://www.w3.org/2000/svg">
<path d="M3.16667 24.5C2.43333 24.5 1.80556 24.2389 1.28333 23.7167C0.761111 23.1944 0.5 22.5667 0.5 21.8333V16.5H3.16667V21.8333H8.5V24.5H3.16667ZM16.5 24.5V21.8333H21.8333V16.5H24.5V21.8333C24.5 22.5667 24.2389 23.1944 23.7167 23.7167C23.1944 24.2389 22.5667 24.5 21.8333 24.5H16.5ZM0.5 8.5V3.16667C0.5 2.43333 0.761111 1.80556 1.28333 1.28333C1.80556 0.761111 2.43333 0.5 3.16667 0.5H8.5V3.16667H3.16667V8.5H0.5ZM21.8333 8.5V3.16667H16.5V0.5H21.8333C22.5667 0.5 23.1944 0.761111 23.7167 1.28333C24.2389 1.80556 24.5 2.43333 24.5 3.16667V8.5H21.8333ZM12.5 16.5C11.3889 16.5 10.4444 16.1111 9.66667 15.3333C8.88889 14.5556 8.5 13.6111 8.5 12.5C8.5 11.3889 8.88889 10.4444 9.66667 9.66667C10.4444 8.88889 11.3889 8.5 12.5 8.5C13.6111 8.5 14.5556 8.88889 15.3333 9.66667C16.1111 10.4444 16.5 11.3889 16.5 12.5C16.5 13.6111 16.1111 14.5556 15.3333 15.3333C14.5556 16.1111 13.6111 16.5 12.5 16.5Z" fill="black"/>
</svg>
