<svg width="17" height="16" viewBox="0 0 17 16" fill="none" xmlns="http://www.w3.org/2000/svg">
<path d="M15.1668 4.00008V12.0001C15.1668 12.3667 15.0363 12.6806 14.7752 12.9417C14.5141 13.2029 14.2002 13.3334 13.8335 13.3334H3.16683C2.80016 13.3334 2.48627 13.2029 2.22516 12.9417C1.96405 12.6806 1.8335 12.3667 1.8335 12.0001L1.8335 4.00008C1.8335 3.63341 1.96405 3.31953 2.22516 3.05841C2.48627 2.7973 2.80016 2.66675 3.16683 2.66675L13.8335 2.66675C14.2002 2.66675 14.5141 2.7973 14.7752 3.05841C15.0363 3.31953 15.1668 3.63341 15.1668 4.00008ZM3.16683 5.33341L13.8335 5.33341V4.00008L3.16683 4.00008V5.33341ZM3.16683 8.00008L3.16683 12.0001H13.8335V8.00008H3.16683Z" fill="#B9F0DF"/>
</svg>
