<svg width="24" height="24" viewBox="0 0 24 24" fill="none" xmlns="http://www.w3.org/2000/svg">
<path d="M9.01822 2.5215C4.60483 2.52147 1.00366 6.12268 1.00366 10.5361C1.00366 12.3721 1.59602 14.1195 2.69969 15.4774L1.03496 20.186C0.971885 20.3667 0.961901 20.5617 1.00619 20.7479C1.05048 20.9341 1.1472 21.1037 1.28488 21.2367C1.42257 21.3696 1.59546 21.4604 1.7831 21.4981C1.97074 21.5359 2.16527 21.5191 2.34366 21.4497L7.3711 19.4896C7.3783 19.4871 7.38547 19.4845 7.39261 19.4818L9.66181 18.5506H14.032C14.0372 18.5507 14.0424 18.5507 14.0476 18.5506H15.0453C19.4587 18.5507 23.0598 14.9494 23.0598 10.5361C23.0598 6.12269 19.4587 2.52148 15.0453 2.52151H14.0476C14.0424 2.52147 14.0372 2.52147 14.032 2.52151H10.0237L9.01822 2.5215ZM9.01822 4.52661H10.0237H14.032C14.0372 4.52665 14.0424 4.52665 14.0476 4.52661H15.0453C18.3761 4.52657 21.0567 7.20525 21.0567 10.5361C21.0567 13.8669 18.3761 16.5475 15.0453 16.5475H14.073C14.0594 16.5472 14.0457 16.5472 14.032 16.5475H9.46228C9.3328 16.5476 9.20459 16.5729 9.08473 16.6218L6.63752 17.6273L3.64453 18.7951L4.75957 15.6457C4.81095 15.507 4.83099 15.3587 4.81826 15.2114C4.81826 15.2107 4.81826 15.21 4.81826 15.2094C4.81257 14.958 4.71274 14.7178 4.53852 14.5365C3.57213 13.5341 3.00877 12.1045 3.00877 10.5361C3.00877 7.20525 5.68743 4.52657 9.01822 4.52661ZM9.01235 7.01098C8.87893 7.00799 8.74625 7.03168 8.62212 7.08067C8.49798 7.12966 8.38488 7.20295 8.28946 7.29625C8.19404 7.38955 8.11822 7.50098 8.06646 7.62399C8.0147 7.74699 7.98804 7.8791 7.98804 8.01256C7.98804 8.14601 8.0147 8.27812 8.06646 8.40113C8.11822 8.52414 8.19404 8.63556 8.28946 8.72886C8.38488 8.82216 8.49798 8.89546 8.62212 8.94445C8.74625 8.99344 8.87893 9.01713 9.01235 9.01413H15.0238C15.1572 9.01713 15.2898 8.99344 15.414 8.94445C15.5381 8.89546 15.6512 8.82216 15.7466 8.72886C15.8421 8.63556 15.9179 8.52414 15.9696 8.40113C16.0214 8.27812 16.0481 8.14601 16.0481 8.01256C16.0481 7.8791 16.0214 7.74699 15.9696 7.62399C15.9179 7.50098 15.8421 7.38955 15.7466 7.29625C15.6512 7.20295 15.5381 7.12966 15.414 7.08067C15.2898 7.03168 15.1572 7.00799 15.0238 7.01098H9.01235ZM8.9165 11.0173C8.6506 11.03 8.40065 11.1478 8.22162 11.3448C8.04259 11.5418 7.94916 11.8019 7.96187 12.0678C7.97458 12.3337 8.0924 12.5836 8.2894 12.7626C8.4864 12.9417 8.74646 13.0351 9.01235 13.0224H15.0238C15.2896 13.0224 15.5447 12.9168 15.7327 12.7287C15.9207 12.5407 16.0263 12.2857 16.0263 12.0198C16.0263 11.7539 15.9207 11.4989 15.7327 11.3109C15.5447 11.1229 15.2896 11.0173 15.0238 11.0173H9.01235C8.98042 11.0158 8.94843 11.0158 8.9165 11.0173Z" fill="#414141"/>
</svg>
