<svg width="45" height="44" viewBox="0 0 45 44" fill="none" xmlns="http://www.w3.org/2000/svg">
<path d="M8.43823 14.6672C8.18102 14.6643 7.9273 14.6073 7.69357 14.4999C7.45983 14.3925 7.25131 14.2371 7.08156 14.0439L4.6249 11.2939C4.32857 10.926 4.1857 10.4579 4.22606 9.98724C4.26642 9.51657 4.4869 9.07965 4.84154 8.76757C5.19617 8.4555 5.65758 8.29235 6.12956 8.31216C6.60154 8.33197 7.04766 8.5332 7.3749 8.87389L8.43823 10.0839L11.9582 6.12389C12.2855 5.7832 12.7316 5.58197 13.2036 5.56216C13.6755 5.54235 14.137 5.7055 14.4916 6.01757C14.8462 6.32965 15.0667 6.76657 15.1071 7.23724C15.1474 7.70791 15.0046 8.17599 14.7082 8.54389L9.81323 14.0439C9.64143 14.2394 9.42995 14.3962 9.19287 14.5037C8.95579 14.6111 8.69853 14.6669 8.43823 14.6672ZM9.81323 25.0439L14.7082 19.5439C15.0046 19.176 15.1474 18.7079 15.1071 18.2372C15.0667 17.7666 14.8462 17.3296 14.4916 17.0176C14.137 16.7055 13.6755 16.5424 13.2036 16.5622C12.7316 16.582 12.2855 16.7832 11.9582 17.1239L8.43823 21.0839L7.3749 19.8739C7.21965 19.6811 7.027 19.5218 6.80853 19.4055C6.59007 19.2893 6.35032 19.2184 6.10374 19.1973C5.85716 19.1761 5.60886 19.2051 5.37378 19.2825C5.13871 19.3599 4.92174 19.4841 4.73595 19.6476C4.55016 19.8111 4.3994 20.0105 4.29274 20.2338C4.18609 20.4572 4.12576 20.6998 4.11538 20.947C4.105 21.1943 4.1448 21.4411 4.23237 21.6726C4.31993 21.9041 4.45346 22.1154 4.6249 22.2939L7.08156 25.0439C7.25131 25.2371 7.45983 25.3925 7.69357 25.4999C7.9273 25.6073 8.18102 25.6643 8.43823 25.6672C8.69853 25.6669 8.95579 25.6111 9.19287 25.5037C9.42995 25.3962 9.64143 25.2394 9.81323 25.0439ZM9.81323 36.0439L14.7082 30.5439C15.0046 30.176 15.1474 29.7079 15.1071 29.2372C15.0667 28.7666 14.8462 28.3296 14.4916 28.0176C14.137 27.7055 13.6755 27.5424 13.2036 27.5622C12.7316 27.582 12.2855 27.7832 11.9582 28.1239L8.43823 32.0839L7.3749 30.8739C7.21965 30.6811 7.027 30.5218 6.80853 30.4055C6.59007 30.2893 6.35032 30.2184 6.10374 30.1973C5.85716 30.1761 5.60886 30.2051 5.37378 30.2825C5.13871 30.3599 4.92174 30.4841 4.73595 30.6476C4.55016 30.8111 4.3994 31.0105 4.29274 31.2338C4.18609 31.4572 4.12576 31.6998 4.11538 31.947C4.105 32.1943 4.1448 32.4411 4.23237 32.6726C4.31993 32.9041 4.45346 33.1154 4.6249 33.2939L7.08156 36.0439C7.25131 36.2371 7.45983 36.3925 7.69357 36.4999C7.9273 36.6073 8.18102 36.6643 8.43823 36.6672C8.69853 36.6669 8.95579 36.6111 9.19287 36.5037C9.42995 36.3962 9.64143 36.2394 9.81323 36.0439Z" fill="#4E655E"/>
<path d="M39.0002 34.8327H20.6668C20.1806 34.8327 19.7143 34.6395 19.3705 34.2957C19.0267 33.9519 18.8335 33.4856 18.8335 32.9993C18.8335 32.5131 19.0267 32.0468 19.3705 31.703C19.7143 31.3592 20.1806 31.166 20.6668 31.166H39.0002C39.4864 31.166 39.9527 31.3592 40.2965 31.703C40.6403 32.0468 40.8335 32.5131 40.8335 32.9993C40.8335 33.4856 40.6403 33.9519 40.2965 34.2957C39.9527 34.6395 39.4864 34.8327 39.0002 34.8327ZM39.0002 23.8327H20.6668C20.1806 23.8327 19.7143 23.6395 19.3705 23.2957C19.0267 22.9519 18.8335 22.4856 18.8335 21.9993C18.8335 21.5131 19.0267 21.0468 19.3705 20.703C19.7143 20.3592 20.1806 20.166 20.6668 20.166H39.0002C39.4864 20.166 39.9527 20.3592 40.2965 20.703C40.6403 21.0468 40.8335 21.5131 40.8335 21.9993C40.8335 22.4856 40.6403 22.9519 40.2965 23.2957C39.9527 23.6395 39.4864 23.8327 39.0002 23.8327ZM39.0002 12.8327H20.6668C20.1806 12.8327 19.7143 12.6395 19.3705 12.2957C19.0267 11.9519 18.8335 11.4856 18.8335 10.9993C18.8335 10.5131 19.0267 10.0468 19.3705 9.70299C19.7143 9.35917 20.1806 9.16602 20.6668 9.16602H39.0002C39.4864 9.16602 39.9527 9.35917 40.2965 9.70299C40.6403 10.0468 40.8335 10.5131 40.8335 10.9993C40.8335 11.4856 40.6403 11.9519 40.2965 12.2957C39.9527 12.6395 39.4864 12.8327 39.0002 12.8327Z" fill="#F8FEFC"/>
</svg>
