<svg width="45" height="44" viewBox="0 0 45 44" fill="none" xmlns="http://www.w3.org/2000/svg">
<path d="M20.7125 38.5V34.5583C19.0931 34.1917 17.6952 33.4889 16.5188 32.45C15.3424 31.4111 14.4792 29.9444 13.9292 28.05L17.3209 26.675C17.7792 28.1417 18.4591 29.2569 19.3604 30.0208C20.2618 30.7847 21.4459 31.1667 22.9125 31.1667C24.1653 31.1667 25.2271 30.884 26.0979 30.3188C26.9688 29.7535 27.4042 28.875 27.4042 27.6833C27.4042 26.6139 27.0681 25.766 26.3959 25.1396C25.7236 24.5132 24.1653 23.8028 21.7209 23.0083C19.0931 22.1833 17.2903 21.1979 16.3125 20.0521C15.3348 18.9063 14.8459 17.5083 14.8459 15.8583C14.8459 13.8722 15.4875 12.3292 16.7709 11.2292C18.0542 10.1292 19.3681 9.50278 20.7125 9.35V5.5H24.3792V9.35C25.907 9.59444 27.1674 10.1521 28.1604 11.0229C29.1535 11.8938 29.8792 12.9556 30.3375 14.2083L26.9459 15.675C26.5792 14.6972 26.0598 13.9639 25.3875 13.475C24.7153 12.9861 23.7986 12.7417 22.6375 12.7417C21.2931 12.7417 20.2695 13.0396 19.5667 13.6354C18.8639 14.2313 18.5125 14.9722 18.5125 15.8583C18.5125 16.8667 18.9709 17.6611 19.8875 18.2417C20.8042 18.8222 22.3931 19.4333 24.6542 20.075C26.7625 20.6861 28.3591 21.6563 29.4438 22.9854C30.5285 24.3146 31.0709 25.85 31.0709 27.5917C31.0709 29.7611 30.4292 31.4111 29.1459 32.5417C27.8625 33.6722 26.2736 34.375 24.3792 34.65V38.5H20.7125Z" fill="#111111"/>
<path d="M20.7125 38.5V34.5583C19.0931 34.1917 17.6952 33.4889 16.5188 32.45C15.3424 31.4111 14.4792 29.9444 13.9292 28.05L17.3209 26.675C17.7792 28.1417 18.4591 29.2569 19.3604 30.0208C20.2618 30.7847 21.4459 31.1667 22.9125 31.1667C24.1653 31.1667 25.2271 30.884 26.0979 30.3188C26.9688 29.7535 27.4042 28.875 27.4042 27.6833C27.4042 26.6139 27.0681 25.766 26.3959 25.1396C25.7236 24.5132 24.1653 23.8028 21.7209 23.0083C19.0931 22.1833 17.2903 21.1979 16.3125 20.0521C15.3348 18.9063 14.8459 17.5083 14.8459 15.8583C14.8459 13.8722 15.4875 12.3292 16.7709 11.2292C18.0542 10.1292 19.3681 9.50278 20.7125 9.35V5.5H24.3792V9.35C25.907 9.59444 27.1674 10.1521 28.1604 11.0229C29.1535 11.8938 29.8792 12.9556 30.3375 14.2083L26.9459 15.675C26.5792 14.6972 26.0598 13.9639 25.3875 13.475C24.7153 12.9861 23.7986 12.7417 22.6375 12.7417C21.2931 12.7417 20.2695 13.0396 19.5667 13.6354C18.8639 14.2313 18.5125 14.9722 18.5125 15.8583C18.5125 16.8667 18.9709 17.6611 19.8875 18.2417C20.8042 18.8222 22.3931 19.4333 24.6542 20.075C26.7625 20.6861 28.3591 21.6563 29.4438 22.9854C30.5285 24.3146 31.0709 25.85 31.0709 27.5917C31.0709 29.7611 30.4292 31.4111 29.1459 32.5417C27.8625 33.6722 26.2736 34.375 24.3792 34.65V38.5H20.7125Z" fill="black" fill-opacity="0.2"/>
<path d="M20.7125 38.5V34.5583C19.0931 34.1917 17.6952 33.4889 16.5188 32.45C15.3424 31.4111 14.4792 29.9444 13.9292 28.05L17.3209 26.675C17.7792 28.1417 18.4591 29.2569 19.3604 30.0208C20.2618 30.7847 21.4459 31.1667 22.9125 31.1667C24.1653 31.1667 25.2271 30.884 26.0979 30.3188C26.9688 29.7535 27.4042 28.875 27.4042 27.6833C27.4042 26.6139 27.0681 25.766 26.3959 25.1396C25.7236 24.5132 24.1653 23.8028 21.7209 23.0083C19.0931 22.1833 17.2903 21.1979 16.3125 20.0521C15.3348 18.9063 14.8459 17.5083 14.8459 15.8583C14.8459 13.8722 15.4875 12.3292 16.7709 11.2292C18.0542 10.1292 19.3681 9.50278 20.7125 9.35V5.5H24.3792V9.35C25.907 9.59444 27.1674 10.1521 28.1604 11.0229C29.1535 11.8938 29.8792 12.9556 30.3375 14.2083L26.9459 15.675C26.5792 14.6972 26.0598 13.9639 25.3875 13.475C24.7153 12.9861 23.7986 12.7417 22.6375 12.7417C21.2931 12.7417 20.2695 13.0396 19.5667 13.6354C18.8639 14.2313 18.5125 14.9722 18.5125 15.8583C18.5125 16.8667 18.9709 17.6611 19.8875 18.2417C20.8042 18.8222 22.3931 19.4333 24.6542 20.075C26.7625 20.6861 28.3591 21.6563 29.4438 22.9854C30.5285 24.3146 31.0709 25.85 31.0709 27.5917C31.0709 29.7611 30.4292 31.4111 29.1459 32.5417C27.8625 33.6722 26.2736 34.375 24.3792 34.65V38.5H20.7125Z" fill="black" fill-opacity="0.2"/>
<path d="M20.7125 38.5V34.5583C19.0931 34.1917 17.6952 33.4889 16.5188 32.45C15.3424 31.4111 14.4792 29.9444 13.9292 28.05L17.3209 26.675C17.7792 28.1417 18.4591 29.2569 19.3604 30.0208C20.2618 30.7847 21.4459 31.1667 22.9125 31.1667C24.1653 31.1667 25.2271 30.884 26.0979 30.3188C26.9688 29.7535 27.4042 28.875 27.4042 27.6833C27.4042 26.6139 27.0681 25.766 26.3959 25.1396C25.7236 24.5132 24.1653 23.8028 21.7209 23.0083C19.0931 22.1833 17.2903 21.1979 16.3125 20.0521C15.3348 18.9063 14.8459 17.5083 14.8459 15.8583C14.8459 13.8722 15.4875 12.3292 16.7709 11.2292C18.0542 10.1292 19.3681 9.50278 20.7125 9.35V5.5H24.3792V9.35C25.907 9.59444 27.1674 10.1521 28.1604 11.0229C29.1535 11.8938 29.8792 12.9556 30.3375 14.2083L26.9459 15.675C26.5792 14.6972 26.0598 13.9639 25.3875 13.475C24.7153 12.9861 23.7986 12.7417 22.6375 12.7417C21.2931 12.7417 20.2695 13.0396 19.5667 13.6354C18.8639 14.2313 18.5125 14.9722 18.5125 15.8583C18.5125 16.8667 18.9709 17.6611 19.8875 18.2417C20.8042 18.8222 22.3931 19.4333 24.6542 20.075C26.7625 20.6861 28.3591 21.6563 29.4438 22.9854C30.5285 24.3146 31.0709 25.85 31.0709 27.5917C31.0709 29.7611 30.4292 31.4111 29.1459 32.5417C27.8625 33.6722 26.2736 34.375 24.3792 34.65V38.5H20.7125Z" fill="black" fill-opacity="0.2"/>
</svg>
