<svg width="20" height="20" viewBox="0 0 20 20" fill="none" xmlns="http://www.w3.org/2000/svg">
<path fill-rule="evenodd" clip-rule="evenodd" d="M12.0909 2.72961C11.1345 3.28662 9.37259 4.33185 8.06005 5.2211C7.15572 5.83394 6.46348 6.40543 6.27199 6.71617C5.79169 7.49588 4.46498 10.3154 4.36125 11.6293C4.3108 12.2675 4.55229 12.6739 4.86662 12.8408C5.25035 13.0445 5.59483 13.0969 5.92154 13.0371C6.15348 12.9947 6.38378 12.8918 6.61542 12.7135C6.82826 13.0923 7.11811 13.4221 7.46363 13.6818H2.48766C2.14408 13.6818 1.86572 13.9602 1.86572 14.3036V17.4132C1.86572 17.908 2.06229 18.3824 2.41214 18.7324C2.76199 19.0823 3.23662 19.2789 3.73139 19.2789C6.33319 19.2789 12.3236 19.2789 14.9254 19.2789C15.4202 19.2789 15.8948 19.0823 16.2447 18.7324C16.5945 18.3824 16.7911 17.908 16.7911 17.4132V14.3036C16.7911 13.9602 16.5127 13.6818 16.1692 13.6818H11.1935C11.9489 13.1142 12.4378 12.2109 12.4378 11.1942C12.4378 10.675 12.3104 10.1853 12.085 9.75483C12.2051 9.73588 12.3271 9.71319 12.4505 9.68408C13.3474 9.47244 14.172 8.75379 14.8151 7.93617C15.2683 7.36005 15.6333 6.74423 15.8812 6.282C16.0969 6.36364 16.3487 6.32095 16.5268 6.15408L17.8383 4.92513C17.9636 4.80767 18.0348 4.64334 18.0348 4.4714C18.0348 4.29946 17.9636 4.13513 17.8383 4.01767L14.3941 0.790205C14.1548 0.566026 13.7827 0.566026 13.5435 0.790205L12.2321 2.01901C12.1066 2.13662 12.0354 2.30095 12.0354 2.47289C12.0354 2.56244 12.0548 2.64976 12.0909 2.72961ZM5.59707 14.9256H3.10945C3.10945 14.9256 3.10945 17.413 3.10945 17.4132C3.10945 17.5781 3.17498 17.7363 3.29169 17.8529C3.40826 17.9695 3.56647 18.035 3.73139 18.035H14.9254C15.0904 18.035 15.2486 17.9695 15.3651 17.8529C15.4818 17.7363 15.5474 17.5781 15.5474 17.4132V14.9256H13.0598V15.2311C13.0598 15.6448 12.8954 16.0417 12.6027 16.3342C12.3102 16.6269 11.9133 16.7912 11.4996 16.7912C10.3265 16.7912 8.33035 16.7912 7.15722 16.7912C6.74348 16.7912 6.34662 16.6269 6.05408 16.3342C5.76139 16.0417 5.59707 15.6448 5.59707 15.2311V14.9256ZM6.8408 14.9256H11.816V15.2311C11.816 15.315 11.7826 15.3954 11.7233 15.4548C11.6639 15.5141 11.5835 15.5475 11.4996 15.5475H7.15722C7.07333 15.5475 6.99289 15.5141 6.93348 15.4548C6.87423 15.3954 6.8408 15.315 6.8408 15.2311V14.9256ZM10.7741 10.0156C10.6833 10.0695 10.6002 10.1432 10.5275 10.2469C10.0148 10.9781 9.35871 11.3807 8.90438 11.5439C8.61423 11.6481 8.37378 11.6607 8.22975 11.6381C8.00289 11.6027 7.81468 11.529 7.66154 11.4275C7.61274 11.5038 7.56498 11.5771 7.51811 11.6475C7.72065 12.4586 8.45498 13.0599 9.32841 13.0599C10.3581 13.0599 11.1941 12.2239 11.1941 11.1942C11.1941 10.7474 11.0365 10.3371 10.7741 10.0156ZM12.996 3.64244C12.1624 4.12408 10.1883 5.28155 8.75781 6.2508C8.05453 6.72737 7.47975 7.12692 7.33095 7.36871C6.95169 7.98423 5.97513 10.0042 5.67453 11.2939C5.63333 11.4712 5.59707 11.7904 5.69751 11.8136C5.88393 11.8571 6.02751 11.5902 6.2296 11.3265C6.55378 10.903 6.91886 10.2921 7.38811 9.49289C7.41125 9.44991 8.07856 8.31408 8.44826 7.70229C8.61289 7.43005 8.92408 7.17543 9.29975 6.97931C9.74139 6.74871 10.269 6.58677 10.585 6.50752C10.9178 6.42393 11.256 6.62632 11.3396 6.95916C11.4232 7.29214 11.2208 7.6302 10.8878 7.71379C10.6393 7.77617 10.223 7.90035 9.87542 8.08185C9.72468 8.16065 9.57886 8.23647 9.51274 8.34573C9.15408 8.93901 8.53513 9.99408 8.52169 10.016C8.44886 10.1342 8.39841 10.2463 8.38125 10.3501C8.37901 10.3638 8.37826 10.3829 8.37811 10.3986L8.3805 10.3992C8.48707 10.3529 9.14572 10.0512 9.50916 9.53289C9.88229 9.00065 10.3517 8.7808 10.8954 8.66931C11.2805 8.59035 11.7129 8.5802 12.165 8.47349C12.8123 8.3208 13.3733 7.75737 13.8375 7.16722C14.3317 6.53871 14.7078 5.85722 14.9169 5.44244L12.996 3.64244ZM16.1017 4.84797L16.5035 4.4714L13.9689 2.09617L13.5669 2.47289L16.0901 4.83722C16.0939 4.8408 16.0978 4.84438 16.1017 4.84797Z" fill="#B9F0DF"/>
</svg>
