<svg width="24" height="24" viewBox="0 0 24 24" fill="none" xmlns="http://www.w3.org/2000/svg">
<path fill-rule="evenodd" clip-rule="evenodd" d="M21.5858 3.30368H13.9882V1.51343L1.5 3.44093V20.3362L13.9882 22.4872V19.8337H21.5858C21.8158 19.8453 22.0412 19.7654 22.2125 19.6114C22.3839 19.4573 22.4872 19.2417 22.5 19.0117V4.12493C22.487 3.89502 22.3836 3.6796 22.2123 3.52572C22.041 3.37184 21.8157 3.29202 21.5858 3.30368ZM21.7057 19.1482H13.9628L13.95 17.7314H15.8153V16.0814H13.9357L13.9268 15.1064H15.8153V13.4564H13.9125L13.9035 12.4814H15.8153V10.8314H13.8975V9.85643H15.8153V8.20643H13.8975V7.23143H15.8153V5.58143H13.8975V4.08143H21.7057V19.1482Z" fill="#111111"/>
<path d="M20.1075 5.57935H16.8652V7.22935H20.1075V5.57935Z" fill="#414141"/>
<path d="M20.1075 8.20508H16.8652V9.85508H20.1075V8.20508Z" fill="#414141"/>
<path d="M20.1075 10.8308H16.8652V12.4808H20.1075V10.8308Z" fill="#414141"/>
<path d="M20.1075 13.4565H16.8652V15.1065H20.1075V13.4565Z" fill="#414141"/>
<path d="M20.1075 16.0823H16.8652V17.7323H20.1075V16.0823Z" fill="#414141"/>
<path fill-rule="evenodd" clip-rule="evenodd" d="M4.76031 8.00482L6.36981 7.91257L7.38156 10.6943L8.57706 7.79782L10.1866 7.70557L8.23206 11.6551L10.1866 15.6143L8.48481 15.4996L7.33581 12.4816L6.18606 15.3848L4.62231 15.2468L6.43881 11.7496L4.76031 8.00482Z" fill="#F8FEFC"/>
</svg>
