<svg width="17" height="16" viewBox="0 0 17 16" fill="none" xmlns="http://www.w3.org/2000/svg">
<path fill-rule="evenodd" clip-rule="evenodd" d="M10.372 1.77412C11.9148 2.23931 13.2305 3.25966 14.065 4.63812C14.1155 4.72331 14.1825 4.79764 14.2619 4.85682C14.3413 4.916 14.4317 4.95886 14.5278 4.98292C14.6239 5.00699 14.7238 5.01178 14.8218 4.99701C14.9197 4.98225 15.0138 4.94823 15.0985 4.89691C15.1832 4.8456 15.257 4.77801 15.3154 4.69804C15.3739 4.61808 15.4159 4.52732 15.4391 4.43102C15.4623 4.33471 15.4662 4.23477 15.4506 4.13695C15.4349 4.03913 15.4001 3.94539 15.348 3.86112C14.6737 2.74662 13.7375 1.81362 12.6207 1.14319C11.5039 0.472759 10.2403 0.0851747 8.93961 0.0141122C7.63896 -0.0569502 6.34063 0.190659 5.15743 0.735427C3.97422 1.28019 2.94194 2.10564 2.15026 3.14005C1.35859 4.17445 0.831474 5.38653 0.614715 6.67095C0.397957 7.95538 0.498114 9.27332 0.906482 10.5102C1.31485 11.7472 2.01908 12.8657 2.95798 13.7685C3.89688 14.6714 5.04205 15.3314 6.29399 15.6911C6.38995 15.7229 6.49134 15.7349 6.59207 15.7264C6.69279 15.718 6.79077 15.6893 6.88013 15.6421C6.96948 15.5948 7.04836 15.53 7.11203 15.4515C7.1757 15.373 7.22284 15.2824 7.25063 15.1852C7.27842 15.0881 7.28627 14.9863 7.27372 14.886C7.26118 14.7857 7.22848 14.6889 7.17761 14.6016C7.12674 14.5143 7.05874 14.4381 6.97769 14.3777C6.89665 14.3173 6.80423 14.2739 6.70599 14.2501C5.43205 13.8834 4.30059 13.1361 3.4631 12.1085C2.62562 11.0808 2.12211 9.82186 2.01999 8.50012H4.52299C4.63837 10.1246 5.11533 11.7027 5.91899 13.1191C6.01713 13.2914 6.17949 13.4178 6.37057 13.4707C6.56166 13.5236 6.76591 13.4987 6.93867 13.4014C7.11143 13.3041 7.23864 13.1424 7.29248 12.9516C7.34633 12.7607 7.32242 12.5564 7.22599 12.3831C6.54906 11.1912 6.13991 9.86617 6.02699 8.50012H6.74999C6.9489 8.50012 7.13967 8.4211 7.28032 8.28045C7.42097 8.1398 7.49999 7.94903 7.49999 7.75012C7.49999 7.55121 7.42097 7.36044 7.28032 7.21979C7.13967 7.07914 6.9489 7.00012 6.74999 7.00012H6.07999C6.33499 5.12412 7.16699 3.33512 8.49999 1.83612C9.21976 2.64088 9.80586 3.55582 10.236 4.54612C10.2728 4.6396 10.328 4.72474 10.3984 4.79646C10.4688 4.86819 10.5528 4.92505 10.6456 4.96367C10.7383 5.00228 10.8379 5.02186 10.9384 5.02125C11.0388 5.02064 11.1382 4.99985 11.2305 4.9601C11.3227 4.92036 11.4061 4.86249 11.4756 4.78991C11.5451 4.71733 11.5992 4.63153 11.6349 4.5376C11.6706 4.44368 11.6871 4.34354 11.6833 4.24313C11.6795 4.14273 11.6556 4.04411 11.613 3.95312C11.2805 3.18317 10.8643 2.45211 10.372 1.77312V1.77412ZM6.62799 1.77412C5.45399 2.12793 4.40383 2.8062 3.59848 3.73079C2.79313 4.65538 2.26537 5.78868 2.07599 7.00012H4.56999C4.797 5.11025 5.5064 3.31057 6.62999 1.77412H6.62799Z" fill="#F8FEFC"/>
<path d="M8 7.75C8 7.15326 8.23705 6.58097 8.65901 6.15901C9.08097 5.73705 9.65326 5.5 10.25 5.5H14.25C14.8467 5.5 15.419 5.73705 15.841 6.15901C16.2629 6.58097 16.5 7.15326 16.5 7.75V15.25C16.5 15.4489 16.421 15.6397 16.2803 15.7803C16.1397 15.921 15.9489 16 15.75 16C15.5511 16 15.3603 15.921 15.2197 15.7803C15.079 15.6397 15 15.4489 15 15.25V7.75C15 7.55109 14.921 7.36032 14.7803 7.21967C14.6397 7.07902 14.4489 7 14.25 7H10.25C10.0511 7 9.86032 7.07902 9.71967 7.21967C9.57902 7.36032 9.5 7.55109 9.5 7.75V15.25C9.5 15.4489 9.42098 15.6397 9.28033 15.7803C9.13968 15.921 8.94891 16 8.75 16C8.55109 16 8.36032 15.921 8.21967 15.7803C8.07902 15.6397 8 15.4489 8 15.25L8 7.75Z" fill="#F8FEFC"/>
<path d="M10.75 12C10.5511 12 10.3603 12.079 10.2197 12.2197C10.079 12.3603 10 12.5511 10 12.75V15.25C10 15.4489 10.079 15.6397 10.2197 15.7803C10.3603 15.921 10.5511 16 10.75 16C10.9489 16 11.1397 15.921 11.2803 15.7803C11.421 15.6397 11.5 15.4489 11.5 15.25V13.5H13V15.25C13 15.4489 13.079 15.6397 13.2197 15.7803C13.3603 15.921 13.5511 16 13.75 16C13.9489 16 14.1397 15.921 14.2803 15.7803C14.421 15.6397 14.5 15.4489 14.5 15.25V12.75C14.5 12.5511 14.421 12.3603 14.2803 12.2197C14.1397 12.079 13.9489 12 13.75 12H10.75ZM10.25 8.5C10.25 8.30109 10.329 8.11032 10.4697 7.96967C10.6103 7.82902 10.8011 7.75 11 7.75H11.25C11.4489 7.75 11.6397 7.82902 11.7803 7.96967C11.921 8.11032 12 8.30109 12 8.5C12 8.69891 11.921 8.88968 11.7803 9.03033C11.6397 9.17098 11.4489 9.25 11.25 9.25H11C10.8011 9.25 10.6103 9.17098 10.4697 9.03033C10.329 8.88968 10.25 8.69891 10.25 8.5ZM13.25 7.75C13.0511 7.75 12.8603 7.82902 12.7197 7.96967C12.579 8.11032 12.5 8.30109 12.5 8.5C12.5 8.69891 12.579 8.88968 12.7197 9.03033C12.8603 9.17098 13.0511 9.25 13.25 9.25H13.5C13.6989 9.25 13.8897 9.17098 14.0303 9.03033C14.171 8.88968 14.25 8.69891 14.25 8.5C14.25 8.30109 14.171 8.11032 14.0303 7.96967C13.8897 7.82902 13.6989 7.75 13.5 7.75H13.25ZM10.25 10.5C10.25 10.3011 10.329 10.1103 10.4697 9.96967C10.6103 9.82902 10.8011 9.75 11 9.75H11.25C11.4489 9.75 11.6397 9.82902 11.7803 9.96967C11.921 10.1103 12 10.3011 12 10.5C12 10.6989 11.921 10.8897 11.7803 11.0303C11.6397 11.171 11.4489 11.25 11.25 11.25H11C10.8011 11.25 10.6103 11.171 10.4697 11.0303C10.329 10.8897 10.25 10.6989 10.25 10.5ZM13.25 9.75C13.0511 9.75 12.8603 9.82902 12.7197 9.96967C12.579 10.1103 12.5 10.3011 12.5 10.5C12.5 10.6989 12.579 10.8897 12.7197 11.0303C12.8603 11.171 13.0511 11.25 13.25 11.25H13.5C13.6989 11.25 13.8897 11.171 14.0303 11.0303C14.171 10.8897 14.25 10.6989 14.25 10.5C14.25 10.3011 14.171 10.1103 14.0303 9.96967C13.8897 9.82902 13.6989 9.75 13.5 9.75H13.25Z" fill="#F8FEFC"/>
</svg>
