<svg width="14" height="14" viewBox="0 0 14 14" fill="none" xmlns="http://www.w3.org/2000/svg">
<path d="M4.33325 9.66683H12.3333V3.00016H4.33325V9.66683ZM4.33325 11.0002C3.96659 11.0002 3.6527 10.8696 3.39159 10.6085C3.13047 10.3474 2.99992 10.0335 2.99992 9.66683V1.66683C2.99992 1.30016 3.13047 0.986274 3.39159 0.725163C3.6527 0.464052 3.96659 0.333496 4.33325 0.333496H12.3333C12.6999 0.333496 13.0138 0.464052 13.2749 0.725163C13.536 0.986274 13.6666 1.30016 13.6666 1.66683V9.66683C13.6666 10.0335 13.536 10.3474 13.2749 10.6085C13.0138 10.8696 12.6999 11.0002 12.3333 11.0002H4.33325ZM1.66659 13.6668C1.29992 13.6668 0.98603 13.5363 0.724919 13.2752C0.463808 13.0141 0.333252 12.7002 0.333252 12.3335V3.00016H1.66659V12.3335H10.9999V13.6668H1.66659Z" fill="#414141"/>
</svg>
