<svg width="45" height="44" viewBox="0 0 45 44" fill="none" xmlns="http://www.w3.org/2000/svg">
<path fill-rule="evenodd" clip-rule="evenodd" d="M36.7822 34.124L36.6297 34.2967L31.1296 39.7967C31.0801 39.8463 31.0277 39.893 30.9728 39.9366L30.7505 40.0882L30.6161 40.1586L30.4566 40.225L30.2614 40.2834L30.047 40.3214L29.8937 40.3327L29.725 40.3305L29.5127 40.3057L29.2609 40.2425L29.0573 40.162L28.8785 40.066L28.7024 39.9436L28.5368 39.7967L23.0367 34.2967C22.3207 33.5808 22.3207 32.42 23.0367 31.704C23.6976 31.0431 24.7375 30.9923 25.4567 31.5515L25.6294 31.704L27.9997 34.0729L27.9998 16.5004C27.9998 15.5602 28.7076 14.7853 29.6193 14.6794L29.8332 14.667C30.8458 14.667 31.6666 15.4878 31.6666 16.5004L31.6663 34.0729L34.0369 31.704C34.6978 31.0431 35.7378 30.9923 36.457 31.5515L36.6297 31.704C37.2356 32.3098 37.3288 33.2341 36.9093 33.9379L36.7822 34.124ZM8.36999 9.70372L13.8701 4.20372L14.0754 4.02665L14.2786 3.89568L14.4862 3.7971L14.6791 3.73223L14.8461 3.69479L15.0583 3.66992H15.275L15.4867 3.69474L15.7399 3.75817L15.8388 3.79395L15.9986 3.86596L16.1211 3.93453L16.2697 4.03547L16.3866 4.13158L16.4629 4.20372L21.9631 9.70372L22.1156 9.87643C22.6282 10.5357 22.6282 11.4645 22.1156 12.1237L21.9631 12.2964L21.7903 12.449C21.1311 12.9616 20.2023 12.9616 19.543 12.449L19.3703 12.2964L16.9997 9.92758L16.9999 27.5001C16.9999 28.4403 16.2922 29.2152 15.3804 29.3211L15.1666 29.3334L14.9527 29.3211C14.111 29.2233 13.4432 28.5555 13.3455 27.7139L13.3331 27.5001L13.333 9.92758L10.9628 12.2964L10.7901 12.449C10.0708 13.0082 9.0309 12.9573 8.36999 12.2964C7.70909 11.6356 7.65825 10.5956 8.21748 9.87643L8.36999 9.70372Z" fill="#414141"/>
</svg>
