<svg width="24" height="24" viewBox="0 0 24 24" fill="none" xmlns="http://www.w3.org/2000/svg">
<g clip-path="url(#clip0_352_525)">
<path fill-rule="evenodd" clip-rule="evenodd" d="M5.46112 23.4478V7.99946H0.326953V23.4478H5.46112V23.4478ZM2.89458 5.89103C4.68441 5.89103 5.79933 4.70378 5.79933 3.22136C5.76548 1.70598 4.68441 0.552246 2.92814 0.552246C1.17159 0.552293 0.0234375 1.70603 0.0234375 3.2214C0.0234375 4.70382 1.13775 5.89107 2.86078 5.89107L2.89458 5.89103ZM8.30269 23.4478C8.30269 23.4478 8.37005 9.44893 8.30269 7.99951H13.4377V10.2399H13.4036C14.0788 9.18564 15.2952 7.63675 18.0648 7.63675C21.4438 7.63675 23.9765 9.8447 23.9765 14.5899V23.4479H18.8424V15.1834C18.8424 13.1068 18.0995 11.6898 16.241 11.6898C14.8228 11.6898 13.9777 12.6451 13.6065 13.5685C13.4707 13.8972 13.4377 14.3589 13.4377 14.8206V23.4478H8.30269Z" fill="#B9F0DF"/>
</g>
<defs>
<clipPath id="clip0_352_525">
<rect width="24" height="24" fill="white"/>
</clipPath>
</defs>
</svg>
