<svg width="12" height="8" viewBox="0 0 12 8" fill="none" xmlns="http://www.w3.org/2000/svg">
<path d="M2.66667 1.99984V0.666504H12V1.99984H2.66667ZM2.66667 4.6665V3.33317H12V4.6665H2.66667ZM2.66667 7.33317V5.99984H12V7.33317H2.66667ZM0.666667 1.99984C0.477778 1.99984 0.319444 1.93595 0.191667 1.80817C0.0638889 1.68039 0 1.52206 0 1.33317C0 1.14428 0.0638889 0.985948 0.191667 0.858171C0.319444 0.730393 0.477778 0.666504 0.666667 0.666504C0.855556 0.666504 1.01389 0.730393 1.14167 0.858171C1.26944 0.985948 1.33333 1.14428 1.33333 1.33317C1.33333 1.52206 1.26944 1.68039 1.14167 1.80817C1.01389 1.93595 0.855556 1.99984 0.666667 1.99984ZM0.666667 4.6665C0.477778 4.6665 0.319444 4.60261 0.191667 4.47484C0.0638889 4.34706 0 4.18873 0 3.99984C0 3.81095 0.0638889 3.65261 0.191667 3.52484C0.319444 3.39706 0.477778 3.33317 0.666667 3.33317C0.855556 3.33317 1.01389 3.39706 1.14167 3.52484C1.26944 3.65261 1.33333 3.81095 1.33333 3.99984C1.33333 4.18873 1.26944 4.34706 1.14167 4.47484C1.01389 4.60261 0.855556 4.6665 0.666667 4.6665ZM0.666667 7.33317C0.477778 7.33317 0.319444 7.26928 0.191667 7.1415C0.0638889 7.01373 0 6.85539 0 6.6665C0 6.47761 0.0638889 6.31928 0.191667 6.1915C0.319444 6.06373 0.477778 5.99984 0.666667 5.99984C0.855556 5.99984 1.01389 6.06373 1.14167 6.1915C1.26944 6.31928 1.33333 6.47761 1.33333 6.6665C1.33333 6.85539 1.26944 7.01373 1.14167 7.1415C1.01389 7.26928 0.855556 7.33317 0.666667 7.33317Z" fill="black"/>
</svg>
