<svg width="45" height="44" viewBox="0 0 45 44" fill="none" xmlns="http://www.w3.org/2000/svg">
<path d="M36.705 30.437V29.3044L35.7244 28.9219L34.9606 29.4746C34.8618 29.546 34.7284 29.546 34.6297 29.4745L33.869 28.922L32.8887 29.3044V30.437H33.0642V29.7079C33.0642 29.5521 33.1904 29.426 33.346 29.426C33.5017 29.426 33.6278 29.5521 33.6278 29.7079V30.437H35.9657V29.7079C35.9657 29.5521 36.092 29.426 36.2475 29.426C36.4031 29.426 36.5293 29.5521 36.5293 29.7079V30.437H36.705Z" fill="#414141"/>
<path d="M34.816 27.9703C35.3075 27.9703 35.6208 27.1232 35.6208 26.6801C35.6208 26.2361 35.2598 25.875 34.816 25.875C34.3737 25.875 34.0137 26.2361 34.0137 26.6801C34.0138 27.1232 34.3262 27.9703 34.816 27.9703Z" fill="#414141"/>
<path d="M18.8322 12.0828V10.4759C18.8322 10.3602 18.9029 10.2562 19.0105 10.2137L20.3139 9.69945C20.4037 9.66404 20.5055 9.6771 20.5836 9.73408L21.3053 10.261L22.024 9.73434C22.1022 9.67719 22.2041 9.66404 22.2941 9.69953L23.5975 10.2138C23.7051 10.2563 23.7759 10.3603 23.7759 10.476V12.0829C23.7759 12.0901 23.7742 12.0965 23.7737 12.1035C24.3522 11.4927 24.7081 10.669 24.7081 9.76312C24.7081 7.88522 23.1817 6.35742 21.3056 6.35742C19.4276 6.35742 17.8999 7.88522 17.8999 9.76312C17.8999 10.6686 18.2558 11.4919 18.8341 12.1025C18.8337 12.0957 18.8322 12.0895 18.8322 12.0828ZM21.3227 6.67608C22.0776 6.67608 22.6918 7.2901 22.6918 8.04463C22.6918 8.70996 22.2343 9.89856 21.3227 9.89856C20.4136 9.89856 19.9572 8.70996 19.9572 8.04463C19.9572 7.29002 20.5698 6.67608 21.3227 6.67608Z" fill="#414141"/>
<path d="M21.3227 9.3353C21.8144 9.3353 22.128 8.48805 22.128 8.04504C22.128 7.60126 21.7668 7.24023 21.3227 7.24023C20.8806 7.24023 20.521 7.60126 20.521 8.04504C20.521 8.48805 20.8332 9.3353 21.3227 9.3353Z" fill="#414141"/>
<path d="M36.2477 31.0004H33.3461H32.6068C32.6058 31.0004 32.605 31.0002 32.604 31.0002C33.1972 31.5012 33.9629 31.8041 34.7984 31.8041C35.6331 31.8041 36.3981 31.5012 36.9909 31C36.9895 31.0001 36.9882 31.0004 36.9868 31.0004H36.2477Z" fill="#414141"/>
<path d="M12.0118 15.5723V16.138C12.0118 16.145 12.0103 16.1517 12.0098 16.1584C12.1276 16.0341 12.2362 15.901 12.3343 15.7601L12.0249 15.5817C12.0202 15.5791 12.0163 15.5753 12.0118 15.5723Z" fill="#414141"/>
<path d="M11.448 15.8561V14.7227L10.4705 14.3359L9.70763 14.8929C9.60863 14.9652 9.47422 14.9652 9.37522 14.8929L8.61236 14.3359L7.63232 14.7227V15.856H7.80781V15.1271C7.80781 14.9714 7.93405 14.8452 8.0896 14.8452C8.2454 14.8452 8.37147 14.9714 8.37147 15.1271V15.856H10.712V15.1271C10.712 14.9714 10.8381 14.8452 10.9938 14.8452C11.1494 14.8452 11.2756 14.9714 11.2756 15.1271V15.856H11.448V15.8561Z" fill="#414141"/>
<path d="M9.56224 11.2949C9.11812 11.2949 8.75684 11.6534 8.75684 12.094C8.75684 12.539 9.07051 13.39 9.56224 13.39C10.052 13.39 10.3645 12.539 10.3645 12.094C10.3645 11.6534 10.0046 11.2949 9.56224 11.2949Z" fill="#414141"/>
<path d="M7.34961 16.4202C7.94223 16.9211 8.70708 17.224 9.5417 17.224C10.3764 17.224 11.1415 16.921 11.7341 16.4199C11.7328 16.4199 11.7315 16.4203 11.7301 16.4203H10.994H8.08979H7.35064C7.3503 16.4203 7.34995 16.4202 7.34961 16.4202Z" fill="#414141"/>
<path d="M9.57257 30.3601V29.2268L8.59203 28.8398L7.82916 29.3968C7.73007 29.4692 7.59541 29.4692 7.49641 29.3965L6.73664 28.8399L5.75635 29.2267V30.36H5.93183V29.631C5.93183 29.4753 6.05807 29.3492 6.21371 29.3492C6.36943 29.3492 6.49558 29.4754 6.49558 29.631V30.36H8.83351V29.631C8.83351 29.4753 8.95967 29.3492 9.11539 29.3492C9.27102 29.3492 9.39726 29.4754 9.39726 29.631V30.36H9.57257V30.3601Z" fill="#414141"/>
<path d="M7.68615 25.7988C7.24237 25.7988 6.88135 26.1599 6.88135 26.604C6.88135 27.0468 7.19468 27.8939 7.68615 27.8939C8.176 27.8939 8.48829 27.0469 8.48829 26.604C8.48838 26.1599 8.12847 25.7988 7.68615 25.7988Z" fill="#414141"/>
<path d="M23.2117 11.8014V10.6681L22.2314 10.2814L21.4718 10.838C21.3728 10.9107 21.2381 10.9108 21.1389 10.8384L20.3761 10.2812L19.3955 10.6681V11.8014H19.571V11.0725C19.571 10.9168 19.6971 10.7906 19.8528 10.7906C20.0084 10.7906 20.1347 10.9168 20.1347 11.0725V11.8014H22.4726V11.0725C22.4726 10.9168 22.5987 10.7906 22.7543 10.7906C22.9101 10.7906 23.0362 10.9168 23.0362 11.0725V11.8014H23.2117Z" fill="#414141"/>
<path d="M9.11526 30.9243H6.21358H5.47443C5.47348 30.9243 5.47262 30.924 5.47168 30.924C6.06482 31.4251 6.83061 31.7279 7.66601 31.7279C8.50081 31.7279 9.26582 31.4249 9.85853 30.9238C9.85716 30.9238 9.85587 30.9243 9.85449 30.9243H9.11526Z" fill="#414141"/>
<path d="M37.3579 8.9043C36.9142 8.9043 36.5532 9.26291 36.5532 9.70369C36.5532 10.1487 36.8666 10.9997 37.3579 10.9997C37.8477 10.9997 38.1602 10.1487 38.1602 9.70369C38.1602 9.263 37.8003 8.9043 37.3579 8.9043Z" fill="#414141"/>
<path d="M39.8059 13.7696C40.3842 13.1588 40.7402 12.335 40.7402 11.4291C40.7402 9.55115 39.2138 8.02344 37.3375 8.02344C35.4596 8.02344 33.9318 9.55115 33.9318 11.4291C33.9318 11.9247 34.0392 12.3955 34.2304 12.8207L34.4619 12.687C34.5123 12.6578 34.5681 12.646 34.6223 12.6499C34.5682 12.6461 34.5126 12.6579 34.4621 12.687L21.5876 20.1215V20.1214L22.8054 19.4181C22.5092 19.0472 22.0785 18.7879 21.5876 18.7153V18.147C22.2864 18.2265 22.8982 18.5967 23.2978 19.1337L24.1 18.6704C23.5356 17.858 22.6272 17.3026 21.5876 17.2167V13.1564C22.312 13.0965 22.9727 12.809 23.4979 12.3649C23.4964 12.3649 23.4952 12.3653 23.4938 12.3653H22.7544H19.8528H19.1137C19.1127 12.3653 19.1118 12.3651 19.1109 12.3651C19.6365 12.8091 20.298 13.0967 21.0234 13.1565V12.7263C21.0234 12.5706 21.1495 12.4444 21.3053 12.4444C21.3053 12.4444 21.3054 12.4444 21.3054 12.4444C21.1498 12.4445 21.0237 12.5706 21.0237 12.7263V20.1218L21.0234 20.1215V18.715C20.5312 18.7875 20.0997 19.0466 19.8027 19.4176L19.3099 19.1334C19.7104 18.5962 20.3233 18.2261 21.0234 18.1469V17.2165C19.9823 17.3023 19.0728 17.8579 18.5077 18.6707L12.6172 15.2735C12.8264 14.8321 12.9439 14.3392 12.9439 13.8191C12.9439 11.9412 11.4175 10.4134 9.54137 10.4134C7.66518 10.4134 6.13876 11.9412 6.13876 13.8191C6.13876 14.7235 6.49351 15.5461 7.07032 16.1564C7.06998 16.1505 7.06852 16.145 7.06852 16.1389V14.532C7.06852 14.4163 7.13933 14.3123 7.24684 14.2699L8.54957 13.7556C8.63963 13.7201 8.74129 13.7332 8.81932 13.7902L9.54137 14.3173L10.2634 13.7902C10.3415 13.7331 10.4434 13.7201 10.5333 13.7556L11.8335 14.2699C11.941 14.3124 12.0117 14.4164 12.0117 14.532V15.1038C12.0128 15.1031 12.0141 15.1025 12.0153 15.1019C11.9781 15.1255 11.9453 15.157 11.9218 15.1978C11.8441 15.3325 11.8904 15.505 12.0252 15.5827L20.7419 20.6098L10.257 26.6651C10.1221 26.7429 10.076 26.9153 10.1538 27.0501C10.2061 27.1404 10.3008 27.1909 10.3981 27.191H10.3979C10.3005 27.191 10.2058 27.1405 10.1536 27.0501C10.0757 26.9153 10.1219 26.7429 10.2567 26.6651L10.5389 26.5021C9.93479 25.5507 8.87321 24.9175 7.66596 24.9175C5.78805 24.9175 4.26025 26.4453 4.26025 28.3232C4.26025 29.2287 4.61612 30.052 5.19448 30.6626C5.19405 30.6562 5.19259 30.6499 5.19259 30.6432V29.0363C5.19259 28.9206 5.26332 28.8166 5.371 28.7741L6.67432 28.2598C6.76439 28.2244 6.86631 28.2375 6.94434 28.2946L7.66321 28.8213L8.385 28.2945C8.46303 28.2375 8.56478 28.2245 8.65467 28.2598L9.95791 28.7741C10.0656 28.8166 10.1364 28.9206 10.1364 29.0363V30.6432C10.1364 30.6502 10.1349 30.6568 10.1343 30.6636C10.7127 30.053 11.0687 29.2292 11.0687 28.3232C11.0687 27.8548 10.9737 27.4081 10.8019 27.0014L18.5095 22.5501C19.0747 23.362 19.9836 23.9166 21.0239 24.0024V23.0779C20.3233 22.9985 19.71 22.627 19.3096 22.088L19.8021 21.8035C20.099 22.1764 20.5311 22.437 21.0239 22.5097V21.098L21.0243 21.0978V31.362C21.0243 31.5176 21.1504 31.6438 21.3061 31.6438C21.4618 31.6438 21.588 31.5175 21.588 31.362V31.1852C22.1957 31.3238 22.6509 31.8687 22.6509 32.5191C22.6509 33.1843 22.1945 34.3727 21.2849 34.3727C20.3737 34.3727 19.9164 33.1843 19.9164 32.5191C19.9164 31.8536 20.3938 31.2982 21.0239 31.1759V30.85C19.2775 30.9937 17.9001 32.4574 17.9001 34.2371C17.9001 35.1421 18.2556 35.9652 18.8336 36.5757C18.8334 36.5714 18.8323 36.5673 18.8323 36.563V34.9504C18.8323 34.8342 18.9035 34.7301 19.0117 34.6878L20.3151 34.1793C20.4043 34.1445 20.5052 34.1575 20.5828 34.2135L21.3054 34.7365L22.0252 34.2138C22.1029 34.1575 22.2038 34.1444 22.2933 34.1793L23.5966 34.6878C23.7048 34.73 23.7761 34.8342 23.7761 34.9504V36.5634C23.7761 36.5681 23.7749 36.5724 23.7747 36.5771C24.3527 35.9665 24.7083 35.143 24.7083 34.2375C24.7083 32.458 23.3324 30.9944 21.5879 30.8504V24.0026C22.6273 23.9166 23.5353 23.3616 24.1 22.5497L23.2996 22.0873C22.9001 22.6265 22.2876 22.9985 21.5879 23.0781V22.5098C22.0797 22.4369 22.5112 22.1761 22.8072 21.8028L21.5879 21.0983V21.0981L32.0692 27.1532C32.1136 27.1789 32.1619 27.191 32.2098 27.1911C32.1618 27.1911 32.1133 27.1788 32.0689 27.1532L31.7185 26.9509C31.5103 27.3907 31.3932 27.8815 31.3932 28.3993C31.3932 29.3047 31.749 30.1281 32.3274 30.7388C32.3269 30.7323 32.3255 30.7261 32.3255 30.7193V29.1122C32.3255 28.996 32.3967 28.8918 32.505 28.8496L33.8083 28.3413C33.8976 28.3063 33.9986 28.3194 34.0763 28.3758L34.7961 28.8985L35.5187 28.3755C35.5963 28.3195 35.6972 28.3064 35.7863 28.3413L37.0897 28.8496C37.1979 28.8917 37.2691 28.996 37.2691 29.1122V30.7193C37.2691 30.7263 37.2676 30.7329 37.2671 30.7397C37.8454 30.129 38.2014 29.3053 38.2014 28.3993C38.2014 26.5246 36.6751 24.9994 34.7989 24.9994C33.6413 24.9994 32.6174 25.5795 32.0017 26.4631L24.3827 22.0616C24.5912 21.6209 24.7083 21.1288 24.7083 20.6097C24.7083 20.0908 24.5913 19.5989 24.383 19.1583L34.5034 13.3142C34.6114 13.4759 34.7332 13.6278 34.8665 13.7684C34.8661 13.7619 34.8647 13.7557 34.8647 13.749V13.0338C34.8902 12.9688 34.8916 12.8956 34.8647 12.8277V12.1419C34.8647 12.0262 34.9354 11.9223 35.0431 11.8797L36.3464 11.3655C36.4358 11.3302 36.5373 11.3429 36.6149 11.3994L37.3377 11.9223L38.0574 11.3996C38.1354 11.3429 38.237 11.3302 38.3265 11.3655L39.6299 11.8797C39.7376 11.9223 39.8084 12.0262 39.8084 12.1419V13.7491C39.808 13.7562 39.8063 13.7628 39.8059 13.7696ZM9.56234 13.955C8.6508 13.955 8.19318 12.7628 8.19318 12.0953C8.19318 11.3439 8.80738 10.7325 9.56234 10.7325C10.3155 10.7325 10.9283 11.3439 10.9283 12.0953C10.9283 12.7628 10.4718 13.955 9.56234 13.955ZM7.68607 28.4592C6.77478 28.4592 6.31751 27.2708 6.31751 26.6056C6.31751 25.8507 6.93145 25.2367 7.68607 25.2367C8.43922 25.2367 9.05196 25.8507 9.05196 26.6056C9.05196 27.2708 8.59554 28.4592 7.68607 28.4592ZM34.8162 25.3126C35.5708 25.3126 36.1848 25.9266 36.1848 26.6814C36.1848 27.3467 35.7275 28.5353 34.8162 28.5353C33.9066 28.5353 33.4502 27.3467 33.4502 26.6814C33.4503 25.9266 34.0631 25.3126 34.8162 25.3126ZM12.2451 15.069C12.2343 15.0658 12.2237 15.0635 12.2128 15.0617C12.2237 15.0635 12.2344 15.0658 12.2451 15.069ZM23.7871 20.6099C23.7871 20.9612 23.7136 21.2957 23.5814 21.599L23.0891 21.3146C23.1754 21.0962 23.2234 20.8586 23.2234 20.6099C23.2234 20.3614 23.1752 20.124 23.0886 19.9058L23.5808 19.6216C23.7132 19.9246 23.7871 20.2586 23.7871 20.6099ZM34.7575 13.1655C34.767 13.1592 34.7767 13.1529 34.7852 13.1456C34.7767 13.1529 34.767 13.1591 34.7575 13.1655ZM34.8109 13.1198C34.8133 13.117 34.8162 13.1143 34.8185 13.1115C34.8161 13.1143 34.8133 13.1169 34.8109 13.1198ZM37.3579 11.565C36.4467 11.565 35.9893 10.3727 35.9893 9.70532C35.9893 8.95371 36.6033 8.34227 37.3579 8.34227C38.1111 8.34227 38.7239 8.95371 38.7239 9.70532C38.7239 10.3728 38.2674 11.565 37.3579 11.565Z" fill="#414141"/>
<path d="M35.1431 14.0295C35.7363 14.5306 36.502 14.8334 37.3374 14.8334C38.1722 14.8334 38.9372 14.5305 39.5299 14.0293C39.5285 14.0293 39.5273 14.0297 39.526 14.0297H35.1459C35.145 14.0297 35.1441 14.0295 35.1431 14.0295Z" fill="#414141"/>
<path d="M39.2441 13.466V12.3325L38.2631 11.9454L37.5031 12.4973C37.4044 12.569 37.2709 12.569 37.1722 12.4976L36.4091 11.9453L35.4277 12.3325V13.466H35.6033V12.7367C35.6033 12.5811 35.7295 12.4548 35.8851 12.4548C36.0406 12.4548 36.1669 12.5811 36.1669 12.7367V13.46H38.5079V12.7367C38.5079 12.5811 38.6341 12.4548 38.7898 12.4548C38.9454 12.4548 39.0716 12.5811 39.0716 12.7367V13.466H39.2441Z" fill="#414141"/>
<path d="M23.2118 36.2809V35.1424L22.2314 34.7599L21.4709 35.3123C21.3722 35.3839 21.2387 35.384 21.14 35.3125L20.3762 34.7598L19.3955 35.1424V36.2809H19.571V35.5458C19.571 35.3902 19.6971 35.264 19.8528 35.264C20.0084 35.264 20.1347 35.3903 20.1347 35.5458V36.2748H22.4726V35.5458C22.4726 35.3902 22.5987 35.264 22.7543 35.264C22.9101 35.264 23.0362 35.3903 23.0362 35.5458V36.2809H23.2118Z" fill="#414141"/>
<path d="M18.2253 19.1582C18.0169 19.5987 17.8999 20.0905 17.8999 20.6093C17.8999 21.1288 18.0173 21.6213 18.2262 22.0622L19.0269 21.5999C18.8943 21.2962 18.8203 20.9613 18.8203 20.6093C18.8203 20.2579 18.8944 19.9236 19.0271 19.6206L18.2253 19.1582Z" fill="#414141"/>
<path d="M19.5191 19.9043C19.4322 20.1227 19.3838 20.3603 19.3838 20.6092C19.3838 20.8585 19.432 21.0966 19.5189 21.3154L20.7415 20.6093L19.5191 19.9043Z" fill="#414141"/>
<path d="M20.48 32.518C20.48 32.961 20.7933 33.808 21.2847 33.808C21.7746 33.808 22.0869 32.961 22.0869 32.518C22.0869 32.0741 21.727 31.7129 21.2847 31.7129C20.841 31.7129 20.48 32.0741 20.48 32.518Z" fill="#414141"/>
<path d="M21.3054 37.6414C22.1366 37.6414 22.8988 37.3412 23.4905 36.8438H19.1182C19.7104 37.3411 20.4733 37.6414 21.3054 37.6414Z" fill="#414141"/>
</svg>
