<svg width="17" height="16" viewBox="0 0 17 16" fill="none" xmlns="http://www.w3.org/2000/svg">
<path d="M8.50008 8.00008C7.76675 8.00008 7.13897 7.73897 6.61675 7.21675C6.09453 6.69453 5.83341 6.06675 5.83341 5.33341C5.83341 4.60008 6.09453 3.9723 6.61675 3.45008C7.13897 2.92786 7.76675 2.66675 8.50008 2.66675C9.23341 2.66675 9.86119 2.92786 10.3834 3.45008C10.9056 3.9723 11.1667 4.60008 11.1667 5.33341C11.1667 6.06675 10.9056 6.69453 10.3834 7.21675C9.86119 7.73897 9.23341 8.00008 8.50008 8.00008ZM3.16675 13.3334V11.4667C3.16675 11.089 3.26397 10.7417 3.45841 10.4251C3.65286 10.1084 3.91119 9.86675 4.23341 9.70008C4.9223 9.35564 5.6223 9.0973 6.33341 8.92508C7.04453 8.75286 7.76675 8.66675 8.50008 8.66675C9.23341 8.66675 9.95564 8.75286 10.6667 8.92508C11.3779 9.0973 12.0779 9.35564 12.7667 9.70008C13.089 9.86675 13.3473 10.1084 13.5417 10.4251C13.7362 10.7417 13.8334 11.089 13.8334 11.4667V13.3334H3.16675ZM4.50008 12.0001H12.5001V11.4667C12.5001 11.3445 12.4695 11.2334 12.4084 11.1334C12.3473 11.0334 12.2667 10.9556 12.1667 10.9001C11.5667 10.6001 10.9612 10.3751 10.3501 10.2251C9.73897 10.0751 9.1223 10.0001 8.50008 10.0001C7.87786 10.0001 7.26119 10.0751 6.65008 10.2251C6.03897 10.3751 5.43341 10.6001 4.83341 10.9001C4.73341 10.9556 4.65286 11.0334 4.59175 11.1334C4.53064 11.2334 4.50008 11.3445 4.50008 11.4667V12.0001ZM8.50008 6.66675C8.86675 6.66675 9.18064 6.53619 9.44175 6.27508C9.70286 6.01397 9.83341 5.70008 9.83341 5.33341C9.83341 4.96675 9.70286 4.65286 9.44175 4.39175C9.18064 4.13064 8.86675 4.00008 8.50008 4.00008C8.13341 4.00008 7.81953 4.13064 7.55841 4.39175C7.2973 4.65286 7.16675 4.96675 7.16675 5.33341C7.16675 5.70008 7.2973 6.01397 7.55841 6.27508C7.81953 6.53619 8.13341 6.66675 8.50008 6.66675Z" fill="#F8FEFC"/>
</svg>
