<svg width="45" height="44" viewBox="0 0 45 44" fill="none" xmlns="http://www.w3.org/2000/svg">
<g clip-path="url(#clip0_588_21120)">
<path d="M13.6866 14.8887C10.3828 14.8887 7.69482 17.5766 7.69482 20.8804C7.69482 24.1842 10.3828 26.8722 13.6866 26.8722C16.9976 26.8722 19.6783 24.1842 19.6783 20.8804C19.6783 17.5766 16.9904 14.8887 13.6866 14.8887ZM13.6866 24.4305C11.7304 24.4305 10.1364 22.8366 10.1364 20.8803C10.1364 18.9241 11.7304 17.3302 13.6866 17.3302C15.6428 17.3302 17.2367 18.9241 17.2367 20.8803C17.2367 22.8366 15.6428 24.4305 13.6866 24.4305Z" fill="#414141"/>
<path d="M34.27 21.6133C31.6328 21.6133 29.481 23.7651 29.481 26.4023C29.481 29.0468 31.6255 31.1913 34.27 31.1913C36.9144 31.1913 39.0589 29.0468 39.0589 26.4023C39.0589 23.7578 36.9144 21.6133 34.27 21.6133ZM34.27 28.7496C32.9803 28.7496 31.9226 27.6991 31.9226 26.4023C31.9226 25.1055 32.9803 24.0549 34.27 24.0549C35.5669 24.0549 36.6173 25.1055 36.6173 26.4023C36.6173 27.6919 35.5668 28.7496 34.27 28.7496Z" fill="#414141"/>
<path d="M34.2698 32.792C30.6617 32.792 27.4522 34.7336 25.6409 37.6245C23.5615 33.0528 18.9609 29.8359 13.6792 29.8359C6.55728 29.8359 0.652485 35.632 0.50029 42.7468C0.493005 43.0728 0.623458 43.3988 0.848053 43.6307C1.07993 43.8626 1.39138 43.9929 1.72469 43.9929H43.2103C43.5364 43.9929 43.8479 43.8624 44.087 43.6307C44.326 43.3988 44.442 43.0728 44.4347 42.7468C44.3187 37.2622 39.7543 32.792 34.2698 32.792ZM3.05051 41.5586C3.77507 36.3421 8.31772 32.292 13.6864 32.292C19.055 32.292 23.5905 36.342 24.3222 41.5586H3.05051ZM26.6769 41.5586C27.3506 37.9795 30.524 35.2481 34.2625 35.2481C38.0011 35.2481 41.1816 37.9867 41.8482 41.5586H26.6769Z" fill="#414141"/>
<path d="M31.2558 0.0078125C23.9527 0.0078125 18.0117 4.14477 18.0117 9.23815C18.0117 11.716 19.4172 14.0779 21.9168 15.795V20.8231C21.9168 21.2361 22.1269 21.6201 22.4674 21.8447C22.779 22.0548 23.2788 22.0766 23.6266 21.9388L31.5165 18.4539C38.6965 18.367 44.4997 14.259 44.4997 9.23815C44.5 4.14477 38.5589 0.0078125 31.2558 0.0078125ZM31.2558 16.0123C31.0819 16.0123 30.9154 16.0485 30.7632 16.1137L24.3512 18.9466V15.1284C24.3512 14.7009 24.1266 14.3024 23.7644 14.0924C21.6634 12.8027 20.4462 11.0349 20.4462 9.23087C20.4535 5.55756 25.4018 2.44944 31.2558 2.44944C37.1099 2.44944 42.0583 5.55756 42.0583 9.23087C42.0583 12.9113 37.1099 16.0123 31.2558 16.0123Z" fill="#414141"/>
<path d="M25.119 7.75977H24.5467C23.8729 7.75977 23.3223 8.30321 23.3223 8.98416C23.3296 9.66523 23.8729 10.2086 24.5467 10.2086H25.119C25.7928 10.2086 26.3434 9.66512 26.3434 8.98416C26.3435 8.31038 25.8001 7.75977 25.119 7.75977Z" fill="#414141"/>
<path d="M31.5385 7.75977H30.9661C30.2923 7.75977 29.7417 8.30321 29.7417 8.98416C29.7417 9.66523 30.2996 10.2086 30.9661 10.2086H31.5385C32.2122 10.2086 32.7629 9.66512 32.7629 8.98416C32.7629 8.31038 32.2195 7.75977 31.5385 7.75977Z" fill="#414141"/>
<path d="M37.9647 7.75977H37.3924C36.7186 7.75977 36.168 8.30321 36.168 8.98416C36.168 9.66523 36.7186 10.2086 37.3924 10.2086H37.9647C38.6385 10.2086 39.1891 9.66512 39.1891 8.98416C39.1892 8.31038 38.6458 7.75977 37.9647 7.75977Z" fill="#414141"/>
</g>
<defs>
<clipPath id="clip0_588_21120">
<rect width="44" height="44" fill="white" transform="translate(0.5)"/>
</clipPath>
</defs>
</svg>
