<svg width="44" height="44" viewBox="0 0 44 44" fill="none" xmlns="http://www.w3.org/2000/svg">
<path d="M20.0752 28.5087L30.4335 18.1503L27.821 15.5378L20.0752 23.2837L16.2252 19.4337L13.6127 22.0462L20.0752 28.5087ZM22.0002 40.3337C17.7529 39.2642 14.2467 36.8274 11.4814 33.0232C8.71614 29.2191 7.3335 24.9948 7.3335 20.3503V9.16699L22.0002 3.66699L36.6668 9.16699V20.3503C36.6668 24.9948 35.2842 29.2191 32.5189 33.0232C29.7536 36.8274 26.2474 39.2642 22.0002 40.3337ZM22.0002 36.4837C25.1779 35.4753 27.8057 33.4587 29.8835 30.4337C31.9613 27.4087 33.0002 24.0475 33.0002 20.3503V11.6878L22.0002 7.56283L11.0002 11.6878V20.3503C11.0002 24.0475 12.0391 27.4087 14.1168 30.4337C16.1946 33.4587 18.8224 35.4753 22.0002 36.4837Z" fill="#111111"/>
<path d="M20.0752 28.5087L30.4335 18.1503L27.821 15.5378L20.0752 23.2837L16.2252 19.4337L13.6127 22.0462L20.0752 28.5087ZM22.0002 40.3337C17.7529 39.2642 14.2467 36.8274 11.4814 33.0232C8.71614 29.2191 7.3335 24.9948 7.3335 20.3503V9.16699L22.0002 3.66699L36.6668 9.16699V20.3503C36.6668 24.9948 35.2842 29.2191 32.5189 33.0232C29.7536 36.8274 26.2474 39.2642 22.0002 40.3337ZM22.0002 36.4837C25.1779 35.4753 27.8057 33.4587 29.8835 30.4337C31.9613 27.4087 33.0002 24.0475 33.0002 20.3503V11.6878L22.0002 7.56283L11.0002 11.6878V20.3503C11.0002 24.0475 12.0391 27.4087 14.1168 30.4337C16.1946 33.4587 18.8224 35.4753 22.0002 36.4837Z" fill="black" fill-opacity="0.2"/>
<path d="M20.0752 28.5087L30.4335 18.1503L27.821 15.5378L20.0752 23.2837L16.2252 19.4337L13.6127 22.0462L20.0752 28.5087ZM22.0002 40.3337C17.7529 39.2642 14.2467 36.8274 11.4814 33.0232C8.71614 29.2191 7.3335 24.9948 7.3335 20.3503V9.16699L22.0002 3.66699L36.6668 9.16699V20.3503C36.6668 24.9948 35.2842 29.2191 32.5189 33.0232C29.7536 36.8274 26.2474 39.2642 22.0002 40.3337ZM22.0002 36.4837C25.1779 35.4753 27.8057 33.4587 29.8835 30.4337C31.9613 27.4087 33.0002 24.0475 33.0002 20.3503V11.6878L22.0002 7.56283L11.0002 11.6878V20.3503C11.0002 24.0475 12.0391 27.4087 14.1168 30.4337C16.1946 33.4587 18.8224 35.4753 22.0002 36.4837Z" fill="black" fill-opacity="0.2"/>
<path d="M20.0752 28.5087L30.4335 18.1503L27.821 15.5378L20.0752 23.2837L16.2252 19.4337L13.6127 22.0462L20.0752 28.5087ZM22.0002 40.3337C17.7529 39.2642 14.2467 36.8274 11.4814 33.0232C8.71614 29.2191 7.3335 24.9948 7.3335 20.3503V9.16699L22.0002 3.66699L36.6668 9.16699V20.3503C36.6668 24.9948 35.2842 29.2191 32.5189 33.0232C29.7536 36.8274 26.2474 39.2642 22.0002 40.3337ZM22.0002 36.4837C25.1779 35.4753 27.8057 33.4587 29.8835 30.4337C31.9613 27.4087 33.0002 24.0475 33.0002 20.3503V11.6878L22.0002 7.56283L11.0002 11.6878V20.3503C11.0002 24.0475 12.0391 27.4087 14.1168 30.4337C16.1946 33.4587 18.8224 35.4753 22.0002 36.4837Z" fill="black" fill-opacity="0.2"/>
</svg>
