<svg width="44" height="44" viewBox="0 0 44 44" fill="none" xmlns="http://www.w3.org/2000/svg">
<path d="M28.0498 30.617L30.6165 28.0503L23.8332 21.267V12.8337H20.1665V22.7337L28.0498 30.617ZM21.9998 40.3337C19.4637 40.3337 17.0804 39.8524 14.8498 38.8899C12.6193 37.9274 10.679 36.6212 9.029 34.9712C7.379 33.3212 6.07275 31.3809 5.11025 29.1503C4.14775 26.9198 3.6665 24.5364 3.6665 22.0003C3.6665 19.4642 4.14775 17.0809 5.11025 14.8503C6.07275 12.6198 7.379 10.6795 9.029 9.02949C10.679 7.37949 12.6193 6.07324 14.8498 5.11074C17.0804 4.14824 19.4637 3.66699 21.9998 3.66699C24.5359 3.66699 26.9193 4.14824 29.1498 5.11074C31.3804 6.07324 33.3207 7.37949 34.9707 9.02949C36.6207 10.6795 37.9269 12.6198 38.8894 14.8503C39.8519 17.0809 40.3332 19.4642 40.3332 22.0003C40.3332 24.5364 39.8519 26.9198 38.8894 29.1503C37.9269 31.3809 36.6207 33.3212 34.9707 34.9712C33.3207 36.6212 31.3804 37.9274 29.1498 38.8899C26.9193 39.8524 24.5359 40.3337 21.9998 40.3337ZM21.9998 36.667C26.0637 36.667 29.5241 35.2385 32.3811 32.3816C35.238 29.5246 36.6665 26.0642 36.6665 22.0003C36.6665 17.9364 35.238 14.476 32.3811 11.6191C29.5241 8.76213 26.0637 7.33366 21.9998 7.33366C17.9359 7.33366 14.4755 8.76213 11.6186 11.6191C8.76164 14.476 7.33317 17.9364 7.33317 22.0003C7.33317 26.0642 8.76164 29.5246 11.6186 32.3816C14.4755 35.2385 17.9359 36.667 21.9998 36.667Z" fill="#414141"/>
</svg>
