<svg width="16" height="16" viewBox="0 0 16 16" fill="none" xmlns="http://www.w3.org/2000/svg">
<g clip-path="url(#clip0_874_11)">
<path d="M15.4128 0.588091C15.1738 0.346176 14.8765 0.169994 14.5495 0.0765683C14.2225 -0.0168576 13.8769 -0.0243699 13.5462 0.0547573L2.8795 2.30142C2.26522 2.38567 1.68666 2.63974 1.20897 3.03503C0.731284 3.43032 0.373445 3.95113 0.175753 4.5388C-0.0219392 5.12647 -0.0516323 5.75767 0.0900176 6.3613C0.231668 6.96494 0.539034 7.51704 0.977503 7.95542L2.12284 9.10009C2.18483 9.16206 2.23399 9.23565 2.2675 9.31664C2.30102 9.39763 2.31824 9.48444 2.31817 9.57209V11.6841C2.31964 11.981 2.388 12.2739 2.51817 12.5408L2.51284 12.5454L2.53017 12.5628C2.72551 12.9555 3.04456 13.2732 3.43817 13.4668L3.4555 13.4841L3.46017 13.4788C3.72708 13.6089 4.01988 13.6773 4.31684 13.6788H6.42884C6.60554 13.6786 6.77507 13.7486 6.90017 13.8734L8.04484 15.0181C8.35185 15.3285 8.71727 15.5751 9.12002 15.7436C9.52278 15.9122 9.95491 15.9993 10.3915 16.0001C10.7553 15.9996 11.1167 15.9402 11.4615 15.8241C12.0438 15.6329 12.5611 15.2828 12.955 14.8132C13.3489 14.3437 13.6038 13.7734 13.6908 13.1668L15.9408 2.47676C16.0241 2.14318 16.0192 1.7937 15.9266 1.4626C15.834 1.13149 15.657 0.830137 15.4128 0.588091V0.588091ZM3.06684 8.15876L1.92084 7.01409C1.65398 6.75366 1.46695 6.42252 1.38169 6.05953C1.29644 5.69654 1.31649 5.31675 1.4395 4.96476C1.55877 4.60364 1.77924 4.28437 2.0747 4.04493C2.37016 3.80549 2.72818 3.65595 3.10617 3.61409L13.6668 1.39076L3.65017 11.4088V9.57209C3.65118 9.30965 3.60014 9.04961 3.50002 8.80702C3.39989 8.56442 3.25266 8.34409 3.06684 8.15876V8.15876ZM12.3808 12.9388C12.3296 13.307 12.1768 13.6536 11.9396 13.9399C11.7023 14.2261 11.39 14.4405 11.0376 14.559C10.6852 14.6775 10.3068 14.6955 9.94479 14.6109C9.58278 14.5263 9.25151 14.3425 8.98817 14.0801L7.8415 12.9334C7.65642 12.7473 7.43626 12.5998 7.19378 12.4993C6.9513 12.3988 6.69131 12.3474 6.42884 12.3481H4.59217L14.6102 2.33342L12.3808 12.9388Z" fill="#111111"/>
<path d="M15.4128 0.588091C15.1738 0.346176 14.8765 0.169994 14.5495 0.0765683C14.2225 -0.0168576 13.8769 -0.0243699 13.5462 0.0547573L2.8795 2.30142C2.26522 2.38567 1.68666 2.63974 1.20897 3.03503C0.731284 3.43032 0.373445 3.95113 0.175753 4.5388C-0.0219392 5.12647 -0.0516323 5.75767 0.0900176 6.3613C0.231668 6.96494 0.539034 7.51704 0.977503 7.95542L2.12284 9.10009C2.18483 9.16206 2.23399 9.23565 2.2675 9.31664C2.30102 9.39763 2.31824 9.48444 2.31817 9.57209V11.6841C2.31964 11.981 2.388 12.2739 2.51817 12.5408L2.51284 12.5454L2.53017 12.5628C2.72551 12.9555 3.04456 13.2732 3.43817 13.4668L3.4555 13.4841L3.46017 13.4788C3.72708 13.6089 4.01988 13.6773 4.31684 13.6788H6.42884C6.60554 13.6786 6.77507 13.7486 6.90017 13.8734L8.04484 15.0181C8.35185 15.3285 8.71727 15.5751 9.12002 15.7436C9.52278 15.9122 9.95491 15.9993 10.3915 16.0001C10.7553 15.9996 11.1167 15.9402 11.4615 15.8241C12.0438 15.6329 12.5611 15.2828 12.955 14.8132C13.3489 14.3437 13.6038 13.7734 13.6908 13.1668L15.9408 2.47676C16.0241 2.14318 16.0192 1.7937 15.9266 1.4626C15.834 1.13149 15.657 0.830137 15.4128 0.588091V0.588091ZM3.06684 8.15876L1.92084 7.01409C1.65398 6.75366 1.46695 6.42252 1.38169 6.05953C1.29644 5.69654 1.31649 5.31675 1.4395 4.96476C1.55877 4.60364 1.77924 4.28437 2.0747 4.04493C2.37016 3.80549 2.72818 3.65595 3.10617 3.61409L13.6668 1.39076L3.65017 11.4088V9.57209C3.65118 9.30965 3.60014 9.04961 3.50002 8.80702C3.39989 8.56442 3.25266 8.34409 3.06684 8.15876V8.15876ZM12.3808 12.9388C12.3296 13.307 12.1768 13.6536 11.9396 13.9399C11.7023 14.2261 11.39 14.4405 11.0376 14.559C10.6852 14.6775 10.3068 14.6955 9.94479 14.6109C9.58278 14.5263 9.25151 14.3425 8.98817 14.0801L7.8415 12.9334C7.65642 12.7473 7.43626 12.5998 7.19378 12.4993C6.9513 12.3988 6.69131 12.3474 6.42884 12.3481H4.59217L14.6102 2.33342L12.3808 12.9388Z" fill="black" fill-opacity="0.2"/>
<path d="M15.4128 0.588091C15.1738 0.346176 14.8765 0.169994 14.5495 0.0765683C14.2225 -0.0168576 13.8769 -0.0243699 13.5462 0.0547573L2.8795 2.30142C2.26522 2.38567 1.68666 2.63974 1.20897 3.03503C0.731284 3.43032 0.373445 3.95113 0.175753 4.5388C-0.0219392 5.12647 -0.0516323 5.75767 0.0900176 6.3613C0.231668 6.96494 0.539034 7.51704 0.977503 7.95542L2.12284 9.10009C2.18483 9.16206 2.23399 9.23565 2.2675 9.31664C2.30102 9.39763 2.31824 9.48444 2.31817 9.57209V11.6841C2.31964 11.981 2.388 12.2739 2.51817 12.5408L2.51284 12.5454L2.53017 12.5628C2.72551 12.9555 3.04456 13.2732 3.43817 13.4668L3.4555 13.4841L3.46017 13.4788C3.72708 13.6089 4.01988 13.6773 4.31684 13.6788H6.42884C6.60554 13.6786 6.77507 13.7486 6.90017 13.8734L8.04484 15.0181C8.35185 15.3285 8.71727 15.5751 9.12002 15.7436C9.52278 15.9122 9.95491 15.9993 10.3915 16.0001C10.7553 15.9996 11.1167 15.9402 11.4615 15.8241C12.0438 15.6329 12.5611 15.2828 12.955 14.8132C13.3489 14.3437 13.6038 13.7734 13.6908 13.1668L15.9408 2.47676C16.0241 2.14318 16.0192 1.7937 15.9266 1.4626C15.834 1.13149 15.657 0.830137 15.4128 0.588091V0.588091ZM3.06684 8.15876L1.92084 7.01409C1.65398 6.75366 1.46695 6.42252 1.38169 6.05953C1.29644 5.69654 1.31649 5.31675 1.4395 4.96476C1.55877 4.60364 1.77924 4.28437 2.0747 4.04493C2.37016 3.80549 2.72818 3.65595 3.10617 3.61409L13.6668 1.39076L3.65017 11.4088V9.57209C3.65118 9.30965 3.60014 9.04961 3.50002 8.80702C3.39989 8.56442 3.25266 8.34409 3.06684 8.15876V8.15876ZM12.3808 12.9388C12.3296 13.307 12.1768 13.6536 11.9396 13.9399C11.7023 14.2261 11.39 14.4405 11.0376 14.559C10.6852 14.6775 10.3068 14.6955 9.94479 14.6109C9.58278 14.5263 9.25151 14.3425 8.98817 14.0801L7.8415 12.9334C7.65642 12.7473 7.43626 12.5998 7.19378 12.4993C6.9513 12.3988 6.69131 12.3474 6.42884 12.3481H4.59217L14.6102 2.33342L12.3808 12.9388Z" fill="black" fill-opacity="0.2"/>
<path d="M15.4128 0.588091C15.1738 0.346176 14.8765 0.169994 14.5495 0.0765683C14.2225 -0.0168576 13.8769 -0.0243699 13.5462 0.0547573L2.8795 2.30142C2.26522 2.38567 1.68666 2.63974 1.20897 3.03503C0.731284 3.43032 0.373445 3.95113 0.175753 4.5388C-0.0219392 5.12647 -0.0516323 5.75767 0.0900176 6.3613C0.231668 6.96494 0.539034 7.51704 0.977503 7.95542L2.12284 9.10009C2.18483 9.16206 2.23399 9.23565 2.2675 9.31664C2.30102 9.39763 2.31824 9.48444 2.31817 9.57209V11.6841C2.31964 11.981 2.388 12.2739 2.51817 12.5408L2.51284 12.5454L2.53017 12.5628C2.72551 12.9555 3.04456 13.2732 3.43817 13.4668L3.4555 13.4841L3.46017 13.4788C3.72708 13.6089 4.01988 13.6773 4.31684 13.6788H6.42884C6.60554 13.6786 6.77507 13.7486 6.90017 13.8734L8.04484 15.0181C8.35185 15.3285 8.71727 15.5751 9.12002 15.7436C9.52278 15.9122 9.95491 15.9993 10.3915 16.0001C10.7553 15.9996 11.1167 15.9402 11.4615 15.8241C12.0438 15.6329 12.5611 15.2828 12.955 14.8132C13.3489 14.3437 13.6038 13.7734 13.6908 13.1668L15.9408 2.47676C16.0241 2.14318 16.0192 1.7937 15.9266 1.4626C15.834 1.13149 15.657 0.830137 15.4128 0.588091V0.588091ZM3.06684 8.15876L1.92084 7.01409C1.65398 6.75366 1.46695 6.42252 1.38169 6.05953C1.29644 5.69654 1.31649 5.31675 1.4395 4.96476C1.55877 4.60364 1.77924 4.28437 2.0747 4.04493C2.37016 3.80549 2.72818 3.65595 3.10617 3.61409L13.6668 1.39076L3.65017 11.4088V9.57209C3.65118 9.30965 3.60014 9.04961 3.50002 8.80702C3.39989 8.56442 3.25266 8.34409 3.06684 8.15876V8.15876ZM12.3808 12.9388C12.3296 13.307 12.1768 13.6536 11.9396 13.9399C11.7023 14.2261 11.39 14.4405 11.0376 14.559C10.6852 14.6775 10.3068 14.6955 9.94479 14.6109C9.58278 14.5263 9.25151 14.3425 8.98817 14.0801L7.8415 12.9334C7.65642 12.7473 7.43626 12.5998 7.19378 12.4993C6.9513 12.3988 6.69131 12.3474 6.42884 12.3481H4.59217L14.6102 2.33342L12.3808 12.9388Z" fill="black" fill-opacity="0.2"/>
</g>
<defs>
<clipPath id="clip0_874_11">
<rect width="16" height="16" fill="white"/>
</clipPath>
</defs>
</svg>
