<svg width="45" height="44" viewBox="0 0 45 44" fill="none" xmlns="http://www.w3.org/2000/svg">
<g clip-path="url(#clip0_588_21099)">
<path d="M43.6729 40.3086V38.7356C43.6729 38.403 43.5291 38.0884 43.2684 37.8816C41.8482 36.7131 40.3201 35.9401 40.0055 35.7873C39.9696 35.7693 39.9516 35.7333 39.9516 35.6974V33.4861C40.2302 33.2974 40.41 32.9828 40.41 32.6232V30.3311C40.41 29.1895 39.4842 28.2637 38.3426 28.2637H38.0999H37.8572C36.7156 28.2637 35.7898 29.1895 35.7898 30.3311V32.6232C35.7898 32.9828 35.9696 33.2974 36.2482 33.4861V35.6974C36.2482 35.7333 36.2302 35.7693 36.1943 35.7873C35.8797 35.9401 34.3516 36.7131 32.9313 37.8816C32.6707 38.0884 32.5269 38.412 32.5269 38.7356V40.3086" fill="#606060"/>
<path d="M28.0506 40.3086V38.7356C28.0506 38.403 27.9067 38.0884 27.6461 37.8816C26.2258 36.7131 24.6978 35.9401 24.3832 35.7873C24.3472 35.7693 24.3292 35.7333 24.3292 35.6974V33.4861C24.6079 33.2974 24.7876 32.9828 24.7876 32.6232V30.3311C24.7876 29.1895 23.8618 28.2637 22.7202 28.2637H22.4775H22.2258C21.0843 28.2637 20.1584 29.1895 20.1584 30.3311V32.6232C20.1584 32.9828 20.3382 33.2974 20.6169 33.4861V35.6974C20.6169 35.7333 20.5989 35.7693 20.5629 35.7873C20.2483 35.9401 18.7202 36.7131 17.3 37.8816C17.0393 38.0884 16.8955 38.412 16.8955 38.7356V40.3086" fill="#606060"/>
<path d="M12.3384 40.1648V38.6097C12.3384 38.2861 12.1946 37.9715 11.9429 37.7648C10.5406 36.6142 9.03052 35.8502 8.71591 35.6974C8.67996 35.6794 8.66198 35.6434 8.66198 35.6075V33.4232C8.94063 33.2434 9.12041 32.9288 9.12041 32.5693V30.3041C9.12041 29.1805 8.20355 28.2637 7.07996 28.2637H6.83726H6.58557C5.46198 28.2637 4.54513 29.1805 4.54513 30.3041V32.5693C4.54513 32.9199 4.7249 33.2345 5.00355 33.4232V35.6075C5.00355 35.6434 4.98557 35.6794 4.94962 35.6974C4.644 35.8502 3.1249 36.6142 1.72265 37.7648C1.47097 37.9715 1.32715 38.2861 1.32715 38.6097V40.1648" fill="#606060"/>
<path d="M28.8593 18.2059C29.3088 18.2059 29.6773 17.8374 29.6773 17.3879V15.5992C29.6773 14.97 29.3986 14.3857 28.9222 13.9902C27.5829 12.8936 26.1537 12.0846 25.4436 11.707V9.99019C25.7762 9.63064 25.9649 9.14525 25.9649 8.64188V6.03514C25.9649 4.29132 24.5447 2.87109 22.8009 2.87109H22.2436C20.4998 2.87109 19.0795 4.29132 19.0795 6.03514V8.64188C19.0795 9.14525 19.2683 9.62166 19.6009 9.99019V11.707C18.8908 12.0756 17.4616 12.8846 16.1222 13.9902C15.6458 14.3857 15.3672 14.97 15.3672 15.5992V17.3879C15.3672 17.8374 15.7357 18.2059 16.1852 18.2059C16.6346 18.2059 17.0031 17.8374 17.0031 17.3879V15.5992C17.0031 15.4644 17.0661 15.3385 17.1649 15.2486C18.711 13.9722 20.3919 13.1273 20.7155 12.9745C21.0301 12.8217 21.2369 12.4891 21.2369 12.1385V9.62166C21.2369 9.35199 21.102 9.09132 20.8773 8.9475C20.7784 8.87559 20.7155 8.76772 20.7155 8.65087V6.04413C20.7155 5.19918 21.3986 4.51604 22.2436 4.51604H22.8009C23.6458 4.51604 24.329 5.19918 24.329 6.04413V8.65087C24.329 8.76772 24.2661 8.88458 24.1672 8.9475C23.9425 9.10031 23.8076 9.35199 23.8076 9.62166V12.1385C23.8076 12.4891 24.0144 12.8217 24.329 12.9745C24.6526 13.1273 26.3335 13.9812 27.8795 15.2486C27.9784 15.3295 28.0413 15.4554 28.0413 15.5992V17.3879C28.0503 17.8464 28.4099 18.2059 28.8593 18.2059Z" fill="#414141"/>
<path d="M21.7137 25.3521C21.7137 25.8015 22.0822 26.1701 22.5317 26.1701C22.9811 26.1701 23.3496 25.8015 23.3496 25.3521V22.8532H37.2912V25.3521C37.2912 25.8015 37.6598 26.1701 38.1092 26.1701C38.5586 26.1701 38.9272 25.8015 38.9272 25.3521V22.0352C38.9272 21.5858 38.5586 21.2172 38.1092 21.2172H23.3407V18.7184C23.3407 18.2689 22.9721 17.9004 22.5227 17.9004C22.0732 17.9004 21.7047 18.2689 21.7047 18.7184V21.2172H6.89122C6.44178 21.2172 6.07324 21.5858 6.07324 22.0352V25.3521C6.07324 25.8015 6.44178 26.1701 6.89122 26.1701C7.34066 26.1701 7.7092 25.8015 7.7092 25.3521V22.8532H21.7137V25.3521Z" fill="#414141"/>
<path d="M41.2191 32.6236V30.3315C41.2191 28.7405 39.9247 27.4551 38.3427 27.4551H37.8483C36.2573 27.4551 34.9719 28.7495 34.9719 30.3315V32.6236C34.9719 33.082 35.1427 33.5135 35.4303 33.8461V35.2573C34.7921 35.5989 33.5607 36.3 32.4101 37.2438C31.9607 37.6124 31.709 38.1517 31.709 38.736V40.309C31.709 40.7584 32.0775 41.127 32.527 41.127C32.9764 41.127 33.3449 40.7584 33.3449 40.309V38.736C33.3449 38.6461 33.3809 38.5652 33.4528 38.5113C34.8101 37.3967 36.2753 36.6596 36.5539 36.5247C36.8685 36.3719 37.0663 36.0483 37.0663 35.6978V33.4865C37.0663 33.2169 36.9315 32.9562 36.7067 32.8124C36.6798 32.7944 36.6079 32.7315 36.6079 32.6326V30.3405C36.6079 29.6483 37.1652 29.091 37.8573 29.091H38.3517C39.0438 29.091 39.6011 29.6483 39.6011 30.3405V32.6326C39.6011 32.7405 39.5292 32.7944 39.5022 32.8124C39.2775 32.9652 39.1427 33.2169 39.1427 33.4865V35.6978C39.1427 36.0483 39.3404 36.3719 39.6551 36.5247C39.9337 36.6596 41.4079 37.4056 42.7562 38.5113C42.8281 38.5652 42.864 38.6461 42.864 38.736V40.309C42.864 40.7584 43.2326 41.127 43.682 41.127C44.1315 41.127 44.5 40.7584 44.5 40.309V38.736C44.5 38.1607 44.2483 37.6124 43.7989 37.2438C42.6483 36.3 41.4169 35.5899 40.7786 35.2573V33.8461C41.0573 33.5135 41.2191 33.082 41.2191 32.6236Z" fill="#414141"/>
<path d="M28.0505 41.127C28.4999 41.127 28.8684 40.7584 28.8684 40.309V38.736C28.8684 38.1607 28.6168 37.6124 28.1673 37.2438C27.0168 36.3 25.7853 35.5899 25.1471 35.2573V33.8461C25.4437 33.5135 25.6055 33.082 25.6055 32.6236V30.3315C25.6055 28.7405 24.3111 27.4551 22.7291 27.4551H22.2258C20.6347 27.4551 19.3493 28.7495 19.3493 30.3315V32.6236C19.3493 33.082 19.5201 33.5135 19.8078 33.8461V35.2573C19.1696 35.5989 17.9381 36.3 16.7875 37.2438C16.3381 37.6124 16.0864 38.1517 16.0864 38.736V40.309C16.0864 40.7584 16.455 41.127 16.9044 41.127C17.3538 41.127 17.7224 40.7584 17.7224 40.309V38.736C17.7224 38.6461 17.7583 38.5652 17.8302 38.5113C19.1876 37.3967 20.6527 36.6596 20.9314 36.5247C21.246 36.3719 21.4437 36.0483 21.4437 35.6978V33.4865C21.4437 33.2169 21.3089 32.9562 21.0842 32.8124C21.0572 32.7944 20.9853 32.7315 20.9853 32.6326V30.3405C20.9853 29.6483 21.5426 29.091 22.2347 29.091H22.7291C23.4213 29.091 23.9786 29.6483 23.9786 30.3405V32.6326C23.9786 32.7405 23.9067 32.7944 23.8797 32.8124C23.655 32.9652 23.5201 33.2169 23.5201 33.4865V35.6978C23.5201 36.0483 23.7179 36.3719 24.0325 36.5247C24.3111 36.6596 25.7853 37.4056 27.1336 38.5113C27.2055 38.5652 27.2415 38.6461 27.2415 38.736V40.309C27.2325 40.7584 27.601 41.127 28.0505 41.127Z" fill="#414141"/>
<path d="M12.3382 40.9843C12.7876 40.9843 13.1562 40.6158 13.1562 40.1664V38.6113C13.1562 38.036 12.9045 37.4967 12.4551 37.1372C11.3225 36.2023 10.109 35.5102 9.47079 35.1686V33.7843C9.75843 33.4518 9.92921 33.0293 9.92921 32.5709V30.3057C9.92921 28.7327 8.65281 27.4473 7.07079 27.4473H6.58539C5.01236 27.4473 3.72697 28.7237 3.72697 30.3057V32.5709C3.72697 33.0203 3.88876 33.4518 4.18539 33.7843V35.1686C3.54719 35.5102 2.3427 36.2023 1.20112 37.1372C0.760674 37.4967 0.5 38.036 0.5 38.6113V40.1664C0.5 40.6158 0.868539 40.9843 1.31798 40.9843C1.76742 40.9843 2.13596 40.6158 2.13596 40.1664V38.6113C2.13596 38.5214 2.17191 38.4495 2.23483 38.3956C3.57416 37.299 5.02135 36.5619 5.3 36.427C5.61461 36.2742 5.81236 35.9506 5.81236 35.6091V33.4248C5.81236 33.1551 5.67753 32.8945 5.45281 32.7506C5.42584 32.7327 5.36292 32.6787 5.36292 32.5799V30.3147C5.36292 29.6405 5.91124 29.0922 6.58539 29.0922H7.07079C7.74494 29.0922 8.29326 29.6405 8.29326 30.3147V32.5799C8.29326 32.6787 8.23034 32.7327 8.20337 32.7506C7.97865 32.9034 7.84382 33.1551 7.84382 33.4248V35.6091C7.84382 35.9596 8.04157 36.2832 8.35618 36.436C8.63483 36.5709 10.082 37.3079 11.4213 38.4046C11.4843 38.4585 11.5202 38.5394 11.5202 38.6203V40.1664C11.5202 40.6248 11.8888 40.9843 12.3382 40.9843Z" fill="#414141"/>
</g>
<defs>
<clipPath id="clip0_588_21099">
<rect width="44" height="44" fill="white" transform="translate(0.5)"/>
</clipPath>
</defs>
</svg>
