<svg width="12" height="14" viewBox="0 0 12 14" fill="none" xmlns="http://www.w3.org/2000/svg">
<path d="M10 13.6668C9.44444 13.6668 8.97222 13.4724 8.58333 13.0835C8.19444 12.6946 8 12.2224 8 11.6668C8 11.5891 8.00556 11.5085 8.01667 11.4252C8.02778 11.3418 8.04445 11.2668 8.06667 11.2002L3.36667 8.46683C3.17778 8.6335 2.96667 8.76405 2.73333 8.8585C2.5 8.95294 2.25556 9.00016 2 9.00016C1.44444 9.00016 0.972222 8.80572 0.583333 8.41683C0.194444 8.02794 0 7.55572 0 7.00016C0 6.44461 0.194444 5.97239 0.583333 5.5835C0.972222 5.19461 1.44444 5.00016 2 5.00016C2.25556 5.00016 2.5 5.04739 2.73333 5.14183C2.96667 5.23627 3.17778 5.36683 3.36667 5.5335L8.06667 2.80016C8.04445 2.7335 8.02778 2.6585 8.01667 2.57516C8.00556 2.49183 8 2.41127 8 2.3335C8 1.77794 8.19444 1.30572 8.58333 0.916829C8.97222 0.527941 9.44444 0.333496 10 0.333496C10.5556 0.333496 11.0278 0.527941 11.4167 0.916829C11.8056 1.30572 12 1.77794 12 2.3335C12 2.88905 11.8056 3.36127 11.4167 3.75016C11.0278 4.13905 10.5556 4.3335 10 4.3335C9.74444 4.3335 9.5 4.28627 9.26667 4.19183C9.03333 4.09739 8.82222 3.96683 8.63333 3.80016L3.93333 6.5335C3.95556 6.60016 3.97222 6.67516 3.98333 6.7585C3.99444 6.84183 4 6.92239 4 7.00016C4 7.07794 3.99444 7.1585 3.98333 7.24183C3.97222 7.32516 3.95556 7.40016 3.93333 7.46683L8.63333 10.2002C8.82222 10.0335 9.03333 9.90294 9.26667 9.8085C9.5 9.71405 9.74444 9.66683 10 9.66683C10.5556 9.66683 11.0278 9.86127 11.4167 10.2502C11.8056 10.6391 12 11.1113 12 11.6668C12 12.2224 11.8056 12.6946 11.4167 13.0835C11.0278 13.4724 10.5556 13.6668 10 13.6668ZM10 3.00016C10.1889 3.00016 10.3472 2.93627 10.475 2.8085C10.6028 2.68072 10.6667 2.52239 10.6667 2.3335C10.6667 2.14461 10.6028 1.98627 10.475 1.8585C10.3472 1.73072 10.1889 1.66683 10 1.66683C9.81111 1.66683 9.65278 1.73072 9.525 1.8585C9.39722 1.98627 9.33333 2.14461 9.33333 2.3335C9.33333 2.52239 9.39722 2.68072 9.525 2.8085C9.65278 2.93627 9.81111 3.00016 10 3.00016ZM2 7.66683C2.18889 7.66683 2.34722 7.60294 2.475 7.47516C2.60278 7.34739 2.66667 7.18905 2.66667 7.00016C2.66667 6.81127 2.60278 6.65294 2.475 6.52516C2.34722 6.39739 2.18889 6.3335 2 6.3335C1.81111 6.3335 1.65278 6.39739 1.525 6.52516C1.39722 6.65294 1.33333 6.81127 1.33333 7.00016C1.33333 7.18905 1.39722 7.34739 1.525 7.47516C1.65278 7.60294 1.81111 7.66683 2 7.66683ZM10 12.3335C10.1889 12.3335 10.3472 12.2696 10.475 12.1418C10.6028 12.0141 10.6667 11.8557 10.6667 11.6668C10.6667 11.4779 10.6028 11.3196 10.475 11.1918C10.3472 11.0641 10.1889 11.0002 10 11.0002C9.81111 11.0002 9.65278 11.0641 9.525 11.1918C9.39722 11.3196 9.33333 11.4779 9.33333 11.6668C9.33333 11.8557 9.39722 12.0141 9.525 12.1418C9.65278 12.2696 9.81111 12.3335 10 12.3335Z" fill="black"/>
</svg>
