<svg width="25" height="24" viewBox="0 0 25 24" fill="none" xmlns="http://www.w3.org/2000/svg">
<g clip-path="url(#clip0_1055_578)">
<path d="M10.0626 4.34511C9.84227 4.3826 9.44384 4.55135 9.24227 4.68729C9.12978 4.76229 8.91415 4.96385 8.76415 5.1326L8.48759 5.43729L8.26259 5.36229C8.10321 5.30604 7.93446 5.29198 7.66727 5.30604C7.14696 5.33885 6.76259 5.53573 6.12978 6.10292C5.3704 6.78729 3.89852 7.89823 1.55477 9.56229C0.687588 10.1764 0.565713 10.2795 0.523525 10.4389C0.453213 10.7201 0.6829 11.0154 0.968838 11.0154C1.16571 11.0154 1.18915 11.0014 2.21102 10.2701C4.74227 8.46542 6.01727 7.50448 6.6454 6.92323C7.32509 6.30448 7.60165 6.17323 7.99071 6.27635L8.18759 6.3326V9.29979V12.2717L7.83134 12.4264C7.63446 12.5107 7.42352 12.642 7.36259 12.717C7.08134 13.0545 7.39071 13.556 7.81727 13.4576C7.98134 13.4154 10.7657 12.1498 12.4532 11.3435C13.5032 10.842 13.836 10.7154 14.286 10.6451C14.9704 10.5326 15.3595 10.8842 15.3688 11.6154C15.3688 11.892 15.3454 11.9904 15.2188 12.2529C15.036 12.6185 14.6657 13.0217 14.2485 13.3029C13.6626 13.6967 12.4438 14.2779 11.6329 14.5498C11.4267 14.6154 11.2907 14.7279 10.6954 15.3326C9.22353 16.8139 8.81571 17.0904 7.75165 17.3201C7.54071 17.367 6.33602 17.4514 4.5079 17.5545C0.884463 17.756 0.809463 17.7654 0.650088 17.9248C0.462588 18.1076 0.47665 18.3842 0.678213 18.567C0.865713 18.7357 0.767275 18.7357 3.3454 18.5857C4.44696 18.5248 5.79227 18.4498 6.33134 18.4217C6.8704 18.3982 7.50321 18.342 7.73759 18.2998C8.09384 18.2389 8.71259 18.0607 8.98446 17.9389C9.03603 17.9154 9.08759 17.967 9.17196 18.1264C9.33602 18.431 9.60321 18.6279 10.0157 18.7264C10.5782 18.8623 11.2204 18.7545 11.6798 18.4404C11.7782 18.3748 11.8579 18.3279 11.8626 18.3373C11.872 18.3467 11.9188 18.4264 11.9751 18.5154C12.2095 18.9092 12.6641 19.1857 13.222 19.2701C13.7798 19.3592 14.2813 19.1951 14.8298 18.7498L15.1251 18.5107L15.2751 18.5951C15.397 18.6607 15.5376 18.6795 15.922 18.6795C16.3907 18.6795 16.4329 18.6701 16.7376 18.5201C17.497 18.1498 18.0595 17.217 18.1907 16.1107L18.2235 15.8435H20.3985C21.8188 15.8435 22.6579 15.8248 22.822 15.792C23.6141 15.6232 24.2798 14.9576 24.4485 14.1654C24.5141 13.8373 24.5188 6.50136 24.4532 6.13573C24.2938 5.27792 23.4876 4.50448 22.597 4.35917C22.3298 4.31229 10.3157 4.30292 10.0626 4.34511ZM22.747 5.40917C23.2063 5.62479 23.511 6.04667 23.5157 6.47792V6.70292H16.3157H9.11571L9.14852 6.50136C9.21884 6.03261 9.6454 5.47948 10.0251 5.3576C10.1329 5.3201 12.1251 5.30604 16.3438 5.30135L22.5079 5.29667L22.747 5.40917ZM23.5157 11.306C23.5157 13.9029 23.511 13.9967 23.4173 14.2029C23.3001 14.456 23.2204 14.5545 22.9766 14.7139L22.7891 14.8357L18.1251 14.8498L13.461 14.8592L14.0235 14.5498C15.261 13.8701 15.8563 13.2889 16.1891 12.431C16.297 12.1639 16.3157 12.042 16.3157 11.6014C16.3204 11.0998 16.3157 11.0764 16.1516 10.7295C15.9266 10.2654 15.7016 10.0217 15.322 9.83417C15.0266 9.68886 14.9845 9.67948 14.5157 9.68417C13.822 9.68886 13.2079 9.88573 12.0407 10.4717C11.6376 10.6779 9.18134 11.8123 9.14384 11.8123C9.11102 11.8123 9.12509 8.69042 9.1579 8.65761C9.17196 8.63885 12.411 8.62479 16.3532 8.62479H23.5157V11.306ZM11.872 15.9232C11.8626 15.9701 11.8251 16.256 11.7923 16.556L11.736 17.1045L11.5016 17.3435C11.1735 17.667 10.8688 17.8123 10.5126 17.8123C10.1704 17.8123 10.0157 17.742 9.95477 17.5639C9.91727 17.442 9.95477 17.3998 10.7282 16.6404C11.4923 15.8904 11.5485 15.8435 11.7173 15.8435C11.8673 15.8435 11.8954 15.8576 11.872 15.9232ZM14.6423 15.9467C14.5766 16.2185 14.5063 17.1139 14.5345 17.3717L14.5626 17.6576L14.3282 17.9014C13.9579 18.2904 13.5876 18.4076 13.1516 18.2764C12.9126 18.2014 12.7813 18.0514 12.7063 17.7607C12.6501 17.5451 12.6548 17.4185 12.7438 16.6826L12.847 15.8435H13.7563H14.6657L14.6423 15.9467ZM17.211 16.1576C17.0188 17.156 16.5595 17.7326 15.9407 17.7373C15.5891 17.742 15.5282 17.6717 15.5048 17.2123C15.4907 16.8935 15.5704 15.9701 15.6266 15.8764C15.636 15.8576 16.011 15.8435 16.4563 15.8435H17.272L17.211 16.1576Z" fill="#111111"/>
<path d="M10.0626 4.34511C9.84227 4.3826 9.44384 4.55135 9.24227 4.68729C9.12978 4.76229 8.91415 4.96385 8.76415 5.1326L8.48759 5.43729L8.26259 5.36229C8.10321 5.30604 7.93446 5.29198 7.66727 5.30604C7.14696 5.33885 6.76259 5.53573 6.12978 6.10292C5.3704 6.78729 3.89852 7.89823 1.55477 9.56229C0.687588 10.1764 0.565713 10.2795 0.523525 10.4389C0.453213 10.7201 0.6829 11.0154 0.968838 11.0154C1.16571 11.0154 1.18915 11.0014 2.21102 10.2701C4.74227 8.46542 6.01727 7.50448 6.6454 6.92323C7.32509 6.30448 7.60165 6.17323 7.99071 6.27635L8.18759 6.3326V9.29979V12.2717L7.83134 12.4264C7.63446 12.5107 7.42352 12.642 7.36259 12.717C7.08134 13.0545 7.39071 13.556 7.81727 13.4576C7.98134 13.4154 10.7657 12.1498 12.4532 11.3435C13.5032 10.842 13.836 10.7154 14.286 10.6451C14.9704 10.5326 15.3595 10.8842 15.3688 11.6154C15.3688 11.892 15.3454 11.9904 15.2188 12.2529C15.036 12.6185 14.6657 13.0217 14.2485 13.3029C13.6626 13.6967 12.4438 14.2779 11.6329 14.5498C11.4267 14.6154 11.2907 14.7279 10.6954 15.3326C9.22353 16.8139 8.81571 17.0904 7.75165 17.3201C7.54071 17.367 6.33602 17.4514 4.5079 17.5545C0.884463 17.756 0.809463 17.7654 0.650088 17.9248C0.462588 18.1076 0.47665 18.3842 0.678213 18.567C0.865713 18.7357 0.767275 18.7357 3.3454 18.5857C4.44696 18.5248 5.79227 18.4498 6.33134 18.4217C6.8704 18.3982 7.50321 18.342 7.73759 18.2998C8.09384 18.2389 8.71259 18.0607 8.98446 17.9389C9.03603 17.9154 9.08759 17.967 9.17196 18.1264C9.33602 18.431 9.60321 18.6279 10.0157 18.7264C10.5782 18.8623 11.2204 18.7545 11.6798 18.4404C11.7782 18.3748 11.8579 18.3279 11.8626 18.3373C11.872 18.3467 11.9188 18.4264 11.9751 18.5154C12.2095 18.9092 12.6641 19.1857 13.222 19.2701C13.7798 19.3592 14.2813 19.1951 14.8298 18.7498L15.1251 18.5107L15.2751 18.5951C15.397 18.6607 15.5376 18.6795 15.922 18.6795C16.3907 18.6795 16.4329 18.6701 16.7376 18.5201C17.497 18.1498 18.0595 17.217 18.1907 16.1107L18.2235 15.8435H20.3985C21.8188 15.8435 22.6579 15.8248 22.822 15.792C23.6141 15.6232 24.2798 14.9576 24.4485 14.1654C24.5141 13.8373 24.5188 6.50136 24.4532 6.13573C24.2938 5.27792 23.4876 4.50448 22.597 4.35917C22.3298 4.31229 10.3157 4.30292 10.0626 4.34511ZM22.747 5.40917C23.2063 5.62479 23.511 6.04667 23.5157 6.47792V6.70292H16.3157H9.11571L9.14852 6.50136C9.21884 6.03261 9.6454 5.47948 10.0251 5.3576C10.1329 5.3201 12.1251 5.30604 16.3438 5.30135L22.5079 5.29667L22.747 5.40917ZM23.5157 11.306C23.5157 13.9029 23.511 13.9967 23.4173 14.2029C23.3001 14.456 23.2204 14.5545 22.9766 14.7139L22.7891 14.8357L18.1251 14.8498L13.461 14.8592L14.0235 14.5498C15.261 13.8701 15.8563 13.2889 16.1891 12.431C16.297 12.1639 16.3157 12.042 16.3157 11.6014C16.3204 11.0998 16.3157 11.0764 16.1516 10.7295C15.9266 10.2654 15.7016 10.0217 15.322 9.83417C15.0266 9.68886 14.9845 9.67948 14.5157 9.68417C13.822 9.68886 13.2079 9.88573 12.0407 10.4717C11.6376 10.6779 9.18134 11.8123 9.14384 11.8123C9.11102 11.8123 9.12509 8.69042 9.1579 8.65761C9.17196 8.63885 12.411 8.62479 16.3532 8.62479H23.5157V11.306ZM11.872 15.9232C11.8626 15.9701 11.8251 16.256 11.7923 16.556L11.736 17.1045L11.5016 17.3435C11.1735 17.667 10.8688 17.8123 10.5126 17.8123C10.1704 17.8123 10.0157 17.742 9.95477 17.5639C9.91727 17.442 9.95477 17.3998 10.7282 16.6404C11.4923 15.8904 11.5485 15.8435 11.7173 15.8435C11.8673 15.8435 11.8954 15.8576 11.872 15.9232ZM14.6423 15.9467C14.5766 16.2185 14.5063 17.1139 14.5345 17.3717L14.5626 17.6576L14.3282 17.9014C13.9579 18.2904 13.5876 18.4076 13.1516 18.2764C12.9126 18.2014 12.7813 18.0514 12.7063 17.7607C12.6501 17.5451 12.6548 17.4185 12.7438 16.6826L12.847 15.8435H13.7563H14.6657L14.6423 15.9467ZM17.211 16.1576C17.0188 17.156 16.5595 17.7326 15.9407 17.7373C15.5891 17.742 15.5282 17.6717 15.5048 17.2123C15.4907 16.8935 15.5704 15.9701 15.6266 15.8764C15.636 15.8576 16.011 15.8435 16.4563 15.8435H17.272L17.211 16.1576Z" fill="black" fill-opacity="0.2"/>
<path d="M10.0626 4.34511C9.84227 4.3826 9.44384 4.55135 9.24227 4.68729C9.12978 4.76229 8.91415 4.96385 8.76415 5.1326L8.48759 5.43729L8.26259 5.36229C8.10321 5.30604 7.93446 5.29198 7.66727 5.30604C7.14696 5.33885 6.76259 5.53573 6.12978 6.10292C5.3704 6.78729 3.89852 7.89823 1.55477 9.56229C0.687588 10.1764 0.565713 10.2795 0.523525 10.4389C0.453213 10.7201 0.6829 11.0154 0.968838 11.0154C1.16571 11.0154 1.18915 11.0014 2.21102 10.2701C4.74227 8.46542 6.01727 7.50448 6.6454 6.92323C7.32509 6.30448 7.60165 6.17323 7.99071 6.27635L8.18759 6.3326V9.29979V12.2717L7.83134 12.4264C7.63446 12.5107 7.42352 12.642 7.36259 12.717C7.08134 13.0545 7.39071 13.556 7.81727 13.4576C7.98134 13.4154 10.7657 12.1498 12.4532 11.3435C13.5032 10.842 13.836 10.7154 14.286 10.6451C14.9704 10.5326 15.3595 10.8842 15.3688 11.6154C15.3688 11.892 15.3454 11.9904 15.2188 12.2529C15.036 12.6185 14.6657 13.0217 14.2485 13.3029C13.6626 13.6967 12.4438 14.2779 11.6329 14.5498C11.4267 14.6154 11.2907 14.7279 10.6954 15.3326C9.22353 16.8139 8.81571 17.0904 7.75165 17.3201C7.54071 17.367 6.33602 17.4514 4.5079 17.5545C0.884463 17.756 0.809463 17.7654 0.650088 17.9248C0.462588 18.1076 0.47665 18.3842 0.678213 18.567C0.865713 18.7357 0.767275 18.7357 3.3454 18.5857C4.44696 18.5248 5.79227 18.4498 6.33134 18.4217C6.8704 18.3982 7.50321 18.342 7.73759 18.2998C8.09384 18.2389 8.71259 18.0607 8.98446 17.9389C9.03603 17.9154 9.08759 17.967 9.17196 18.1264C9.33602 18.431 9.60321 18.6279 10.0157 18.7264C10.5782 18.8623 11.2204 18.7545 11.6798 18.4404C11.7782 18.3748 11.8579 18.3279 11.8626 18.3373C11.872 18.3467 11.9188 18.4264 11.9751 18.5154C12.2095 18.9092 12.6641 19.1857 13.222 19.2701C13.7798 19.3592 14.2813 19.1951 14.8298 18.7498L15.1251 18.5107L15.2751 18.5951C15.397 18.6607 15.5376 18.6795 15.922 18.6795C16.3907 18.6795 16.4329 18.6701 16.7376 18.5201C17.497 18.1498 18.0595 17.217 18.1907 16.1107L18.2235 15.8435H20.3985C21.8188 15.8435 22.6579 15.8248 22.822 15.792C23.6141 15.6232 24.2798 14.9576 24.4485 14.1654C24.5141 13.8373 24.5188 6.50136 24.4532 6.13573C24.2938 5.27792 23.4876 4.50448 22.597 4.35917C22.3298 4.31229 10.3157 4.30292 10.0626 4.34511ZM22.747 5.40917C23.2063 5.62479 23.511 6.04667 23.5157 6.47792V6.70292H16.3157H9.11571L9.14852 6.50136C9.21884 6.03261 9.6454 5.47948 10.0251 5.3576C10.1329 5.3201 12.1251 5.30604 16.3438 5.30135L22.5079 5.29667L22.747 5.40917ZM23.5157 11.306C23.5157 13.9029 23.511 13.9967 23.4173 14.2029C23.3001 14.456 23.2204 14.5545 22.9766 14.7139L22.7891 14.8357L18.1251 14.8498L13.461 14.8592L14.0235 14.5498C15.261 13.8701 15.8563 13.2889 16.1891 12.431C16.297 12.1639 16.3157 12.042 16.3157 11.6014C16.3204 11.0998 16.3157 11.0764 16.1516 10.7295C15.9266 10.2654 15.7016 10.0217 15.322 9.83417C15.0266 9.68886 14.9845 9.67948 14.5157 9.68417C13.822 9.68886 13.2079 9.88573 12.0407 10.4717C11.6376 10.6779 9.18134 11.8123 9.14384 11.8123C9.11102 11.8123 9.12509 8.69042 9.1579 8.65761C9.17196 8.63885 12.411 8.62479 16.3532 8.62479H23.5157V11.306ZM11.872 15.9232C11.8626 15.9701 11.8251 16.256 11.7923 16.556L11.736 17.1045L11.5016 17.3435C11.1735 17.667 10.8688 17.8123 10.5126 17.8123C10.1704 17.8123 10.0157 17.742 9.95477 17.5639C9.91727 17.442 9.95477 17.3998 10.7282 16.6404C11.4923 15.8904 11.5485 15.8435 11.7173 15.8435C11.8673 15.8435 11.8954 15.8576 11.872 15.9232ZM14.6423 15.9467C14.5766 16.2185 14.5063 17.1139 14.5345 17.3717L14.5626 17.6576L14.3282 17.9014C13.9579 18.2904 13.5876 18.4076 13.1516 18.2764C12.9126 18.2014 12.7813 18.0514 12.7063 17.7607C12.6501 17.5451 12.6548 17.4185 12.7438 16.6826L12.847 15.8435H13.7563H14.6657L14.6423 15.9467ZM17.211 16.1576C17.0188 17.156 16.5595 17.7326 15.9407 17.7373C15.5891 17.742 15.5282 17.6717 15.5048 17.2123C15.4907 16.8935 15.5704 15.9701 15.6266 15.8764C15.636 15.8576 16.011 15.8435 16.4563 15.8435H17.272L17.211 16.1576Z" fill="black" fill-opacity="0.2"/>
<path d="M10.0626 4.34511C9.84227 4.3826 9.44384 4.55135 9.24227 4.68729C9.12978 4.76229 8.91415 4.96385 8.76415 5.1326L8.48759 5.43729L8.26259 5.36229C8.10321 5.30604 7.93446 5.29198 7.66727 5.30604C7.14696 5.33885 6.76259 5.53573 6.12978 6.10292C5.3704 6.78729 3.89852 7.89823 1.55477 9.56229C0.687588 10.1764 0.565713 10.2795 0.523525 10.4389C0.453213 10.7201 0.6829 11.0154 0.968838 11.0154C1.16571 11.0154 1.18915 11.0014 2.21102 10.2701C4.74227 8.46542 6.01727 7.50448 6.6454 6.92323C7.32509 6.30448 7.60165 6.17323 7.99071 6.27635L8.18759 6.3326V9.29979V12.2717L7.83134 12.4264C7.63446 12.5107 7.42352 12.642 7.36259 12.717C7.08134 13.0545 7.39071 13.556 7.81727 13.4576C7.98134 13.4154 10.7657 12.1498 12.4532 11.3435C13.5032 10.842 13.836 10.7154 14.286 10.6451C14.9704 10.5326 15.3595 10.8842 15.3688 11.6154C15.3688 11.892 15.3454 11.9904 15.2188 12.2529C15.036 12.6185 14.6657 13.0217 14.2485 13.3029C13.6626 13.6967 12.4438 14.2779 11.6329 14.5498C11.4267 14.6154 11.2907 14.7279 10.6954 15.3326C9.22353 16.8139 8.81571 17.0904 7.75165 17.3201C7.54071 17.367 6.33602 17.4514 4.5079 17.5545C0.884463 17.756 0.809463 17.7654 0.650088 17.9248C0.462588 18.1076 0.47665 18.3842 0.678213 18.567C0.865713 18.7357 0.767275 18.7357 3.3454 18.5857C4.44696 18.5248 5.79227 18.4498 6.33134 18.4217C6.8704 18.3982 7.50321 18.342 7.73759 18.2998C8.09384 18.2389 8.71259 18.0607 8.98446 17.9389C9.03603 17.9154 9.08759 17.967 9.17196 18.1264C9.33602 18.431 9.60321 18.6279 10.0157 18.7264C10.5782 18.8623 11.2204 18.7545 11.6798 18.4404C11.7782 18.3748 11.8579 18.3279 11.8626 18.3373C11.872 18.3467 11.9188 18.4264 11.9751 18.5154C12.2095 18.9092 12.6641 19.1857 13.222 19.2701C13.7798 19.3592 14.2813 19.1951 14.8298 18.7498L15.1251 18.5107L15.2751 18.5951C15.397 18.6607 15.5376 18.6795 15.922 18.6795C16.3907 18.6795 16.4329 18.6701 16.7376 18.5201C17.497 18.1498 18.0595 17.217 18.1907 16.1107L18.2235 15.8435H20.3985C21.8188 15.8435 22.6579 15.8248 22.822 15.792C23.6141 15.6232 24.2798 14.9576 24.4485 14.1654C24.5141 13.8373 24.5188 6.50136 24.4532 6.13573C24.2938 5.27792 23.4876 4.50448 22.597 4.35917C22.3298 4.31229 10.3157 4.30292 10.0626 4.34511ZM22.747 5.40917C23.2063 5.62479 23.511 6.04667 23.5157 6.47792V6.70292H16.3157H9.11571L9.14852 6.50136C9.21884 6.03261 9.6454 5.47948 10.0251 5.3576C10.1329 5.3201 12.1251 5.30604 16.3438 5.30135L22.5079 5.29667L22.747 5.40917ZM23.5157 11.306C23.5157 13.9029 23.511 13.9967 23.4173 14.2029C23.3001 14.456 23.2204 14.5545 22.9766 14.7139L22.7891 14.8357L18.1251 14.8498L13.461 14.8592L14.0235 14.5498C15.261 13.8701 15.8563 13.2889 16.1891 12.431C16.297 12.1639 16.3157 12.042 16.3157 11.6014C16.3204 11.0998 16.3157 11.0764 16.1516 10.7295C15.9266 10.2654 15.7016 10.0217 15.322 9.83417C15.0266 9.68886 14.9845 9.67948 14.5157 9.68417C13.822 9.68886 13.2079 9.88573 12.0407 10.4717C11.6376 10.6779 9.18134 11.8123 9.14384 11.8123C9.11102 11.8123 9.12509 8.69042 9.1579 8.65761C9.17196 8.63885 12.411 8.62479 16.3532 8.62479H23.5157V11.306ZM11.872 15.9232C11.8626 15.9701 11.8251 16.256 11.7923 16.556L11.736 17.1045L11.5016 17.3435C11.1735 17.667 10.8688 17.8123 10.5126 17.8123C10.1704 17.8123 10.0157 17.742 9.95477 17.5639C9.91727 17.442 9.95477 17.3998 10.7282 16.6404C11.4923 15.8904 11.5485 15.8435 11.7173 15.8435C11.8673 15.8435 11.8954 15.8576 11.872 15.9232ZM14.6423 15.9467C14.5766 16.2185 14.5063 17.1139 14.5345 17.3717L14.5626 17.6576L14.3282 17.9014C13.9579 18.2904 13.5876 18.4076 13.1516 18.2764C12.9126 18.2014 12.7813 18.0514 12.7063 17.7607C12.6501 17.5451 12.6548 17.4185 12.7438 16.6826L12.847 15.8435H13.7563H14.6657L14.6423 15.9467ZM17.211 16.1576C17.0188 17.156 16.5595 17.7326 15.9407 17.7373C15.5891 17.742 15.5282 17.6717 15.5048 17.2123C15.4907 16.8935 15.5704 15.9701 15.6266 15.8764C15.636 15.8576 16.011 15.8435 16.4563 15.8435H17.272L17.211 16.1576Z" fill="black" fill-opacity="0.2"/>
</g>
<defs>
<clipPath id="clip0_1055_578">
<rect width="24" height="24" fill="white" transform="translate(0.5)"/>
</clipPath>
</defs>
</svg>
