<svg width="24" height="24" viewBox="0 0 24 24" fill="none" xmlns="http://www.w3.org/2000/svg">
<path d="M11 23.0001V21.0001C8.91672 20.7668 7.12922 19.9043 5.63755 18.4126C4.14588 16.9209 3.28338 15.1334 3.05005 13.0501H1.05005V11.0501H3.05005C3.28338 8.96676 4.14588 7.17926 5.63755 5.6876C7.12922 4.19593 8.91672 3.33343 11 3.1001V1.1001H13V3.1001C15.0834 3.33343 16.8709 4.19593 18.3625 5.6876C19.8542 7.17926 20.7167 8.96676 20.95 11.0501H22.95V13.0501H20.95C20.7167 15.1334 19.8542 16.9209 18.3625 18.4126C16.8709 19.9043 15.0834 20.7668 13 21.0001V23.0001H11ZM12 19.0501C13.9334 19.0501 15.5834 18.3668 16.95 17.0001C18.3167 15.6334 19 13.9834 19 12.0501C19 10.1168 18.3167 8.46676 16.95 7.1001C15.5834 5.73343 13.9334 5.0501 12 5.0501C10.0667 5.0501 8.41672 5.73343 7.05005 7.1001C5.68338 8.46676 5.00005 10.1168 5.00005 12.0501C5.00005 13.9834 5.68338 15.6334 7.05005 17.0001C8.41672 18.3668 10.0667 19.0501 12 19.0501Z" fill="#B9F0DF"/>
</svg>
